<svg width="1440" height="40" viewBox="0 0 1440 40" fill="none" xmlns="http://www.w3.org/2000/svg">
<g clip-path="url(#clip0_215_1310)">
<g clip-path="url(#clip1_215_1310)">
<g clip-path="url(#clip2_215_1310)">
<mask id="mask0_215_1310" style="mask-type:alpha" maskUnits="userSpaceOnUse" x="0" y="0" width="1440" height="50">
<path d="M1440 0H0V50H1440V0Z" fill="#D9D9D9"/>
</mask>
<g mask="url(#mask0_215_1310)">
<path d="M1123.63 56.347C1122.94 56.5644 1122.37 57.1725 1121.75 57.6021C1117.34 58.4504 1112.92 58.6386 1108.43 58.7225C1100.16 58.8764 1091.9 59.5406 1083.64 60.0142C1083.49 60.022 1083.36 60.3043 1083.2 60.4592C1081.76 61.1988 1080.39 62.6806 1078.7 60.9878C1077.68 59.9704 1076.41 59.9772 1075.13 59.9588C1073 59.9275 1070.85 59.7635 1068.73 59.9556C1054.68 61.2375 1040.58 61.2761 1026.5 61.9131C1024.81 61.989 1023.13 62.3022 1021.44 62.5066C1013.8 62.8518 1006.16 63.1864 998.522 63.5465C995.782 63.675 993.009 63.6032 990.385 64.6242C980.764 64.8422 971.146 65.1042 961.524 65.2582C957.901 65.316 954.273 65.1418 950.649 65.0142C950.335 65.0037 949.925 64.6071 949.75 64.2876C949.404 63.6539 949.666 62.9564 950.198 62.6351C951.652 61.7547 953.351 61.2101 954.658 60.1654C958.763 56.885 963.327 55.962 968.452 56.762C970.755 57.1209 973.133 56.9863 975.472 57.1332C976.532 57.1991 978.017 57.0142 978.563 57.6143C981.277 60.5979 984.199 59.345 987.375 58.7384C992.991 57.6669 998.696 57.0525 1004.37 56.3243C1005.63 56.1632 1007.05 55.9966 1008.19 56.4012C1010.36 57.1692 1012.24 56.8051 1014.32 56.1511C1015.69 55.726 1017.38 55.7074 1018.74 56.1094C1021.37 56.8826 1023.75 56.9682 1026.05 55.3099C1026.84 54.7423 1027.67 55.43 1028.43 55.4021C1031.8 55.2787 1035.24 55.8982 1038.51 54.5574C1039.51 54.1449 1040.64 53.9415 1041.44 54.933C1042.52 56.2963 1043.45 56.2175 1044.43 54.8891C1045.06 54.0602 1045.92 54.113 1046.71 54.5018C1050.37 56.2772 1054.22 55.8301 1058.07 55.6832C1059.98 55.6087 1062.15 55.1157 1063.77 55.8079C1066.9 57.1467 1070.08 55.0273 1073.09 56.4475C1073.99 56.8712 1074.63 56.0244 1075.3 55.5383C1077.33 54.055 1079.59 53.9125 1082.02 54.1014C1085.63 54.3845 1089.26 54.3117 1092.87 54.6787C1095.34 54.932 1097.9 54.5295 1100.28 55.9889C1102.23 57.1861 1104.38 56.9366 1106.11 55.0913C1107.06 54.0766 1108.4 53.7977 1109.66 53.9717C1114.95 54.7002 1120.18 53.0631 1125.47 53.7229C1125.4 54.9831 1124.99 55.9193 1123.63 56.347ZM689.911 29.2014C689.817 28.8712 689.769 29.1717 689.911 29.2014ZM637.045 27.3564C636.426 27.5941 635.811 27.9369 635.2 28.3824C635.81 27.937 636.426 27.5941 637.045 27.3564ZM631.214 28.338C630.979 28.1087 630.722 27.9589 630.451 27.8589C630.722 27.9589 630.979 28.1087 631.215 28.338C632.435 28.3516 633.657 28.3652 634.877 28.3789C633.657 28.3652 632.436 28.3516 631.214 28.338ZM564.415 34.0732C563.669 33.9323 562.922 33.7901 562.175 33.648C562.922 33.7888 563.669 33.931 564.415 34.0732ZM-457.11 112.464C-457.272 112.256 -457.42 111.937 -457.586 111.779C-457.419 111.937 -457.271 112.257 -457.11 112.464ZM-525.016 78.0013C-525.423 77.886 -525.828 77.8106 -526.229 77.7699C-525.827 77.8106 -525.423 77.886 -525.016 78.0013ZM-539.131 79.6121C-539.687 79.8289 -540.297 79.9061 -541.034 80.0731C-541.44 79.8044 -541.917 79.49 -542.393 79.1757C-541.895 78.8836 -541.424 78.5137 -540.887 78.3256C-540.537 78.2027 -540.094 78.3368 -539.694 78.3722C-539.493 78.3893 -539.279 78.4086 -539.103 78.4932C-538.93 78.5765 -538.65 78.7936 -538.674 78.8678C-538.765 79.1431 -538.908 79.5243 -539.131 79.6121ZM1402.29 0.699077C1401.18 1.54614 1400.03 1.51954 1398.86 0.795557C1396.54 1.54458 1394.17 1.28934 1391.8 1.02745C1389.79 2.32856 1387.4 2.04896 1385.2 2.57346C1382.78 4.57884 1379.89 3.02466 1377.27 3.54274C1376.04 3.78543 1375.37 4.32883 1376.16 5.70238C1376.57 6.41911 1376.91 7.45895 1375.58 7.61029C1371.98 8.02108 1368.35 8.38566 1364.74 7.60512C1364.42 7.53634 1364.07 7.0896 1363.95 6.74287C1363.68 5.96905 1364.31 5.58427 1364.88 5.443C1367.02 4.91103 1369.12 5.33196 1371.19 5.92037C1372.1 6.17568 1373.17 5.87145 1373.25 5.01092C1373.3 4.39696 1372.36 3.69573 1371.87 3.03243C1369.85 3.28925 1367.84 3.84724 1365.82 3.09707C1364.53 3.11776 1363.24 3.13843 1361.97 3.15865L1361.65 3.52476L1361.18 3.4264C1359.35 4.90935 1359.19 4.91496 1357.89 3.5311L1357.88 3.62754C1357.09 3.56705 1356.31 3.50739 1355.53 3.44644C1354.93 4.35976 1354.24 5.08534 1353 4.7737C1352.14 5.14907 1351.27 5.21126 1350.42 4.73642C1348.94 4.67834 1348.58 3.03674 1347.37 2.59578C1343.87 3.20806 1340.36 3.34999 1336.84 2.94689C1335.44 3.68246 1333.98 4.24796 1332.36 4.2936C1331.95 4.29203 1331.52 4.29232 1331.09 4.29122C1330.23 4.30101 1329.37 4.30941 1328.51 4.31921C1327.68 4.73629 1326.84 5.10454 1325.94 4.48318C1325.04 4.65207 1324.52 4.15099 1324.13 3.432C1321 3.5289 1317.88 3.62529 1314.75 3.72305C1312.61 4.83827 1310.23 4.72212 1307.93 5.06466C1307.5 5.0569 1307.06 5.0509 1306.62 5.04494C1302.48 4.48023 1298.34 5.02153 1294.19 5.04406C1292.57 5.0524 1290.87 5.63564 1289.33 4.61241C1287.57 4.68716 1285.78 4.76238 1284.02 4.83846C1283.65 5.57818 1283.05 5.91277 1282.21 5.84701C1281.38 6.54305 1280.5 6.44135 1279.62 5.97457C1278.47 6.19048 1277.49 5.9055 1276.71 5.03077C1274.48 5.19376 1272.24 5.7903 1269.97 5.27017C1269.02 5.71009 1268.06 6.54941 1267.13 6.51223C1264.62 6.41136 1262.13 5.93729 1259.63 5.60942C1258.33 6.21735 1257.02 6.18967 1255.69 5.78755C1254 6.91626 1252.07 7.08585 1250.13 7.2013C1249.61 8.10117 1249.01 8.06614 1248.35 7.32714C1246.93 7.3778 1245.51 7.42716 1244.08 7.47695C1243.42 8.1856 1242.73 8.1853 1242.05 7.50453L1241.74 7.74492L1241.41 7.55355C1240.6 8.36192 1239.8 9.17296 1238.5 8.92448C1238.07 8.85009 1237.64 8.77437 1237.21 8.69998C1236.46 8.80599 1235.99 8.48731 1235.72 7.84188L1235.22 7.90711C1235.22 7.90711 1234.74 7.78927 1234.69 7.78134C1233.7 9.00444 1232.36 9.29661 1230.87 9.16037C1230.2 9.95743 1229.35 10.4083 1228.28 10.3309C1225.38 11.4242 1222.34 10.6157 1219.39 11.0024C1218.92 10.7908 1218.44 10.5792 1217.98 10.3671C1217.11 10.4267 1216.25 10.4858 1215.39 10.5436C1213.68 10.5659 1211.96 10.5881 1210.26 10.6112C1209.54 10.7203 1209.22 10.2068 1208.86 9.74857C1209.19 8.45498 1208.77 7.29669 1208.21 6.16487C1203.4 6.78412 1198.59 6.97916 1193.75 6.64432C1192.21 7.79589 1190.66 8.53925 1188.99 6.84549C1186.74 7.34921 1184.48 7.46386 1182.2 7.0548C1181.29 7.53996 1180.38 8.02509 1179.47 8.51025C1179.31 9.28297 1178.96 9.8077 1178.01 9.58044C1177.58 9.58733 1177.15 9.5929 1176.71 9.60026C1175.59 9.87121 1174.64 9.6133 1173.91 8.7074C1172.56 8.29288 1171.2 7.87968 1169.84 7.46516C1169.43 7.57552 1169.02 7.76981 1168.61 7.78424C1155.99 8.2399 1143.36 8.67961 1130.74 9.10596C1130.33 9.11905 1129.89 8.96738 1129.47 8.89119C1128.6 9.77785 1127.74 10.6632 1126.87 11.5498C1127.42 12.8007 1128.31 13.7556 1129.76 13.3012C1131.83 12.6476 1133.77 11.984 1135.61 13.8103C1136.3 14.4871 1137.1 13.9883 1137.92 13.7156C1139.68 13.1247 1141.54 12.7988 1143.34 12.2945C1144.13 12.0725 1144.75 12.5486 1144.7 13.0399C1144.52 15.1768 1145.79 15.369 1147.43 15.5028C1149.94 15.7062 1152.48 14.9497 1154.97 15.7236C1154.16 16.4978 1153.34 17.2693 1152.51 18.0439C1141.19 18.637 1129.86 19.2506 1118.53 19.8188C1096.52 20.9236 1074.51 22.0279 1052.49 23.0661C1049.24 23.2192 1046.1 23.8913 1043.06 24.8613C1039.32 26.0599 1035.55 26.4389 1031.68 26.4504C1017.56 26.494 1003.43 26.3855 989.313 26.5969C980.973 26.7225 972.641 27.3507 964.304 27.7349C963.022 27.7941 961.733 27.8242 960.456 27.7338C959.891 27.6947 959.153 27.6162 959.071 26.7292C959.004 25.9964 959.491 25.642 959.927 25.1946C960.879 24.217 962.666 24.1389 963.14 22.3147C962.425 22.1033 961.871 21.7891 961.324 21.8014C956.616 21.9115 951.909 22.0896 947.202 22.2264C945.669 22.2703 944.218 22.4715 943.112 23.6879C942.252 24.633 941.308 24.6871 940.377 23.8136C938.759 22.2968 936.87 22.4078 934.96 22.9517C933.114 23.4774 931.324 24.1907 929.479 24.7217C928.481 25.0085 927.33 25.3713 926.469 24.478C925.087 23.0438 923.372 23.2968 921.671 23.3078C917.399 23.3374 913.113 23.0607 908.896 24.073C907.96 24.299 907.202 23.7809 906.886 22.9194C906.567 22.0459 906.899 21.2312 907.715 20.7599C909.001 20.0175 910.332 19.3536 911.644 18.657C913.529 18.6996 915.971 18.0077 917.193 18.9245C920.702 21.555 924.432 20.5943 928.114 20.4651C930.127 20.3952 932.357 21.2477 934.15 19.5671C935.187 18.6332 936.182 17.7689 937.79 17.8744C939.377 17.9781 940.985 17.7581 942.585 17.6812C947.673 17.3618 952.761 17.033 957.85 16.7322C959.097 16.6582 959.742 15.966 960.057 14.8504C959.331 15.1292 958.624 15.1257 957.949 14.6982C956.986 14.9598 956.45 14.4367 956.042 13.6744C954.616 13.6973 953.19 13.7201 951.765 13.7429C950.663 14.5723 949.526 14.6572 948.347 13.903C946.553 13.9679 944.759 14.0342 942.966 14.0991C942.395 14.5286 941.824 14.958 941.252 15.3874C940.202 15.1904 939.092 15.1355 938.342 14.2023C935.614 14.3251 932.885 14.4465 930.155 14.5693C930.05 14.9559 929.87 15.3064 929.617 15.6193C929.201 15.6204 928.791 15.5707 928.388 15.4713C926.685 15.9907 924.965 16.2505 923.197 15.8089C922.056 16.03 921.097 15.7257 920.347 14.8272C917.998 14.9208 915.65 15.0157 913.301 15.1106C911.313 16.9914 908.825 16.204 906.515 16.3709C903.312 17.4921 900.028 17.2967 896.736 16.9707C896.618 17.7873 896.501 18.6038 896.383 19.4204C896.08 19.9993 895.783 20.5819 894.993 20.5853C894.993 20.584 894.872 20.6656 894.872 20.6656C893.099 23.2861 890.547 24.7675 887.461 24.3757C883.71 23.899 881.324 25.7149 879.033 28.1492C878.644 28.5616 877.966 28.7066 877.421 28.975C874.27 29.0484 871.12 29.1231 867.968 29.1965C865.41 28.8544 862.808 29.8814 859.498 28.8676C861.321 27.773 862.672 27.1084 864.224 26.829C864.46 25.5827 864.642 24.313 862.885 24.0591C860.758 23.7514 858.689 23.9086 857.123 25.6254C856.029 26.8241 855.027 26.7535 854.049 25.568C852.519 23.7107 850.836 24.4576 849.146 25.1526C849.126 25.5175 849.12 25.8846 849.069 26.2453C848.579 29.6404 848.283 29.7494 844.819 27.8351C844.818 27.8351 844.864 27.8829 844.864 27.8829L844.27 27.9755L843.754 27.6679C843.864 27.2906 843.88 26.9085 843.805 26.5228C844.152 26.3227 844.526 26.231 844.926 26.2371C844.855 25.4604 844.785 24.6837 844.715 23.9083C841.345 23.7999 837.945 23.9086 834.583 22.7259C835.145 20.6611 837.513 21.0845 838.321 19.6623C838.61 19.1506 838.99 18.349 838.784 17.9852C838.541 17.5601 837.72 17.4164 837.125 17.2383C835.396 16.726 834.562 18.484 833.164 18.8274C831.633 19.9386 829.933 19.3452 828.288 19.3049C828.44 20.0588 828.594 20.8126 828.748 21.5664C828.75 21.5663 829.101 21.37 829.101 21.37L829.4 21.6385C830.253 21.3727 831.358 21.5144 831.41 22.2811C831.451 22.9294 830.352 23.3465 829.45 23.0736C826.887 23.7096 824.317 23.9416 821.727 23.227C819.968 23.1573 820.569 21.733 820.311 20.8C819.665 20.6783 819.082 20.4625 818.779 19.8286C817.384 19.7183 816.001 19.0579 814.604 20.119C813.944 20.6209 812.97 20.476 812.204 19.9342C811.018 20.3623 809.848 20.4403 808.715 19.7698C807.894 19.9251 807.448 19.5537 807.267 18.8049C806.518 18.6628 805.932 18.2895 805.568 17.5977C804.254 17.6434 802.938 17.6891 801.623 17.7347C801.36 18.4523 801.096 19.1699 800.832 19.8875L800.273 19.9416L799.713 19.9143C798.885 20.5955 798.008 20.4832 797.113 20.07C796.32 20.1936 795.711 19.9172 795.281 19.2424C793.927 19.6817 792.559 19.7199 791.18 19.3742C790.802 20.0371 790.203 20.27 789.471 20.2447C786.544 21.3789 783.52 21.3679 780.464 21.0058C780.004 21.1085 779.545 21.2125 779.084 21.3152C778.455 20.8367 777.827 20.3569 777.197 19.8784C771.546 20.4869 765.884 20.7302 760.204 20.4299C759.666 20.8461 759.126 21.2624 758.588 21.6787C758.162 21.5921 757.737 21.5068 757.31 21.4202C752.745 22.2805 748.118 22.1437 743.507 22.2624C743.381 23.0887 743.253 23.915 743.126 24.7412L743.2 24.8467C745.339 24.7844 747.476 24.7222 749.615 24.6599C750.065 24.631 750.515 24.6007 750.965 24.5717C751.832 24.4375 752.699 24.3033 753.567 24.1705C754.007 24.6288 754.447 25.0885 754.887 25.5469L754.957 25.459C754.952 25.9915 754.947 26.5254 754.94 27.0579L754.558 27.2993L754.204 27.0167C752.919 27.8645 751.432 27.6761 750.018 27.7665C747.583 27.9231 745.196 27.9059 742.889 29.1161C741.912 29.6276 742.121 28.1274 741.867 27.4652C741.356 27.0533 740.845 26.6415 740.334 26.2297C739.769 26.2613 739.203 26.2943 738.636 26.326C737.585 27.2603 736.536 28.0826 735.508 26.3052C734.37 25.9805 734.079 25.0647 733.868 24.0915C733.486 24.034 733.106 23.9605 732.735 23.856C732.614 23.4573 732.458 23.0717 732.267 22.7008C727.449 22.9695 722.634 23.3409 717.812 23.4656C715.109 23.5355 712.367 24.2003 709.678 23.2824C707.912 23.4211 708.129 21.9901 707.826 20.9706C704.719 21.5308 701.596 21.698 698.452 21.3068C697.92 22.1645 697.963 23.1076 697.88 24.0711C697.826 24.7027 697.138 24.5585 696.783 24.0038C695.952 23.9619 695.122 23.9214 694.291 23.8795C693.795 24.7906 693.644 25.7111 694.217 26.6505C692.929 27.9933 692.149 27.2159 691.471 26.0027C690.764 24.4116 690.549 22.5219 688.766 21.5818C688.129 21.6173 687.493 21.6528 686.856 21.6883C686.475 22.5166 686.324 23.5211 685.219 23.7903C684.853 23.9524 684.487 24.1146 684.121 24.2767C684.109 25.0736 684.096 25.8705 684.084 26.6661C684.395 26.7234 684.733 26.7356 685.057 26.7738C684.733 26.7356 684.395 26.7233 684.084 26.6674C683.68 27.49 683.274 28.3126 682.87 29.1351C681.679 29.7688 680.432 29.5467 679.161 29.468C677.49 29.3633 675.806 29.4511 674.128 29.456C673.582 27.9233 674.286 26.1298 673.133 24.7237C666.567 24.949 660.004 25.1743 653.439 25.3982C652.383 26.2421 651.3 26.253 650.191 25.5017C644.877 25.6983 639.564 25.8948 634.252 26.0913C633.581 26.7843 632.901 26.7932 632.21 26.1208C630.771 26.1988 629.335 26.2767 627.898 26.3546C627.577 26.7206 627.255 27.0867 626.936 27.4526C626.633 27.0496 626.329 26.6452 626.026 26.2421C624.164 26.2748 622.293 26.2117 620.44 26.3708C618.746 26.5163 618.621 27.1984 619.731 29.3946L619.862 28.8003C620.257 28.8279 620.63 28.9324 620.98 29.1177C620.79 29.714 620.409 30.0674 619.752 30.0689C618.472 30.1186 617.192 30.1698 615.912 30.2209C615.712 30.2585 615.513 30.3161 615.312 30.3284C611.408 30.5521 611.408 30.5507 610.582 26.7811C609.641 26.8792 608.7 26.9773 607.759 27.0753L607.423 27.239L607.127 27.0118C606.472 27.667 605.823 28.3259 605.874 29.3554L605.919 29.2457C605.827 29.7439 605.736 30.2434 605.643 30.743C606.098 31.1955 606.551 31.6493 607.006 32.1018C606.79 33.0126 606.276 33.5974 605.271 33.5216C603.599 33.3955 601.879 33.4272 600.461 32.3078C598.33 32.3204 596.199 32.333 594.069 32.3456C592.843 33.138 591.556 33.1239 590.233 32.6256C589.793 32.5875 589.353 32.5508 588.912 32.5113C588.931 32.1305 588.917 31.7507 588.871 31.372C587.403 31.2202 585.776 31.5543 584.759 30.0313C584.759 30.0313 584.758 30.0327 584.756 30.0327C584.496 28.9504 583.695 28.5287 582.651 28.5596C581.818 28.5845 581.057 28.5362 580.409 27.9597C579.087 28.4338 577.751 28.4042 576.406 28.0787C574.194 28.928 571.953 29.6235 569.535 29.426C569.335 29.0914 569.146 28.7511 568.966 28.4064L568.77 28.3906C568.387 29.139 567.742 29.4602 566.928 29.5005C566.928 29.5005 566.968 29.6138 566.968 29.6125C566.005 29.4712 565.041 29.3285 564.078 29.1859C564.016 29.4842 564.043 29.7768 564.156 30.0597C561.274 28.9537 561.029 29.0796 560.353 32.0049C559.579 32.1372 558.803 32.2695 558.026 32.4019C554.181 32.8756 550.346 33.5811 546.449 32.9106C545.827 32.8802 545.185 32.681 545.294 31.9742C545.462 30.8944 545.056 30.0466 544.543 29.1905L544.112 29.2028C542.551 30.1522 540.963 30.4688 539.318 29.3986C537.514 30.0243 535.688 30.0957 533.838 29.6383C532.833 29.9214 531.821 30.182 530.824 30.4928C530.198 30.6893 529.677 31.0996 529.891 31.8099C529.981 32.107 530.49 32.4722 530.809 32.4731C532.077 32.4785 533.346 32.3557 534.614 32.2757C536.982 32.1241 539.23 32.3768 541.031 34.1474C538.682 33.9702 536.362 33.7799 534.424 35.615C533.602 36.3933 532.261 36.6173 531.441 35.9827C527.875 33.2315 523.984 35.6186 520.303 35.0767C516.049 37.2404 511.661 36.0905 507.296 35.5938C506.621 36.0068 505.969 35.9027 505.325 35.5275C501.576 35.6977 497.829 35.9332 494.08 35.982C493.349 35.9914 492.609 35.274 491.871 34.8914C491.158 35.259 490.477 35.2759 489.844 34.7189C489.49 34.6084 488.917 34.5897 488.826 34.3727C488.545 33.6994 489.136 33.3333 489.588 32.9587C489.588 32.9574 489.599 32.8717 489.599 32.8717C488.866 32.5395 488.391 31.9957 488.194 31.2247C485.718 30.2074 483.22 30.6836 480.723 31.1719C480.315 31.2782 479.906 31.3845 479.497 31.4907C477.967 32.307 477.345 30.6356 476.231 30.3087C475.761 30.796 475.27 30.7396 474.766 30.3702C474.421 31.116 473.811 31.4747 473.013 31.5597L473.008 31.564C472.555 32.7538 471.604 32.9949 470.468 32.8783L470.599 33.1578C467.976 33.1662 465.353 33.1746 462.729 33.183C462.752 34.0321 462.777 34.881 462.8 35.7301C464.996 35.6058 467.191 35.4815 469.387 35.3586L469.218 35.6473C469.737 35.6 470.225 35.6657 470.113 36.3314C470.087 36.4817 469.585 36.5538 469.303 36.661L468.916 37.0773L468.366 36.9377C464.7 37.78 461.054 39.0767 457.292 37.3463C455.53 37.8544 453.758 37.9666 451.968 37.5058C450.055 38.0218 448.141 38.5393 446.227 39.0553C444.939 38.8652 443.289 39.2187 443.711 36.8933C443.876 35.975 443.471 34.9551 443.326 33.9822C442.335 33.8952 441.345 33.8056 440.353 33.7239C439.192 33.6295 438.473 34.096 438.346 35.3038C438.85 35.5999 439.358 35.8891 439.856 36.1947C440.31 36.4738 440.752 36.7719 441.2 37.0619C440.706 37.3326 440.211 37.6046 439.718 37.8752C437.553 36.8177 435.441 38.2291 433.294 38.0142C430.757 38.8641 428.176 38.8337 425.576 38.397C424.374 38.9097 423.134 38.91 421.877 38.6682C421.878 38.6681 421.929 38.6157 421.929 38.6157C420.375 39.6836 418.605 39.9745 416.781 39.9244C415.894 39.8992 415.291 39.3278 415.253 38.4005C415.225 37.7011 415.764 37.4035 416.364 37.2226L416.363 37.2306C417.84 34.8833 417.84 34.8833 415.161 34.7468C414.733 34.8164 414.306 34.8846 413.878 34.9528C411.556 34.6265 409.233 34.299 406.91 33.9727C405.932 34.4657 404.935 34.4282 403.928 34.0817C403.624 34.3457 403.297 34.5878 403.02 34.8776C401.774 36.1803 401.018 35.6129 400.458 34.2368C399.996 34.6224 399.517 34.7244 399.015 34.311C398.526 35.4113 397.979 36.9191 396.51 35.8882C394.501 34.4784 392.663 35.3 390.728 35.6994C390.281 36.8449 389.694 36.7332 389.021 35.8907C388.671 36.1804 388.374 36.1333 388.131 35.7522C386.93 35.9673 386.064 35.1996 385.098 34.7288C384.558 35.1905 383.997 35.2033 383.42 34.8031C382.442 35.2333 381.464 35.6649 380.487 36.095C380.334 36.7928 379.919 37.2354 379.211 37.3961C379.118 37.9837 378.879 38.4897 378.186 38.3056C377.999 38.2561 377.941 37.7204 377.823 37.407L377.578 37.1473L377.757 36.8382C376.255 35.2374 373.974 36.1518 372.282 35.1619L372.025 35.3683L371.749 35.1871C370.554 35.7022 370.31 37.3437 368.877 37.5735C368.451 37.6577 368.025 37.7419 367.598 37.8261C364.198 38.4098 364.198 38.4098 363.096 35.5449C361.69 35.99 360.276 36.0378 358.853 35.6349C358.373 38.2438 358.373 38.2438 356.018 38.1442C355.15 38.4852 354.29 38.5537 353.441 38.0789C351.92 38.0784 351.648 36.4055 350.501 35.9037L350.134 36.1258L349.762 35.9173C347.37 36.9609 344.939 37.036 342.47 36.2025C340.694 36.8659 338.876 36.3994 337.077 36.4125C336.553 36.8549 336.029 37.2987 335.504 37.7412C335.175 38.2062 334.885 38.9874 334.501 39.0368C331.466 39.425 328.493 39.3108 325.92 37.3083C325.605 37.0644 325.187 36.9521 324.816 36.7782C324.566 37.0737 324.304 37.0842 324.03 36.8095C320.988 38.2934 317.869 38.2042 314.709 37.2547C313.227 37.2821 311.744 37.3082 310.263 37.3356C309.136 38.2219 307.991 38.1777 306.833 37.3987C306.199 37.4501 305.564 37.5028 304.928 37.5542C304.042 38.5163 303.147 39.3638 301.881 38.0389C301.159 37.2822 300.444 36.5119 299.657 35.8295C297.922 34.3235 294.081 34.0192 292.147 35.4139C291.632 35.7853 291.671 36.9166 291.455 37.6993C291.069 37.6833 290.687 37.6312 290.31 37.5429C288.17 37.6652 286.029 37.7876 283.89 37.9099C283.004 37.9781 282.509 37.5256 282.282 36.7144C282.17 36.3474 282.116 35.6902 281.936 35.6537C278.539 34.9725 275.149 34.4686 272.371 37.3107C272.119 37.8238 271.878 38.2417 271.148 38.2684C269.392 38.3347 267.644 38.5221 265.893 38.659C264.436 39.2993 262.943 39.5059 261.396 39.0126C259.756 39.9781 258.083 40.0643 256.369 39.2086C254.914 39.7127 253.445 39.4969 251.976 39.3064C250.079 40.3569 248.163 41.0078 246.152 39.5687C246.151 39.5687 245.671 39.5654 245.671 39.5654C244.954 40.2973 244.208 40.35 243.423 39.6675C242.856 40.1394 242.288 39.9883 241.719 39.6772C240.684 40.5657 239.61 40.5363 238.504 39.8142C238.503 39.8143 237.987 39.8268 237.987 39.8268C232.987 40.8557 226.093 41.0991 221.705 40.4043C220.981 40.7537 220.272 40.6902 219.574 40.3275C218.716 40.3573 217.859 40.3885 217.001 40.4182C215.762 40.9269 214.505 41.232 213.181 40.7377C211.46 40.6853 209.74 40.6331 208.019 40.5821C207.359 41.0679 206.632 41.1852 205.845 40.9724C205.244 41.8151 204.638 42.2084 204.014 41.0333C202.701 40.9495 201.333 39.9364 200.108 41.3557C198.333 43.4146 196.522 42.5689 194.731 41.345C193.297 41.8271 191.852 41.916 190.389 41.4811C187.183 42.8279 183.917 42.5438 180.635 41.8412C177.947 42.4082 175.242 42.4794 172.523 42.1403C171.97 42.5757 171.416 43.0112 170.862 43.4454C170.654 44.2397 170.37 45.0808 169.331 44.4685C168.304 43.8638 167.399 43.052 166.442 42.3315C163.142 42.4607 159.85 43.13 156.541 42.4671C156.334 42.433 156.013 42.4708 155.936 42.3533C154.449 40.0663 152.056 39.5183 149.615 39.0507C142.171 40.0217 134.678 39.6348 127.207 39.8342C126.11 40.9383 123.72 39.9846 123.328 42.213C124.451 42.6529 125.578 43.0928 126.779 43.562C123.016 44.8708 122.201 44.9043 116.414 44.018C114.459 44.0939 112.505 44.1698 110.551 44.2457C109.944 44.9658 109.314 44.9823 108.664 44.3032L108.314 44.5448L107.951 44.3266C107.347 45.0387 106.713 45.066 106.051 44.4059C104.589 44.9303 103.109 44.9857 101.614 44.5667C100.164 45.4536 98.7001 45.7658 97.2069 44.6597C95.7276 44.9779 94.2523 45.372 92.7316 44.8951C91.6048 45.7401 90.4521 45.7321 89.2779 44.9977C82.1247 45.6144 74.961 45.8938 67.7826 45.6028C66.604 45.9652 65.6538 45.5366 64.9921 44.611C63.3005 42.2469 61.0057 42.4947 58.6779 43.1786C58.2449 43.3044 57.9975 44.0534 57.677 44.5529C58.4087 44.7596 59.1393 45.0504 58.7864 46.0033C58.5512 46.6398 57.9526 46.6712 57.4503 46.1203C54.1764 46.8718 50.8585 46.3346 47.5634 46.445C46.8685 47.1735 46.1402 47.2162 45.3775 46.5476C43.1681 47.0873 40.9451 47.1658 38.7068 46.7699C37.4976 47.6364 36.261 47.686 34.9934 46.8882C33.2347 47.4269 31.4596 47.4605 29.669 47.0904C28.9855 47.8359 28.2869 47.8469 27.5723 47.1352C24.3927 47.4778 21.221 48.0095 18.0117 47.4685C16.1797 47.9071 14.3491 48.3469 12.5171 48.7854C12.0839 48.7884 11.6506 48.7902 11.216 48.7919C9.07787 48.8795 6.93846 48.9671 4.79901 49.0548C3.52192 49.7075 2.22876 49.6737 0.924866 49.1426C-2.92217 49.5057 -6.73655 50.6454 -10.6406 49.6163C-14.4879 50.1234 -18.3451 50.3508 -22.2187 49.957C-22.8216 50.0179 -23.4276 50.067 -24.0287 50.1439C-25.5058 50.334 -26.3087 49.8949 -26.1544 48.2152C-26.1038 47.6677 -26.5136 47.0789 -26.7121 46.5081L-27.0156 46.4987C-28.3907 47.3776 -29.0829 49.9765 -31.5984 47.7985C-32.8701 46.6953 -34.8814 47.1867 -36.4949 47.7711C-36.9413 47.9334 -37.1784 48.6701 -37.5031 49.167C-37.0425 49.3324 -36.5766 49.535 -36.7714 50.1368C-36.8308 50.319 -37.35 50.3557 -37.6576 50.4585C-39.1761 51.3437 -40.782 51.19 -42.4013 50.846C-44.3474 52.0089 -46.5589 51.6494 -48.6345 51.7602C-55.4208 52.1266 -62.2182 52.2959 -69.014 52.4692C-69.8169 52.4891 -70.6314 52.0638 -71.4401 51.845C-72.5256 51.8774 -73.6098 51.9097 -74.694 51.9434C-75.2939 52.6633 -75.9285 52.7014 -76.6011 52.039C-78.197 52.0557 -79.7929 52.0724 -81.3902 52.0892C-82.2225 52.5717 -83.0804 52.5922 -83.9597 52.2305C-85.238 52.7725 -86.5238 52.8732 -87.8226 52.2965C-88.8278 52.4008 -89.8336 52.5278 -90.8412 52.6015C-91.9425 52.6811 -92.8737 52.3332 -93.5173 51.3883C-94.4925 51.7744 -95.4777 51.8767 -96.4799 51.4925C-99.3598 52.3117 -99.3598 52.3117 -100.09 49.047C-100.638 49.4423 -101.192 49.4294 -101.747 49.0618C-102.056 49.3514 -102.49 49.5853 -102.655 49.9419C-103.418 51.5881 -104.381 52.7541 -106.488 52.4418C-107.722 52.2592 -109.046 52.7093 -110.207 51.9318C-110.947 52.3258 -111.654 52.345 -112.312 51.7595C-115.026 49.2855 -117.566 49.9981 -120.025 52.1781C-120.652 52.6348 -121.316 52.7099 -122.019 52.3634C-123.936 53.3052 -125.856 54.227 -127.865 52.6171C-129.508 52.5581 -130.171 51.4698 -130.574 50.1096C-131.343 49.9962 -131.905 49.5888 -132.258 48.8886C-132.704 49.2857 -133.164 49.3964 -133.651 48.957C-133.997 49.7522 -134.47 50.373 -135.472 50.2663L-135.408 50.2188C-137.701 51.3177 -140.031 51.428 -142.402 50.483C-143.846 51.0108 -145.313 50.8109 -146.777 50.6269C-147.543 50.915 -148.293 51.2586 -149.078 51.4779C-149.919 51.7126 -150.515 52.1109 -150.638 52.997C-150.66 52.9898 -150.682 52.9825 -150.704 52.9739C-150.705 52.974 -150.705 52.974 -150.705 52.974C-150.756 53.4827 -150.807 53.9915 -150.859 54.499C-150.422 54.876 -149.985 55.2517 -149.548 55.6274C-149.928 55.7247 -150.307 55.8219 -150.687 55.9192C-151.711 56.874 -152.782 56.7564 -153.879 56.0261C-156.592 56.1096 -159.303 56.1944 -162.014 56.2779C-163.823 57.1945 -165.63 58.1098 -167.437 59.025C-168.757 59.6846 -170.044 59.5585 -171.306 58.8633C-172.69 58.7485 -173.276 57.6002 -174.092 56.7506C-177.049 56.772 -180.006 56.7945 -182.962 56.8158C-185.956 57.2267 -188.943 57.8681 -191.98 57.1557C-193.205 57.3023 -194.226 56.78 -195.221 56.1689C-200.573 56.7657 -205.927 57.1878 -211.309 56.6115C-213.646 56.8448 -215.953 56.8648 -218.083 55.65C-220.019 55.7199 -221.956 55.7885 -223.892 55.8584C-224.365 56.3058 -224.838 56.7545 -225.311 57.2032C-225.36 58.0654 -225.76 58.5169 -226.702 58.3335C-228.25 58.8982 -229.822 59.1502 -231.448 58.6917C-235.131 59.9483 -238.859 59.9497 -242.619 59.0876C-244.824 59.6645 -247.047 59.715 -249.287 59.3445C-250.838 60.7619 -252.435 60.3824 -254.046 59.4671C-255.513 59.993 -256.996 60.0526 -258.497 59.6284C-260.088 60.5389 -261.707 60.6697 -263.365 59.8001C-264.034 60.2169 -264.673 60.099 -265.3 59.7085C-265.894 59.5637 -266.705 59.6133 -267.045 59.2395C-268.509 57.628 -269.99 58.2024 -271.52 58.9346C-271.716 59.6885 -272.2 60.0282 -273.007 59.9081C-273.439 59.9205 -273.871 59.9315 -274.304 59.9425C-277.442 57.4646 -280.365 58.0103 -283.146 60.5631C-283.145 60.5631 -283.109 60.5458 -283.109 60.5458C-283.973 60.9854 -284.837 61.425 -285.701 61.8645C-286.086 62.1207 -286.475 62.3344 -286.869 62.5135C-286.475 62.3357 -286.086 62.1207 -285.702 61.8659C-286.562 61.5196 -287.423 61.1732 -288.282 60.8281C-287.268 59.9644 -287.15 59.2359 -288.638 58.8446C-289.589 58.5948 -290.563 58.4285 -291.527 58.2245C-294.243 58.8072 -296.977 58.8994 -299.727 58.512C-300.395 59.2596 -301.092 59.2865 -301.818 58.5926C-310.048 59.0505 -318.265 59.8401 -326.524 59.4599C-327.772 60.5171 -329.052 60.5656 -330.369 59.5841C-330.371 59.5841 -330.305 59.5271 -330.305 59.5271C-332.605 60.745 -335.139 60.6329 -337.624 60.7912C-340.114 60.9511 -342.605 61.0923 -345.096 61.2401C-352.94 61.6593 -360.782 62.1118 -368.628 62.475C-370.953 62.5824 -373.289 62.4353 -375.62 62.4055C-381.989 63.7354 -393.328 64.1319 -398.209 63.1967C-398.21 63.1967 -398.467 63.3991 -398.467 63.3991L-398.738 63.2164C-400.904 64.3696 -403.316 64.2346 -405.633 64.3604C-414.394 64.8367 -423.161 65.2092 -431.927 65.5577C-437.266 65.7697 -442.609 65.8632 -447.951 66.01C-454.593 66.6516 -461.234 67.3385 -467.925 66.8998C-471.168 68.1945 -474.585 67.6581 -477.929 67.7875C-479.922 67.8647 -480.295 65.5322 -481.814 64.8179C-487.173 65.6057 -492.559 65.6166 -497.953 65.3637C-498.868 66.2226 -498.7 68.2247 -500.7 67.9406L-501.031 68.2669L-501.472 68.1142C-504.357 70.1289 -504.357 70.1289 -507.677 67.0449C-510.279 67.5675 -512.896 67.6704 -515.528 67.3122C-516.714 67.9964 -516.871 69.9256 -518.662 69.8771C-519.544 70.3293 -520.415 70.401 -521.266 69.8048C-522.313 69.7211 -523.362 69.5414 -524.403 69.5815C-525.612 69.6262 -526.329 70.2728 -526.195 71.6023C-526.074 72.7868 -525.099 73.9804 -526.21 75.1623C-527.502 75.1098 -528.489 74.8118 -528.486 73.1761C-528.485 72.6824 -529.079 72.1881 -529.401 71.6936C-530.339 72.1358 -531.283 72.1993 -532.234 71.736C-533.247 72.5556 -533.239 74.6032 -535.254 74.2196C-536.371 74.3198 -537.489 74.4213 -538.607 74.5215C-538.933 75.2586 -539.395 75.8043 -540.294 75.7501C-540.787 76.5557 -541.348 76.4752 -541.948 75.873C-543.157 76.2512 -544.346 76.1056 -545.527 75.7464C-546.341 75.7573 -547.163 75.6978 -547.965 75.7977C-549.064 75.9319 -549.21 76.6201 -548.692 77.4693C-548.487 77.8037 -548.138 78.0624 -547.823 78.317C-547.231 78.794 -546.338 79.278 -547.414 80.0065C-547.816 80.2793 -548.579 80.0243 -549.178 80.0117C-549.863 80.4331 -550.563 80.4561 -551.276 80.0833C-551.524 80.4107 -551.775 80.7356 -552.031 81.058C-563.53 81.5214 -575.028 81.9887 -586.529 82.4415C-588.226 82.5084 -589.926 82.5048 -591.625 82.5344C-593.163 83.0921 -594.723 83.3531 -596.34 82.8942C-596.721 83.0796 -597.091 83.3993 -597.485 83.4317C-607.506 84.2373 -617.527 85.0562 -627.592 85.0522C-630.883 85.5334 -634.168 86.1238 -637.516 85.605C-638.578 86.425 -639.664 86.4747 -640.777 85.7048C-643.24 85.8584 -645.691 86.4358 -648.173 85.9096C-649.787 86.3206 -651.1 85.5537 -652.424 84.8312C-653.432 85.2785 -654.457 85.3621 -655.505 84.9756C-656.314 86.0163 -656.233 88.0507 -658.418 87.5529C-659.189 88.14 -659.992 87.9278 -660.799 87.6449C-661.677 88.0997 -662.556 88.5544 -663.433 89.0092C-663.361 89.7645 -663.289 90.5198 -663.217 91.275C-662.867 91.1922 -662.509 91.0584 -662.178 91.1029C-661.837 91.1497 -661.334 91.3671 -661.244 91.6268C-661.014 92.2952 -661.515 92.6182 -662.11 92.7536C-662.487 92.8387 -662.878 92.8696 -663.262 92.9243C-663.968 94.1095 -665.156 94.507 -666.364 94.2941C-668.82 93.8591 -671.219 94.368 -673.643 94.4294C-674.382 94.9661 -675.164 94.8839 -675.961 94.59C-677.261 95.2435 -678.559 95.897 -679.859 96.5518C-679.86 96.5532 -679.79 96.6521 -679.79 96.6521C-677.361 98.4103 -674.541 97.9601 -671.829 97.99C-669.543 98.016 -667.255 97.8525 -664.926 97.7716C-665.347 100.86 -665.347 100.86 -661.882 102.341C-663.223 103.548 -665.397 103.235 -666.303 105.479C-667.357 108.09 -666.2 109.819 -665.05 111.734C-664.729 111.64 -664.418 111.666 -664.121 111.83C-663.489 111.342 -662.857 110.854 -662.226 110.366C-660.674 109.164 -660.093 110.045 -659.759 111.457C-658.78 111.603 -657.783 111.679 -656.833 111.927C-655.885 112.173 -656.285 112.877 -656.7 113.213C-657.309 113.706 -658.074 114.009 -658.775 114.394C-659.196 114.359 -659.603 114.417 -659.999 114.567C-659.958 114.916 -659.953 115.268 -659.982 115.623C-659.594 115.738 -659.2 115.775 -658.796 115.735L-658.798 115.738C-659.144 116.206 -659.491 116.675 -659.837 117.144C-659.836 117.145 -659.76 117.047 -659.76 117.047C-659.653 117.837 -659.546 118.626 -659.439 119.416C-659.109 119.347 -658.826 119.432 -658.589 119.67C-657.688 119.507 -656.787 119.345 -655.884 119.182C-654.118 119.695 -652.352 120.212 -650.583 120.72C-650.032 120.877 -649.869 121.19 -650.186 121.644C-650.408 121.964 -650.682 122.444 -650.978 122.479C-651.779 122.57 -652.623 122.564 -653.415 122.414C-655.013 122.109 -656.588 121.695 -658.191 122.307C-658.114 122.621 -658.129 122.93 -658.255 123.232C-656.685 124.847 -656.696 125.108 -658.251 126.052C-658.25 126.052 -658.209 126.025 -658.209 126.025C-659.478 126.495 -660.745 126.964 -662.014 127.434C-661.864 128.181 -661.715 128.927 -661.565 129.673C-660.216 129.061 -658.851 129.014 -657.468 129.553C-656.541 129.006 -655.615 128.458 -654.688 127.909C-652.68 125.66 -650.659 126.956 -648.638 127.982C-648.635 127.983 -648.663 127.96 -648.663 127.96C-648.16 127.062 -648.073 125.836 -646.758 125.579C-646.758 125.581 -646.691 125.536 -646.691 125.536C-646.173 124.593 -645.463 123.983 -644.293 124.184C-642.552 124.134 -640.811 124.083 -639.07 124.033C-638.249 123.956 -637.427 123.88 -636.606 123.803C-634.928 122.089 -633.253 120.375 -631.575 118.662L-631.314 118.275L-630.864 118.403C-629.381 117.305 -627.623 117.449 -625.931 117.366C-622.516 117.2 -619.095 117.102 -615.68 116.952C-614.796 116.913 -614.027 117.06 -613.494 117.824C-612.448 117.836 -611.519 118.115 -610.853 118.98C-608.785 118.897 -606.717 118.816 -604.65 118.735C-599.546 119.308 -594.463 118.608 -589.37 118.509C-588.095 118.484 -586.817 118.391 -585.547 118.461C-584.159 118.539 -584.164 119.791 -583.825 120.73C-583.404 120.747 -582.991 120.815 -582.589 120.936C-580.433 120.498 -578.268 120.418 -576.088 120.728C-575.688 120.571 -575.281 120.554 -574.869 120.68C-573.245 120.509 -571.619 120.336 -569.994 120.165C-569.614 118.711 -569.335 117.158 -567.22 117.469C-563.761 116.872 -560.311 117.141 -556.863 117.581C-556.507 117.485 -556.146 117.415 -555.779 117.373C-555.816 117.303 -555.859 117.252 -555.899 117.188C-555.859 117.252 -555.815 117.303 -555.779 117.373C-555.542 117.661 -555.444 117.992 -555.468 118.359C-554.839 118.5 -554.301 118.765 -554.015 119.373C-550.664 119.339 -547.312 119.304 -543.96 119.271C-537.723 118.349 -531.455 118.192 -525.168 118.57C-523.712 117.776 -522.249 117.347 -520.755 118.469C-519.657 118.346 -518.746 118.688 -518.045 119.546C-517.59 119.564 -517.134 119.581 -516.679 119.6C-516.556 120.564 -517.094 121.029 -517.938 121.261C-518.175 121.927 -518.733 122.026 -519.356 122.014C-520.443 122.695 -521.669 122.567 -522.865 122.607C-523.168 123.294 -523.699 123.701 -524.423 123.865C-524.398 124.684 -524.375 125.504 -524.35 126.325C-523.091 126.341 -521.831 126.358 -520.572 126.374C-519.446 126.247 -518.32 126.119 -517.195 125.991C-516.662 125.397 -516.13 124.805 -515.595 124.209C-515.015 123.202 -514.087 123.185 -513.098 123.341C-512.924 123.03 -512.792 122.703 -512.702 122.358C-511.077 122.2 -509.453 122.043 -507.828 121.886C-507.799 122.762 -507.77 123.637 -507.739 124.513C-506.521 124.453 -505.304 124.393 -504.086 124.335C-504.054 123.503 -504.022 122.67 -503.989 121.838C-504.662 121.701 -505.191 121.418 -505.236 120.634C-504.871 120.452 -504.487 120.393 -504.085 120.453C-503.583 119.417 -502.734 118.965 -501.602 118.982C-500.72 117.932 -499.438 117.939 -498.238 117.816C-495.583 117.547 -492.922 117.343 -490.263 117.114C-489.261 114.416 -489.205 114.463 -486.77 114.694C-484.71 114.889 -482.632 114.891 -480.566 115.014C-479.372 115.085 -478.091 114.727 -477.048 115.631C-475.458 115.883 -473.899 116.192 -472.248 115.876C-470.221 115.488 -468.179 115.582 -466.263 116.532C-465.582 116.096 -464.905 116.096 -464.228 116.536C-461.778 116.136 -459.3 115.527 -457.158 117.462C-455.396 116.877 -453.621 116.783 -451.827 117.304C-450.103 116.241 -448.189 115.955 -446.206 115.952C-445.386 115.387 -444.534 115.341 -443.651 115.796C-442.117 115.444 -440.764 115.748 -439.628 116.855C-436.262 116.733 -432.897 116.61 -429.532 116.49C-426.948 114.501 -424.293 114.803 -421.602 116.298L-421.663 116.263C-420.416 116.24 -419.169 116.215 -417.923 116.192C-415.626 114.34 -412.88 114.469 -410.197 114.613C-408.994 114.68 -408.655 115.818 -408.569 116.912C-406.599 116.783 -404.593 116.491 -403.019 118.138L-402.962 118.162C-400.195 115.74 -396.782 116.742 -393.621 116.413C-393.22 115.118 -392.747 113.871 -391.456 113.149C-390.642 114.24 -390.427 115.751 -389.035 116.393C-387.064 115.767 -385.087 115.636 -383.095 116.292C-381.438 116.159 -379.781 116.024 -378.124 115.89C-377.894 115.576 -377.7 115.146 -377.402 115.054C-375.599 114.503 -371.943 114.858 -369.646 115.708C-369.645 115.708 -369.53 115.697 -369.53 115.697C-369.169 114.96 -368.568 114.559 -367.765 114.443C-366.941 112.568 -365.987 113.748 -365.058 114.332C-358.217 114.114 -351.376 113.897 -344.536 113.681C-343.448 113.093 -342.331 112.974 -341.175 113.468C-339.173 112.392 -337.133 112.382 -335.062 113.258C-330.525 112.5 -325.974 112.253 -321.397 112.826C-321.037 112.535 -320.648 112.49 -320.233 112.685C-319.598 111.846 -318.774 111.359 -317.693 111.352C-316.638 110.081 -315.512 110.33 -314.355 111.232C-314.353 111.233 -314.038 111.021 -314.038 111.021L-313.737 111.25C-310.883 110.763 -308.053 110.474 -305.466 112.228C-304.779 111.788 -304.088 111.752 -303.392 112.205C-301.274 112.113 -299.155 112.021 -297.035 111.928C-296.248 111.393 -295.46 110.856 -294.672 110.319C-293.419 108.964 -293.255 108.986 -291.246 110.415C-291.245 110.415 -291.176 110.455 -291.176 110.455C-287.837 108.831 -284.45 108.572 -280.996 110.093C-280.994 110.093 -280.635 109.839 -280.635 109.839L-280.287 110.107C-276.78 109.94 -273.274 109.75 -269.766 109.618C-268.729 109.579 -267.695 109.717 -267.045 110.711C-267.045 110.709 -267.083 110.648 -267.083 110.648C-266.691 110.445 -266.351 110.511 -266.064 110.845C-259.654 110.047 -253.233 109.681 -246.783 110.285C-245.921 110.239 -245.058 110.194 -244.196 110.15L-243.921 109.866L-243.563 110.033C-241.959 107.943 -240.268 109.17 -238.589 109.907C-232.125 109.027 -225.636 108.866 -219.128 109.182C-216.775 106.888 -214.342 106.942 -211.842 108.937L-211.913 108.884C-211.504 108.709 -211.118 108.75 -210.754 109.006C-207.977 108.161 -205.158 108.173 -202.32 108.617C-201.521 107.663 -200.689 107.641 -199.824 108.53C-198.766 107.986 -197.702 107.972 -196.629 108.479C-193.63 108.011 -190.618 107.975 -187.597 108.224L-187.241 107.917L-186.799 108.086C-185.802 106.824 -184.363 106.575 -182.902 106.531C-180.218 106.45 -177.532 106.462 -174.845 106.435C-172.587 104.944 -172.568 104.951 -170.874 106.37C-170.874 106.369 -170.893 106.352 -170.893 106.352C-169.88 106.716 -168.865 107.08 -167.85 107.444C-165.451 106.8 -163.038 106.667 -160.605 107.24C-159.337 106.558 -158.051 106.273 -156.717 107.065C-153.311 106.342 -149.89 106.127 -146.447 106.8C-144.738 106.106 -143.413 107.043 -142.051 107.824C-137.29 107.041 -132.505 106.927 -127.703 107.285C-126.621 105.351 -125.541 106.463 -124.459 107.267C-121.566 107.101 -118.674 106.935 -115.78 106.769C-115.314 105.311 -114.416 104.315 -112.788 104.108C-109.742 103.721 -106.922 104.08 -104.737 106.529C-94.8396 105.312 -84.8668 105.674 -74.9391 105.136C-73.9027 105.079 -72.8504 105.321 -71.807 105.425C-68.8717 105.27 -65.9377 105.115 -63.0038 104.958C-62.7798 104.306 -62.322 103.896 -61.6386 103.719C-60.604 102.046 -60.2454 102.055 -58.9266 103.738C-58.1455 103.861 -57.4466 104.126 -57.0134 104.846C-57.0121 104.846 -56.9916 104.856 -56.9916 104.856C-56.3795 104.445 -55.7675 104.033 -55.1554 103.622C-54.8496 102.281 -53.7975 102.177 -52.7024 102.147C-51.9645 101.002 -50.814 100.678 -49.5467 100.664C-48.3451 100.652 -47.5936 100.963 -48.145 102.453C-48.4563 103.291 -47.793 103.957 -47.2524 104.567C-45.2036 104.457 -43.1547 104.349 -41.106 104.239C-40.4713 103.438 -39.8181 103.627 -39.1566 104.241C-38.2491 103.722 -37.3273 103.687 -36.3892 104.154C-36.3045 103.968 -36.2171 103.784 -36.1364 103.597C-34.211 99.1338 -34.211 99.1338 -29.5856 101.567L-29.4627 101.629C-28.4055 102.354 -27.3483 103.081 -26.2898 103.807C-24.0581 103.137 -21.81 103.048 -19.5388 103.579C-17.7401 102.843 -16.0349 101.734 -13.9371 102.181C-13.0256 101.7 -12.14 101.587 -11.3185 102.365C-9.15887 102.66 -6.80152 101.25 -4.81989 103.087C-4.01018 103.069 -3.20052 103.051 -2.39081 103.033C-2.07571 102.761 -1.77411 102.294 -1.44476 102.275C4.00269 101.947 9.45656 101.077 14.8932 102.39C16.0008 101.838 17.1146 101.771 18.2433 102.317C20.3831 101.858 22.5368 101.793 24.7043 102.084L25.0268 101.791L25.4009 102.016C29.1071 100.317 32.8639 100.096 36.6824 101.635C37.8218 101.148 38.9643 101.018 40.1179 101.585C41.404 101.303 42.5059 101.585 43.3609 102.628C43.8099 102.157 44.2679 102.173 44.7338 102.603C45.3162 102.188 45.9001 101.772 46.4825 101.357C46.5061 100.655 46.763 100.1 47.4302 99.8061C47.5936 98.8052 47.9108 97.9043 48.9858 97.4947L48.9934 97.4838C49.2704 96.2788 49.7678 96.1174 50.5062 97.0857C51.7241 97.1155 52.8479 97.1418 53.9737 96.3076C55.5703 95.1248 56.5782 96.3986 57.6694 97.8242C56.1827 99.6516 53.3914 98.8266 51.8749 100.458L51.8405 100.662C52.8186 101.199 53.7968 101.737 54.7762 102.274C54.7775 102.274 55.1995 102.026 55.1995 102.026L55.5959 102.312C63.7498 102.034 71.9037 101.755 80.0575 101.477L80.382 101.166L80.7998 101.334C82.5427 99.7355 82.5549 99.739 84.5406 101.195C87.7402 100.581 90.9501 100.373 94.1805 100.942C96.2846 100.842 98.3901 100.742 100.494 100.641C101.125 99.7772 101.99 99.3643 103.055 99.3406C103.495 98.3755 103.998 98.21 104.593 99.1846C106.59 98.9498 108.354 99.8331 110.197 100.357C112.137 99.6951 114.086 99.5833 116.055 100.211C118.171 100.114 120.289 100.016 122.407 99.9187C122.536 99.7742 122.652 99.6074 122.812 99.5165C125.781 97.8244 128.736 98.4248 131.686 99.5912C131.686 99.5898 131.611 99.519 131.611 99.519C132.436 99.5331 133.262 99.5471 134.088 99.5598L134.359 99.3169L134.676 99.5007C138.451 97.6605 142.263 96.8318 146.187 99.0916C149.226 98.4124 152.282 98.2903 155.36 98.7704C156.651 97.7463 158.146 97.4343 159.756 97.5278C164.003 96.4397 168.296 96.4 172.615 96.9771C173.49 96.7159 173.96 97.1479 174.266 97.8577C175.38 98.0285 176.468 98.2575 177.188 99.2598C178.07 98.7476 178.965 98.7551 179.872 99.1852C181.089 97.9489 182.535 97.4518 184.255 97.835C184.677 97.8283 185.1 97.8217 185.522 97.815C186.771 97.3967 188.038 97.3728 189.319 97.6325C190.382 96.6363 191.645 96.1748 193.1 96.2124C193.552 95.3682 194.054 95.204 194.635 96.0724C196.471 96.0113 198.47 95.0586 199.941 96.9954C200.885 97.4683 201.827 97.9399 202.772 98.4114C206.651 97.6763 210.553 97.5688 214.473 97.981C215.36 94.8977 217.716 94.928 220.231 95.2942C221.98 94.7585 223.731 94.2255 225.374 95.5826C226.409 96.2297 227.445 96.8768 228.482 97.5239C228.96 97.0483 229.461 97.0203 229.987 97.4409C230.324 96.7128 230.886 96.249 231.648 96.0211C232.069 94.9218 233.01 94.8638 234.024 94.8419C235.363 94.8141 236.701 94.7062 238.04 94.6277C237.953 93.9223 237.867 93.2182 237.78 92.5128C237.202 92.3034 236.353 92.2489 236.117 91.8435C235.553 90.8704 236.306 90.2106 237.192 90.0904C239.496 89.7782 241.817 89.5896 244.138 89.4423C244.357 89.428 244.619 90.0553 244.862 90.3844C246.205 91.7386 247.327 93.334 249.102 94.2182C250.181 93.7031 251.264 93.6482 252.359 94.1679C254.249 93.9875 256.262 93.0103 257.828 94.9331C258.839 95.0862 259.815 95.2991 260.38 96.2681C261.561 96.2685 262.743 96.2701 263.925 96.2704C264.769 95.4353 265.178 94.1402 266.532 93.8437C267.338 93.1473 268.204 93.2427 269.094 93.6507C270.37 93.2142 271.662 93.1787 272.966 93.5002L273.375 93.1819L273.851 93.3908C274.525 92.6616 275.23 92.6318 275.963 93.3068C278.372 92.6735 280.793 92.5307 283.234 93.105C284.739 92.8112 286.237 92.5417 287.348 93.96C296.722 93.7292 306.094 93.4999 315.468 93.2691L315.758 92.9761L316.13 93.1567C317.303 91.3429 318.548 92.5204 319.779 93.0727C321.53 92.4302 323.305 92.3979 325.101 92.8518C325.199 92.6643 325.268 92.4524 325.402 92.2943C327.449 89.8872 327.448 89.8926 329.784 91.6072C330.296 91.9817 330.84 92.3136 331.37 92.6648C335.48 91.943 339.6 91.6919 343.747 92.3204C344.545 92.2219 345.343 92.1235 346.142 92.0237C347.478 90.435 347.707 90.4071 349.095 91.7838C352.177 91.7048 355.261 91.6884 358.337 91.5229C360.261 91.4187 362.025 91.6829 363.604 92.8302C365.328 92.1926 367.075 92.152 368.844 92.6175C369.35 91.7314 369.328 90.4301 370.728 90.2467C371.141 89.8455 371.574 89.8238 372.024 90.183C373.468 90.0088 374.866 90.0216 376.006 91.1081C376.413 90.8685 376.813 90.8826 377.204 91.1519L377.556 90.8501L377.981 91.0342C378.537 90.6173 379.093 90.2017 379.65 89.7848C379.689 89.0323 379.902 88.4032 380.781 88.2566L380.725 88.3026C383.584 87.0212 383.938 86.9996 384.713 89.2541C385.137 90.4841 385.647 91.399 386.741 92.0254C386.743 92.0253 387.067 92.0101 387.067 92.0101C387.476 91.5596 388.069 91.1761 388.26 90.6478C388.676 89.4847 387.722 87.3965 389.952 87.5232C391.465 87.6081 391.087 89.4316 391.482 90.5106C391.609 90.8584 391.657 91.2369 391.732 91.6052C392.098 91.4778 392.417 91.5534 392.689 91.8508L393.086 91.5676L393.521 91.7846C395.109 90.5087 396.721 89.8257 398.436 91.5806C398.918 91.1142 399.411 91.1665 399.91 91.5494C400.939 90.5277 401.989 89.9416 403.131 91.3201C404.268 91.2766 405.407 91.2318 406.546 91.1869C406.861 89.663 407.547 88.5052 409.373 88.5165C410.645 88.523 411.915 88.5603 413.187 88.5828C420.452 87.6315 427.742 87.4089 435.055 87.7994C435.658 87.6811 436.262 87.4573 436.863 87.4644C439.09 87.4912 438.09 88.8521 437.781 90.0635C439.084 90.0182 440.338 89.8826 441.58 89.9529C443.588 90.0672 442.262 88.7712 442.543 88.1491C442.984 87.1772 444.241 87.3069 445.27 87.5114C445.802 86.8938 446.28 86.2169 446.879 85.6731C448.827 83.9097 449.946 84.3271 451.096 87.1917C451.097 87.1916 451.217 87.1955 451.217 87.1955C451.604 86.0453 451.679 84.5338 453.322 84.4848C458.707 84.3284 464.107 83.738 469.461 84.8582C469.616 84.8915 469.729 85.1197 469.858 85.278C472.195 85.3063 474.53 85.3279 476.865 85.3642C479.406 85.404 481.996 84.9526 484.437 86.0779C484.438 86.0778 484.832 85.8013 484.832 85.8013L485.221 86.0867C487.27 85.8434 487.474 86.0751 487.162 88.5008C488.068 88.0024 488.986 87.9838 489.92 88.417C490.105 85.5835 490.258 85.3567 492.35 85.1626C493.589 85.0476 494.843 84.9586 495.976 85.6651C495.978 85.665 496.248 85.653 496.248 85.653C497.893 84.5352 499.568 84.2529 501.297 85.4776C501.299 85.4789 501.614 85.2639 501.614 85.2639L501.916 85.4962C502.741 85.4369 503.565 85.3789 504.388 85.321C505.732 84.3951 507.073 83.464 508.423 82.5446C509.387 81.888 510.369 81.9193 511.352 82.5176C512.048 82.0865 512.736 82.112 513.419 82.5458C515.272 82.4521 517.345 81.2741 518.718 83.5706C519.38 83.713 519.912 84.0228 520.189 84.6589C520.919 84.6509 521.648 84.6442 522.378 84.6376L522.294 84.7058C524.219 82.9433 526.581 83.5029 528.836 83.49C528.959 84.7225 529.081 85.955 529.203 87.1875C529.624 87.1996 530.023 87.2912 530.403 87.4647C531.226 87.3334 532.049 87.2034 532.873 87.0734C533.025 86.1823 532.599 84.9763 534.111 84.8211C534.811 84.6167 535.512 84.4109 536.213 84.2078C536.268 83.775 536.321 83.3409 536.374 82.9067C538.923 81.1012 539.354 81.0982 539.942 83.159C540.233 84.1762 540.215 85.2629 541.255 85.8925C542.648 85.8601 543.454 84.6687 544.621 84.1813C545.876 83.6547 547.301 83.4678 548.133 84.6424C549.203 86.1541 550.62 86.0903 552.1 86.0669C555.063 86.0187 558.025 85.9211 560.987 85.845C562.976 81.8522 563.012 81.8496 567.477 82.1135C567.13 83.0141 566.783 83.9146 566.438 84.8152C566.399 85.1661 566.428 85.5119 566.523 85.8528C567.28 85.8265 568.037 85.8003 568.795 85.7739C569.312 85.7346 569.828 85.6967 570.346 85.6574L570.229 85.7282C570.654 85.7214 571.067 85.7845 571.469 85.9186C571.825 85.7128 572.209 85.6247 572.62 85.6532C572.916 84.9851 573.252 84.3597 574.088 84.2533C574.469 84.2601 575.02 84.4318 575.202 84.2467C576.547 82.8738 577.626 83.1552 578.669 84.6026C578.896 84.9189 579.335 85.0864 579.68 85.3226L580.088 85.0629L580.48 85.3415C580.835 85.045 581.218 84.9983 581.629 85.1935C582.177 84.3887 582.727 83.5851 583.276 82.7789C584.482 81.0107 584.48 81.0094 587.067 82.4165L586.963 82.3573C588.155 82.7562 589.345 83.0991 590.485 82.255C590.719 81.4264 591.304 80.9685 592.154 80.947C593.368 80.9169 594.585 80.9894 595.8 81.0179C596.222 80.9939 596.645 80.9712 597.067 80.9472C598.968 80.6904 600.969 79.8258 602.499 81.7912C604.111 83.004 605.786 81.7184 607.425 81.8736L607.785 81.5689L608.217 81.7607C610.633 79.5848 613.531 80.0726 616.38 80.3058L616.768 79.9988L617.232 80.1722C618.145 79.6668 619.058 79.1628 619.97 78.6562C620.359 77.7008 621.376 77.3 621.911 77.9018C622.992 79.121 624.534 79.1501 625.764 79.8959L626.14 79.8708C626.873 78.3872 627.599 77.1252 629.677 77.0811C632.139 77.0276 634.482 77.2824 636.769 78.1462C636.959 77.4685 637.309 76.9814 638.151 77.0803C638.58 77.02 639.01 76.9584 639.438 76.8982C639.888 76.8826 640.34 76.8682 640.79 76.8525C640.833 77.7289 640.877 78.6039 640.921 79.4803C641.685 79.4444 642.448 79.4073 643.212 79.3714C643.675 78.9257 644.14 78.48 644.603 78.0343C644.603 78.0343 644.574 78.0513 644.575 78.0513C644.613 77.6764 644.646 77.3003 644.671 76.9232C647.203 76.2643 649.754 76.0877 652.33 76.6386C652.29 77.4485 652.251 78.2596 652.209 79.0683C654.466 79.138 656.727 79.2089 658.987 79.2785C659.265 79.1407 659.549 79.0148 659.838 78.9007C660.279 78.9721 660.502 79.2206 660.528 79.6293C661.147 79.6131 661.766 79.5969 662.384 79.5808C662.802 78.6004 662.955 77.2716 664.646 77.98L664.595 77.9484C665.479 77.0865 666.112 75.5596 667.552 75.8538C669.929 76.3396 672.04 77.7352 674.665 75.955C675.648 75.2885 677.24 76.9529 678.161 78.1564C680.724 78.0554 683.287 77.9544 685.85 77.8547L686.149 77.5521L686.53 77.7417C690.191 75.4746 690.632 75.5513 692.455 78.842C693.206 78.7746 693.956 78.7058 694.705 78.6385C695.12 78.2292 695.505 77.7809 695.968 77.4366C698.048 75.8888 698.104 75.8855 699.024 78.3618C701.506 78.393 703.989 78.4241 706.472 78.4553L706.901 78.1443L707.392 78.3487C707.837 77.9317 708.421 77.5912 708.703 77.0837C709.63 75.4239 710.877 75.4366 712.291 76.2907C713.155 76.813 713.946 77.4513 714.77 78.0364L715.208 77.9279L715.49 78.2782C716.534 78.5915 717.576 78.9035 718.622 79.2168C718.624 79.218 718.772 79.1729 718.772 79.1729C719.517 78.017 720.589 77.6529 721.91 77.8952C722.743 77.3767 723.594 77.3485 724.462 77.8039C725.707 77.73 726.95 77.6562 728.194 77.5823C728.697 76.759 729.292 75.9738 729.67 75.0975C730.401 73.4045 731.257 73.7149 732.252 74.7664C733.919 74.7872 735.587 74.8067 737.254 74.8275C737.746 74.5583 738.179 74.6166 738.542 75.0576C739.72 75.2529 739.754 76.311 740.135 77.1089C740.917 77.1431 741.701 77.1786 742.483 77.2128C747.596 76.2321 752.74 76.0934 757.91 76.641C759.352 76.2214 760.367 76.5411 760.862 78.1102C761.11 78.8941 761.608 79.5972 761.995 80.3375C762.827 80.3206 763.66 80.3037 764.491 80.2882C764.917 80.2734 765.343 80.2586 765.769 80.2425C766.201 80.2221 766.632 80.2019 767.063 80.1816C769.01 79.3948 770.997 79.3965 773.009 79.8776C773.629 79.2037 774.25 79.1355 774.868 79.8598C776.478 79.7572 778.089 79.6532 779.698 79.5506C779.903 78.9138 780.289 78.4375 780.951 78.2104C781.254 77.1899 782.018 76.9619 782.779 77.5278C783.421 78.0058 783.81 78.8222 784.311 79.4892C784.312 79.4892 784.704 79.2674 784.704 79.2674L785.057 79.5487C786.766 79.1025 788.487 79.0386 790.224 79.3625L790.573 79.0516L790.998 79.249C791.92 78.2163 792.422 76.5859 794.293 76.8838C796.468 77.2299 798.803 78.2708 800.766 77.7904C802.873 77.2756 804.809 77.4272 806.833 77.4583C807.518 77.0703 808.339 76.7989 808.828 76.2403C810.021 74.8794 810.978 74.8155 812.347 76.0901C813.371 77.0445 814.656 75.663 815.856 75.9536L816.15 75.6392L816.549 75.8041C817.747 73.0996 817.747 73.0995 820.624 73.4239C820.772 73.7803 820.962 74.1126 821.196 74.4206C823.677 73.9396 826.164 73.7131 828.669 74.2492C837.658 73.4274 846.676 73.4144 855.691 73.2801C857.528 73.8527 859.576 73.2346 861.331 74.273C861.334 74.2729 861.75 74.0183 861.75 74.0183L862.148 74.3033C863.415 74.238 864.683 74.1726 865.95 74.1086C867.691 72.7967 869.492 72.7035 871.355 73.8862C871.355 73.8849 871.323 73.8192 871.323 73.8192C873.773 73.7088 873.802 73.7145 874.286 76.3553C874.774 75.9662 875.279 75.8859 875.808 76.2785C875.56 74.8568 875.763 73.7851 877.542 73.5926C880.132 73.3119 880.591 73.5507 881.68 76.1372C882.434 76.1043 883.187 76.0729 883.941 76.04C883.867 74.4923 884.026 73.0246 886.087 73.1025C889.238 73.2212 892.325 73.0992 895.205 71.6344C895.417 71.06 895.511 70.3764 895.898 69.9601C896.855 68.9262 897.694 69.0931 898.16 70.4805C898.614 70.861 899.068 71.2414 899.522 71.6206C902.063 71.579 904.604 71.5375 907.144 71.4946L907.565 71.1759L908.055 71.375C909.045 70.6148 910.051 70.4825 911.076 71.2887C919.184 70.691 927.292 70.0785 935.436 70.4481C939.103 69.627 942.797 69.5401 946.515 70.0354C948.965 68.6028 951.791 69.6027 954.344 68.8429C954.554 69.1665 954.79 69.4692 955.053 69.7509C967.614 69.244 980.174 68.7278 992.736 68.2462C993.787 68.2056 994.849 68.4023 995.905 68.4883C996.707 68.3951 997.51 68.3005 998.311 68.2073C999.428 65.4028 1000.06 65.15 1002.35 66.6594C1002.75 66.7764 1003.26 67.1094 1003.52 66.9723C1005.61 65.8778 1007.29 66.7588 1008.94 67.9301L1009.52 67.7595C1009.52 67.7595 1010.06 68.0062 1010.06 68.0049C1013.05 67.8968 1016.06 67.7885 1019.04 67.6808C1025.76 66.7378 1032.51 66.7943 1039.26 66.8081C1039.42 66.4476 1039.59 66.0959 1039.8 65.7554C1044.07 65.9272 1048.3 65.7961 1052.58 65.1702C1056.99 64.5205 1061.52 64.4258 1066.01 64.2966C1077.35 63.9709 1088.71 63.7606 1100.05 63.5055L1100.48 63.1971L1100.97 63.3908C1101.22 63.0781 1101.46 62.7615 1101.7 62.4422C1102.57 62.7189 1103.43 62.9947 1104.29 63.2714L1104.76 63.0406L1105.18 63.3246C1111.16 63.1611 1117.1 62.0035 1123.11 62.6368L1123.1 62.6625C1124.56 61.615 1126.08 61.6224 1127.64 62.4501C1130.45 61.8203 1133.24 61.6284 1136.07 62.2747C1138.64 62.168 1141.21 62.0614 1143.8 61.9556L1144.12 61.6534L1144.51 61.8657C1148.26 59.9355 1152.33 60.276 1156.33 60.4051C1157.46 60.4407 1157.95 61.4442 1158.33 62.4089C1159.07 62.5045 1159.81 62.5989 1160.55 62.6932C1161.82 62.0729 1163.09 62.0047 1164.41 62.5112C1166.5 62.3067 1166.67 62.505 1166.43 64.92C1166.43 64.9213 1166.77 64.7267 1166.77 64.7267L1167.06 64.9901C1167.44 64.7461 1167.82 64.7157 1168.21 64.8821C1168.35 62.2345 1168.36 62.2287 1170.84 62.2546C1171.27 62.2557 1171.69 62.2572 1172.12 62.2583C1173.51 62.1406 1174.91 62.0011 1176.3 61.9114C1178.06 61.7985 1178.69 62.8814 1178.96 64.3193C1180.11 64.3463 1181.26 64.3729 1182.42 64.3995C1183.59 63.4316 1184.05 61.5572 1185.98 61.5462C1186.79 58.7016 1189.08 58.9356 1191.34 59.076L1191.61 58.753L1192 58.8915C1193.97 57.2515 1194.24 57.2448 1196.96 58.7512L1197.38 58.5405L1197.77 58.8273C1203.27 57.1915 1208.84 57.8157 1214.41 58.1601L1214.36 58.2006C1216.23 57.0161 1218.14 57.0846 1220.1 57.965C1221.23 57.4644 1222.35 57.3946 1223.48 57.921C1225.17 57.8437 1226.86 57.7664 1228.55 57.6891C1231.61 54.3782 1233.39 53.9573 1237.42 55.6105C1237.56 55.6632 1237.59 55.9207 1237.68 56.1058C1238.09 56.2184 1238.49 56.2192 1238.9 56.1008C1239.13 56.4838 1239.36 56.8654 1239.58 57.2484C1240.25 56.7996 1240.9 56.8173 1241.51 57.3724C1242.79 57.3038 1244.08 57.2365 1245.36 57.1678C1247.48 56.3911 1249.61 56.2451 1251.78 56.9302C1256.59 56.7952 1261.44 56.0626 1266.16 57.6383L1266.07 57.5776C1269.39 57.4729 1272.71 57.3894 1276.02 57.2558C1278.13 57.1721 1280.19 57.1657 1282.03 58.3732C1282.03 58.3746 1282.4 58.1297 1282.4 58.1297L1282.74 58.4059C1284.45 57.9852 1286.18 57.9146 1287.92 58.2117L1288.22 57.9371L1288.56 58.1347C1291.45 55.7154 1294.87 56.5638 1298.16 56.615C1300.04 55.828 1301.99 55.8459 1303.93 56.2959C1304.56 55.3283 1305.51 54.8697 1306.59 54.84C1309.34 54.7646 1312.09 54.7612 1314.84 54.7284C1317.8 53.9477 1320.79 53.8786 1323.8 54.3931C1325.93 54.2978 1328.06 54.2092 1330.19 54.1032C1331.51 54.0376 1332.64 54.1917 1333.67 55.246C1334.55 56.1641 1335.63 55.3207 1336.61 55.025C1336.61 55.0237 1336.48 55.1309 1336.48 55.1309C1338.54 53.4291 1339.09 53.3248 1340.62 54.5243C1341.28 55.0337 1341.83 55.6818 1342.42 56.2654C1343.72 55.6935 1345.04 55.618 1346.39 56.1076C1348.63 52.5319 1349.97 52.321 1353.02 55.0622C1353.34 55.342 1353.67 55.5987 1354 55.8647C1354.92 55.3404 1355.86 55.3185 1356.81 55.7483C1357.64 54.823 1358.6 54.2108 1359.91 54.4189C1361.19 53.8087 1362.47 53.78 1363.76 54.4026C1365.23 54.1928 1366.61 54.2754 1367.79 55.3192C1368.61 55.3348 1369.43 55.3491 1370.24 55.3647C1371.07 54.8516 1371.92 54.8236 1372.79 55.2709C1374.49 54.8422 1376.22 54.8075 1377.96 55.1086C1379.85 54.3518 1381.79 54.3115 1383.75 54.861C1384.55 54.6039 1385.32 54.162 1386.13 54.1194C1402.48 53.2541 1418.83 52.4301 1435.19 51.6163C1435.81 51.5855 1436.45 51.7369 1437.08 51.803C1440.25 50.9362 1443.46 50.8823 1446.68 51.412C1448.38 50.1723 1450.38 50.6031 1452.26 50.518C1474.66 49.4974 1497.05 48.4968 1519.45 47.5522C1523.27 47.3903 1527.1 46.7158 1530.94 47.2627C1533.06 46.5167 1535.2 46.3556 1537.36 47.0358C1539.38 46.9935 1541.41 46.9659 1543.43 46.9023C1545.02 46.8523 1545.41 47.9622 1545.7 49.1851C1550.49 48.4743 1555.28 48.2571 1560.12 48.7243C1562.99 48.0828 1565.67 47.1693 1567.9 45.0345C1568.77 44.2025 1570.28 44.0833 1570.93 45.7605C1571.91 46.1614 1572.91 46.5605 1573.89 46.9601C1576.09 46.2885 1578.3 46.1957 1580.53 46.7399C1581.46 44.9972 1582.61 43.5993 1584.9 43.8186C1586.15 43.9393 1587.42 43.9137 1588.67 43.9744C1590.96 44.0818 1591.65 43.4695 1591.7 41.2529C1591.76 39.3152 1591.03 38.5492 1589.14 38.6335C1588.11 38.6786 1587.08 38.8424 1586.05 38.8809C1586 38.8828 1585.74 38.1005 1585.88 37.8608C1586.45 36.9218 1587.32 36.3807 1588.44 36.307C1589.03 35.0565 1588.61 33.8943 1588.14 32.7379L1587.76 32.7967L1587.32 32.709C1586.84 32.3375 1586.35 31.9678 1585.86 31.5964C1586.93 30.7187 1588.04 29.9169 1589.5 29.8276C1590.2 28.7226 1591.04 27.657 1590.54 26.2279C1588.35 25.9413 1586.91 28.4183 1584.63 27.8755C1584.23 27.7788 1583.7 27.6784 1583.49 27.3909C1583.11 26.8171 1583.29 26.2958 1584.03 26.0272C1585.43 25.5128 1586.77 24.8782 1587.77 23.6813C1588.61 22.681 1589.42 21.7602 1588.9 20.296C1588.44 18.9619 1589.15 18.3181 1590.42 18.2219C1591.68 18.1262 1592.96 18.1366 1594.23 18.1004C1594.96 17.588 1595.68 17.0747 1596.42 16.5609C1596.41 15.8942 1596.4 15.2288 1596.4 14.5616C1595.71 14.3135 1595.34 13.8446 1595.45 13.0577C1595.06 12.6657 1595.02 12.2415 1595.32 11.784C1594.76 10.9924 1594.19 10.2008 1593.63 9.40925L1593.33 9.64781L1593 9.42982C1592.55 10.115 1592.15 10.8402 1591.64 11.4731C1591.28 11.9178 1590.66 12.6291 1590.32 12.5501C1587.56 11.9041 1584.62 11.9007 1581 10.2736C1584.17 9.48279 1586.31 8.91485 1588.48 8.42059C1589.96 8.08244 1590.5 7.08174 1590.62 5.71832L1590.24 5.83655L1590.01 5.52604C1589.71 5.43234 1589.22 5.40509 1589.16 5.23106C1588.95 4.62328 1589.4 4.37161 1589.92 4.24286C1590.3 2.89678 1591.32 2.75617 1592.49 2.91024C1593.08 2.42025 1593.72 2.33129 1594.41 2.70198C1594.98 2.11386 1595.55 1.52572 1596.14 0.93579C1596.14 0.934457 1596.12 0.784328 1596.12 0.784328C1595.56 0.240617 1594.99 -0.301277 1594.42 -0.844522L1594.01 -0.636858L1593.64 -0.910842C1592.45 -0.581138 1591.56 -1.00261 1590.91 -2.01124C1590.09 -2.02017 1589.27 -2.03044 1588.45 -2.03936C1588.43 -2.91529 1588.42 -3.78985 1588.39 -4.66532C1587.97 -4.76549 1587.55 -4.75374 1587.14 -4.62738C1586.2 -5.40991 1585.05 -6.15965 1586.68 -7.35579C1586.83 -8.16401 1587.35 -8.51178 1588.14 -8.56189C1588.56 -9.57577 1589.45 -9.90945 1590.39 -10.1624C1590.74 -11.3125 1590.88 -12.4459 1590.08 -13.5027C1590.06 -13.5022 1589.68 -13.2901 1589.68 -13.2901L1589.33 -13.5677C1588.08 -13.2867 1587.09 -13.7525 1586.24 -14.6369C1585.23 -14.2124 1584.23 -14.1948 1583.22 -14.5708C1581.76 -13.3474 1580.37 -12.101 1580.15 -10.0267C1580.12 -9.79211 1579.53 -9.61705 1579.2 -9.4162L1579.19 -9.4104C1577.66 -8.32192 1575.79 -8.40118 1574.08 -7.95872C1573.93 -8.77936 1573.79 -9.60181 1573.64 -10.4225C1569.25 -10.2472 1564.85 -10.0732 1560.45 -9.89748C1560.39 -9.55803 1560.29 -9.23711 1560.13 -8.92991L1559.97 -8.95901C1560.4 -8.48839 1560.82 -8.01729 1561.25 -7.54801C1561.68 -7.48029 1562.12 -7.41392 1562.56 -7.34799C1563.38 -7.37371 1564.21 -7.40122 1565.04 -7.42874C1565.9 -7.47718 1566.75 -7.52697 1567.61 -7.5754C1568.59 -7.87367 1569.39 -7.61197 1570.01 -6.78896C1568.71 -6.48485 1568.1 -4.79192 1566.5 -5.05282L1566.54 -5.07556C1564.56 -3.78737 1562.26 -3.96097 1560.07 -3.70876C1559.63 -3.68541 1559.2 -3.6625 1558.77 -3.63961C1557.96 -3.54727 1557.14 -3.45627 1556.33 -3.36526C1556.11 -2.71327 1555.64 -2.33407 1554.97 -2.18155C1554.16 -0.213356 1553.13 -1.46528 1552.16 -1.9999C1549.24 -1.8225 1546.33 -1.12096 1543.38 -1.75373C1538.49 -2.56022 1533.58 -1.60946 1528.7 -1.70791C1527.16 -1.73882 1526.54 -0.552281 1525.6 0.248755C1525.55 1.12568 1525.15 1.63316 1524.18 1.48678C1523.75 1.46036 1523.32 1.43391 1522.89 1.4075C1521.73 1.55192 1520.72 1.23991 1519.85 0.459051C1512.68 1.3059 1505.45 1.2125 1498.24 1.38556C1497.87 1.39459 1497.49 1.03004 1497.11 0.839187C1496.07 -0.393606 1495.4 -2.2595 1493.17 -1.43997C1492.34 -0.874988 1491.49 -0.763948 1490.6 -1.27737C1489.69 -1.06717 1489.15 -1.53137 1488.75 -2.25922C1487.01 -1.84248 1485.25 -1.69627 1483.49 -2.13947C1480.67 -0.832631 1477.81 -0.2142 1474.84 -1.70159L1474.8 -1.70423C1474.05 -1.74879 1473.3 -1.7947 1472.54 -1.83927C1471.28 -1.53256 1470.27 -1.94984 1469.45 -2.89379C1468.93 -2.50874 1468.39 -2.50341 1467.84 -2.83659C1467.25 -1.77135 1466.8 -0.300385 1465.17 -1.06937C1464.18 -1.52491 1463.26 -1.94499 1462.19 -1.80516C1461.6 -1.72606 1460.91 -1.56595 1460.48 -1.18948C1456.36 2.47854 1456.39 2.58021 1453.52 2.81571L1453.58 2.7659C1452.54 3.79718 1451.45 3.50929 1450.36 2.8656C1449.65 3.26117 1448.94 3.24449 1448.24 2.80451C1446.58 2.97014 1446.22 1.42583 1445.3 0.61172C1442.52 0.931039 1439.74 1.22639 1436.95 0.748391C1433.3 1.78913 1429.61 2.01434 1425.91 1.13312C1422.6 1.22807 1419.3 2.17898 1415.99 1.33224C1414.42 1.51861 1412.98 1.22322 1411.65 0.367574C1408.56 1.00188 1405.42 0.710583 1402.29 0.699077Z" fill="white"/>
</g>
</g>
</g>
</g>
<defs>
<clipPath id="clip0_215_1310">
<rect width="1440" height="39.7358" fill="white"/>
</clipPath>
<clipPath id="clip1_215_1310">
<rect width="1440" height="50" fill="white"/>
</clipPath>
<clipPath id="clip2_215_1310">
<rect width="1440" height="50" fill="white"/>
</clipPath>
</defs>
</svg>
