<svg width="1440" height="42" viewBox="0 0 1440 42" fill="none" xmlns="http://www.w3.org/2000/svg">
<g clip-path="url(#clip0_215_1302)">
<g clip-path="url(#clip1_215_1302)">
<g clip-path="url(#clip2_215_1302)">
<mask id="mask0_215_1302" style="mask-type:alpha" maskUnits="userSpaceOnUse" x="0" y="0" width="1440" height="52">
<path d="M1440 0H0V52H1440V0Z" fill="#D9D9D9"/>
</mask>
<g mask="url(#mask0_215_1302)">
<path d="M1134.6 3.78248C1133.91 3.9999 1133.35 4.60801 1132.74 5.03763C1128.35 5.88589 1123.95 6.07411 1119.49 6.15804C1111.26 6.31189 1103.05 6.97611 1094.84 7.44977C1094.69 7.45755 1094.55 7.73985 1094.4 7.89468C1092.97 8.63431 1091.61 10.1161 1089.92 8.42328C1088.91 7.40589 1087.65 7.41277 1086.38 7.39435C1084.25 7.36307 1082.11 7.199 1080.01 7.39111C1066.04 8.67302 1052.02 8.71165 1038.02 9.34862C1036.34 9.42458 1034.67 9.73777 1032.98 9.94211C1025.39 10.2873 1017.79 10.622 1010.19 10.982C1007.47 11.1105 1004.71 11.0387 1002.1 12.0597C992.533 12.2777 982.968 12.5397 973.4 12.6938C969.797 12.7515 966.189 12.5773 962.585 12.4497C962.272 12.4393 961.865 12.0426 961.691 11.7232C961.347 11.0894 961.607 10.3919 962.136 10.0706C963.582 9.19026 965.272 8.64559 966.571 7.60095C970.654 4.32047 975.193 3.39753 980.289 4.19749C982.579 4.55646 984.944 4.42184 987.27 4.56873C988.324 4.63467 989.801 4.44968 990.343 5.04978C993.043 8.0334 995.949 6.78052 999.107 6.17393C1004.69 5.10238 1010.37 4.48798 1016.01 3.75983C1017.26 3.59869 1018.67 3.43208 1019.81 3.83672C1021.96 4.6047 1023.83 4.24063 1025.9 3.5866C1027.26 3.16157 1028.94 3.14289 1030.3 3.54495C1032.92 4.31815 1035.28 4.40372 1037.57 2.74545C1038.35 2.17786 1039.18 2.8655 1039.94 2.83765C1043.28 2.71419 1046.7 3.33376 1049.95 1.9929C1050.95 1.58043 1052.08 1.37699 1052.87 2.36851C1053.95 3.73183 1054.87 3.65304 1055.85 2.32466C1056.47 1.49568 1057.33 1.54851 1058.12 1.93727C1061.75 3.71274 1065.58 3.26559 1069.4 3.11871C1071.31 3.04418 1073.47 2.55125 1075.08 3.24342C1078.19 4.58218 1081.35 2.46282 1084.35 3.88306C1085.24 4.30674 1085.88 3.45994 1086.54 2.97382C1088.56 1.49056 1090.81 1.34802 1093.23 1.53696C1096.82 1.82 1100.43 1.74718 1104.02 2.11418C1106.47 2.36748 1109.01 1.96499 1111.39 3.42442C1113.32 4.62158 1115.46 4.3721 1117.19 2.52683C1118.12 1.51213 1119.46 1.23324 1120.71 1.40717C1125.98 2.13574 1131.18 0.498625 1136.43 1.15837C1136.37 2.41866 1135.96 3.35479 1134.6 3.78248ZM703.296 -23.363C703.201 -23.6933 703.155 -23.3928 703.296 -23.363ZM644.925 -24.2264C644.691 -24.4558 644.435 -24.6056 644.166 -24.7056C644.435 -24.6056 644.69 -24.4557 644.925 -24.2264C646.138 -24.2127 647.354 -24.1992 648.567 -24.1856C647.354 -24.1992 646.139 -24.2128 644.925 -24.2264ZM578.496 -18.4913C577.755 -18.6322 577.012 -18.7743 576.269 -18.9165C577.012 -18.7757 577.755 -18.6335 578.496 -18.4913ZM-437.354 59.8997C-437.514 59.6919 -437.661 59.3729 -437.827 59.2145C-437.661 59.3728 -437.513 59.6919 -437.353 59.8984C-437.354 59.8984 -437.354 59.8984 -437.354 59.8997ZM-504.883 25.4368C-505.287 25.3215 -505.69 25.2462 -506.089 25.2054C-505.688 25.2461 -505.287 25.3215 -504.883 25.4368ZM-518.919 27.0477C-519.472 27.2644 -520.079 27.3416 -520.811 27.5086C-521.215 27.2399 -521.689 26.9256 -522.163 26.6113C-521.667 26.3191 -521.199 25.9492 -520.665 25.7611C-520.317 25.6383 -519.876 25.7723 -519.478 25.8078C-519.279 25.8248 -519.066 25.8441 -518.891 25.9287C-518.719 26.0121 -518.44 26.2291 -518.465 26.3034C-518.555 26.5787 -518.696 26.9599 -518.919 27.0477ZM1411.72 -51.8654C1410.62 -51.0183 1409.47 -51.0449 1408.31 -51.7689C1406 -51.0199 1403.64 -51.2751 1401.29 -51.537C1399.29 -50.2359 1396.91 -50.5155 1394.72 -49.991C1392.31 -47.9856 1389.44 -49.5398 1386.83 -49.0217C1385.61 -48.779 1384.95 -48.2356 1385.73 -46.8621C1386.14 -46.1454 1386.47 -45.1055 1385.16 -44.9542C1381.57 -44.5434 1377.97 -44.1788 1374.38 -44.9593C1374.06 -45.0281 1373.71 -45.4749 1373.59 -45.8216C1373.32 -46.5954 1373.95 -46.9802 1374.52 -47.1215C1376.65 -47.6534 1378.73 -47.2325 1380.79 -46.6441C1381.69 -46.3888 1382.76 -46.693 1382.84 -47.5536C1382.89 -48.1675 1381.95 -48.8687 1381.46 -49.532C1379.46 -49.2752 1377.46 -48.7172 1375.45 -49.4674C1374.17 -49.4467 1372.89 -49.426 1371.62 -49.4058L1371.3 -49.0397L1370.83 -49.1381C1369.01 -47.6551 1368.85 -47.6495 1367.57 -49.0334L1367.56 -48.9369C1366.77 -48.9974 1365.99 -49.0571 1365.21 -49.118C1364.62 -48.2047 1363.94 -47.4791 1362.7 -47.7908C1361.85 -47.4154 1360.98 -47.3532 1360.14 -47.8281C1358.67 -47.8861 1358.3 -49.5277 1357.1 -49.9687C1353.63 -49.3564 1350.14 -49.2145 1346.63 -49.6176C1345.24 -48.882 1343.79 -48.3165 1342.18 -48.2709C1341.76 -48.2724 1341.34 -48.2722 1340.91 -48.2733C1340.06 -48.2635 1339.2 -48.2551 1338.35 -48.2453C1337.52 -47.8282 1336.68 -47.4599 1335.79 -48.0813C1334.89 -47.9124 1334.38 -48.4135 1334 -49.1325C1330.88 -49.0356 1327.77 -48.9392 1324.67 -48.8414C1322.53 -47.7262 1320.17 -47.8424 1317.88 -47.4998C1317.46 -47.5076 1317.01 -47.5136 1316.57 -47.5195C1312.46 -48.0842 1308.34 -47.5429 1304.22 -47.5204C1302.61 -47.5121 1300.92 -46.9288 1299.39 -47.9521C1297.63 -47.8773 1295.86 -47.8021 1294.1 -47.726C1293.74 -46.9863 1293.14 -46.6517 1292.31 -46.7175C1291.48 -46.0214 1290.61 -46.1231 1289.72 -46.5899C1288.58 -46.374 1287.61 -46.659 1286.84 -47.5337C1284.61 -47.3707 1282.39 -46.7742 1280.13 -47.2943C1279.19 -46.8544 1278.23 -46.0151 1277.31 -46.0522C1274.81 -46.1531 1272.34 -46.6272 1269.85 -46.955C1268.56 -46.3471 1267.25 -46.3748 1265.93 -46.7769C1264.25 -45.6482 1262.33 -45.4786 1260.4 -45.3632C1259.89 -44.4633 1259.28 -44.4983 1258.63 -45.2373C1257.22 -45.1867 1255.81 -45.1373 1254.38 -45.0875C1253.73 -44.3789 1253.05 -44.3792 1252.37 -45.0599L1252.06 -44.8195L1251.73 -45.0109C1250.93 -44.2026 1250.13 -43.3915 1248.84 -43.64C1248.41 -43.7144 1247.98 -43.7901 1247.55 -43.8645C1246.81 -43.7585 1246.34 -44.0772 1246.07 -44.7226L1245.58 -44.6574C1245.58 -44.6574 1245.09 -44.7752 1245.05 -44.7831C1244.07 -43.56 1242.73 -43.2679 1241.25 -43.4041C1240.58 -42.607 1239.74 -42.1562 1238.67 -42.2335C1235.79 -41.1402 1232.77 -41.9488 1229.84 -41.5621C1229.36 -41.7737 1228.89 -41.9853 1228.43 -42.1973C1227.56 -42.1378 1226.71 -42.0786 1225.86 -42.0209C1224.15 -41.9986 1222.44 -41.9764 1220.75 -41.9532C1220.03 -41.8442 1219.72 -42.3576 1219.36 -42.8159C1219.69 -44.1095 1219.27 -45.2678 1218.71 -46.3996C1213.93 -45.7804 1209.15 -45.5853 1204.33 -45.9201C1202.8 -44.7686 1201.27 -44.0252 1199.61 -45.719C1197.37 -45.2153 1195.12 -45.1006 1192.85 -45.5097C1191.95 -45.0245 1191.04 -44.5394 1190.14 -44.0542C1189.98 -43.2815 1189.62 -42.7568 1188.68 -42.984C1188.25 -42.9771 1187.83 -42.9716 1187.39 -42.9642C1186.28 -42.6933 1185.33 -42.9512 1184.61 -43.8571C1183.26 -44.2716 1181.91 -44.6848 1180.56 -45.0993C1180.15 -44.9889 1179.75 -44.7947 1179.33 -44.7802C1166.78 -44.3246 1154.23 -43.8849 1141.68 -43.4585C1141.26 -43.4454 1140.83 -43.5971 1140.41 -43.6733C1139.55 -42.7866 1138.69 -41.9013 1137.83 -41.0146C1138.38 -39.7638 1139.26 -38.8088 1140.7 -39.2633C1142.76 -39.9169 1144.69 -40.5805 1146.52 -38.7542C1147.2 -38.0774 1148 -38.5761 1148.81 -38.8488C1150.57 -39.4397 1152.41 -39.7656 1154.21 -40.27C1154.99 -40.492 1155.6 -40.0159 1155.56 -39.5245C1155.38 -37.3877 1156.64 -37.1955 1158.27 -37.0617C1160.77 -36.8582 1163.29 -37.6148 1165.78 -36.8409C1164.96 -36.0667 1164.15 -35.2952 1163.32 -34.5205C1152.07 -33.9274 1140.8 -33.3139 1129.54 -32.7457C1107.64 -31.6409 1085.76 -30.5365 1063.86 -29.4984C1060.63 -29.3453 1057.5 -28.6732 1054.48 -27.7031C1050.76 -26.5046 1047.01 -26.1255 1043.17 -26.1141C1029.12 -26.0705 1015.07 -26.179 1001.03 -25.9675C992.74 -25.842 984.454 -25.2138 976.164 -24.8295C974.889 -24.7704 973.607 -24.7403 972.338 -24.8307C971.776 -24.8698 971.042 -24.9482 970.96 -25.8353C970.893 -26.568 971.377 -26.9225 971.811 -27.3699C972.758 -28.3475 974.535 -28.4256 975.006 -30.2498C974.296 -30.4611 973.744 -30.7754 973.2 -30.7631C968.519 -30.6529 963.838 -30.4748 959.157 -30.3381C957.633 -30.2942 956.19 -30.093 955.09 -28.8765C954.234 -27.9314 953.296 -27.8773 952.37 -28.7509C950.761 -30.2677 948.883 -30.1567 946.983 -29.6128C945.147 -29.087 943.367 -28.3738 941.532 -27.8428C940.54 -27.556 939.395 -27.1931 938.539 -28.0865C937.164 -29.5207 935.459 -29.2677 933.768 -29.2567C929.519 -29.227 925.258 -29.5038 921.064 -28.4915C920.133 -28.2655 919.379 -28.7835 919.065 -29.6451C918.748 -30.5185 919.078 -31.3333 919.889 -31.8045C921.168 -32.5469 922.492 -33.2109 923.797 -33.9075C925.671 -33.8649 928.099 -34.5567 929.315 -33.6399C932.805 -31.0095 936.513 -31.9701 940.175 -32.0993C942.177 -32.1692 944.394 -31.3168 946.178 -32.9974C947.209 -33.9313 948.198 -34.7956 949.797 -34.69C951.375 -34.5864 952.975 -34.8064 954.565 -34.8832C959.625 -35.2027 964.685 -35.5315 969.745 -35.8323C970.986 -35.9063 971.628 -36.5984 971.941 -37.714C971.218 -37.4353 970.515 -37.4388 969.844 -37.8663C968.887 -37.6047 968.354 -38.1277 967.948 -38.8901C966.53 -38.8672 965.112 -38.8444 963.695 -38.8216C962.599 -37.9922 961.468 -37.9073 960.296 -38.6615C958.511 -38.5965 956.727 -38.5303 954.945 -38.4653C954.377 -38.0359 953.808 -37.6065 953.24 -37.1771C952.196 -37.3741 951.092 -37.4289 950.347 -38.3622C947.633 -38.2394 944.92 -38.1179 942.205 -37.9951C942.1 -37.6085 941.921 -37.2581 941.67 -36.9451C941.256 -36.944 940.849 -36.9938 940.448 -37.0932C938.754 -36.5738 937.043 -36.314 935.286 -36.7555C934.151 -36.5345 933.197 -36.8387 932.451 -37.7372C930.115 -37.6437 927.78 -37.5488 925.445 -37.4539C923.468 -35.5731 920.993 -36.3605 918.696 -36.1936C915.511 -35.0724 912.245 -35.2678 908.971 -35.5938C908.854 -34.7772 908.738 -33.9606 908.621 -33.144C908.319 -32.5652 908.024 -31.9825 907.238 -31.9791C907.238 -31.9805 907.118 -31.8988 907.118 -31.8988C905.355 -29.2784 902.817 -27.7969 899.748 -28.1887C896.017 -28.6655 893.645 -26.8496 891.367 -24.4153C890.98 -24.0029 890.306 -23.8579 889.764 -23.5895C886.63 -23.5161 883.497 -23.4414 880.363 -23.3679C877.819 -23.71 875.232 -22.6831 871.94 -23.6968C873.754 -24.7915 875.097 -25.4561 876.64 -25.7355C876.875 -26.9818 877.056 -28.2515 875.309 -28.5053C873.193 -28.813 871.136 -28.6558 869.579 -26.9391C868.491 -25.7404 867.494 -25.811 866.522 -26.9965C865 -28.8538 863.326 -28.1069 861.646 -27.4118C861.626 -27.0469 861.62 -26.6798 861.569 -26.3192C861.082 -22.9241 860.788 -22.8151 857.343 -24.7294C857.342 -24.7293 857.387 -24.6815 857.387 -24.6815L856.797 -24.5889L856.283 -24.8965C856.393 -25.2739 856.409 -25.656 856.334 -26.0416C856.679 -26.2418 857.051 -26.3335 857.449 -26.3274C857.379 -27.1041 857.309 -27.8808 857.239 -28.6561C853.888 -28.7646 850.507 -28.6559 847.164 -29.8386C847.723 -31.9033 850.078 -31.48 850.881 -32.9022C851.168 -33.4139 851.546 -34.2155 851.341 -34.5792C851.099 -35.0044 850.283 -35.148 849.691 -35.3261C847.972 -35.8385 847.143 -34.0804 845.752 -33.737C844.23 -32.6259 842.539 -33.2193 840.903 -33.2595C841.055 -32.5057 841.208 -31.7519 841.361 -30.9981C841.363 -30.9981 841.712 -31.1945 841.712 -31.1945L842.009 -30.926C842.858 -31.1918 843.957 -31.0501 844.008 -30.2834C844.049 -29.6351 842.956 -29.218 842.06 -29.4909C839.511 -28.8549 836.955 -28.6229 834.379 -29.3374C832.63 -29.4071 833.228 -30.8315 832.971 -31.7645C832.329 -31.8861 831.749 -32.102 831.448 -32.7359C830.061 -32.8462 828.685 -33.5066 827.296 -32.4455C826.639 -31.9436 825.671 -32.0885 824.909 -32.6302C823.73 -32.2022 822.567 -32.1242 821.44 -32.7946C820.623 -32.6394 820.18 -33.0108 820 -33.7596C819.255 -33.9017 818.672 -34.2749 818.31 -34.9667C817.003 -34.9211 815.694 -34.8754 814.387 -34.8297C814.125 -34.1122 813.862 -33.3945 813.6 -32.677L813.045 -32.6229L812.487 -32.6501C811.664 -31.969 810.791 -32.0812 809.902 -32.4944C809.114 -32.3709 808.508 -32.6472 808.08 -33.322C806.733 -32.8828 805.374 -32.8446 804.002 -33.1903C803.626 -32.5274 803.03 -32.2945 802.302 -32.3198C799.392 -31.1855 796.384 -31.1965 793.346 -31.5587C792.888 -31.456 792.431 -31.352 791.973 -31.2493C791.348 -31.7278 790.723 -32.2076 790.097 -32.686C784.477 -32.0776 778.846 -31.8342 773.198 -32.1346C772.662 -31.7183 772.126 -31.302 771.591 -30.8858C771.168 -30.9724 770.744 -31.0577 770.32 -31.1442C765.78 -30.284 761.179 -30.4208 756.594 -30.302C756.468 -29.4758 756.341 -28.6495 756.215 -27.8233L756.288 -27.7178C758.415 -27.78 760.541 -27.8423 762.668 -27.9045C763.115 -27.9335 763.563 -27.9638 764.01 -27.9928C764.872 -28.1269 765.735 -28.2611 766.597 -28.394C767.035 -27.9356 767.473 -27.4759 767.91 -27.0176L767.98 -27.1055C767.975 -26.5729 767.97 -26.0391 767.963 -25.5065L767.583 -25.2651L767.232 -25.5477C765.954 -24.6999 764.474 -24.8884 763.069 -24.7979C760.647 -24.6413 758.273 -24.6585 755.98 -23.4484C755.007 -22.9368 755.215 -24.437 754.963 -25.0993C754.455 -25.5111 753.947 -25.9229 753.439 -26.3348C752.877 -26.3032 752.313 -26.2702 751.75 -26.2385C750.705 -25.3041 749.661 -24.4818 748.64 -26.2593C747.508 -26.5839 747.218 -27.4997 747.008 -28.473C746.628 -28.5305 746.251 -28.604 745.882 -28.7085C745.761 -29.1072 745.606 -29.4927 745.416 -29.8637C740.625 -29.595 735.836 -29.2236 731.042 -29.0989C728.353 -29.029 725.627 -28.3641 722.953 -29.282C721.197 -29.1433 721.412 -30.5744 721.111 -31.5938C718.021 -31.0336 714.916 -30.8665 711.789 -31.2576C711.26 -30.4 711.303 -29.4568 711.22 -28.4934C711.166 -27.8618 710.482 -28.006 710.129 -28.5607C709.303 -28.6025 708.477 -28.6431 707.651 -28.685C707.157 -27.7738 707.008 -26.8534 707.577 -25.914C706.297 -24.5712 705.521 -25.3486 704.846 -26.5617C704.144 -28.1529 703.93 -30.0426 702.157 -30.9826C701.523 -30.9472 700.891 -30.9117 700.257 -30.8762C699.879 -30.0478 699.729 -29.0434 698.629 -28.7742C698.265 -28.612 697.902 -28.4499 697.538 -28.2877C697.525 -27.4908 697.513 -26.6939 697.501 -25.8984C697.81 -25.8411 698.147 -25.8288 698.468 -25.7907C698.147 -25.8288 697.81 -25.8411 697.501 -25.897C697.099 -25.0745 696.695 -24.2519 696.293 -23.4294C695.109 -22.7957 693.869 -23.0178 692.605 -23.0964C690.943 -23.2011 689.269 -23.1134 687.6 -23.1085C687.057 -24.6411 687.758 -26.4347 686.611 -27.8408C680.081 -27.6155 673.554 -27.3902 667.026 -27.1662C665.976 -26.3224 664.899 -26.3114 663.796 -27.0627C658.511 -26.8662 653.228 -26.6697 647.945 -26.4732C647.278 -25.7802 646.602 -25.7713 645.915 -26.4437C644.484 -26.3657 643.056 -26.2878 641.627 -26.2099C641.307 -25.8438 640.988 -25.4778 640.67 -25.1118C640.369 -25.5149 640.067 -25.9193 639.766 -26.3223C637.914 -26.2897 636.053 -26.3528 634.211 -26.1937C632.526 -26.0481 632.401 -25.3661 633.505 -23.1699L633.635 -23.7642C634.028 -23.7366 634.399 -23.6321 634.747 -23.4467C634.558 -22.8505 634.18 -22.4971 633.526 -22.4956C632.254 -22.4458 630.98 -22.3947 629.708 -22.3436C629.509 -22.306 629.311 -22.2484 629.111 -22.236C625.229 -22.0124 625.229 -22.0137 624.407 -25.7833C623.471 -25.6853 622.536 -25.5872 621.6 -25.4892L621.598 -25.4891L621.265 -25.3254L620.972 -25.5526C620.32 -24.8975 619.674 -24.2386 619.725 -23.2091L619.77 -23.3187C619.678 -22.8205 619.588 -22.321 619.496 -21.8215C619.948 -21.369 620.399 -20.9151 620.851 -20.4626C620.636 -19.5519 620.125 -18.9671 619.126 -19.0429C617.463 -19.169 615.752 -19.1372 614.342 -20.2567C612.224 -20.2441 610.104 -20.2314 607.986 -20.2188C606.766 -19.4265 605.486 -19.4405 604.171 -19.9389C603.733 -19.977 603.296 -20.0137 602.858 -20.0531C602.877 -20.434 602.862 -20.8138 602.817 -21.1924C601.357 -21.3442 599.739 -21.0102 598.728 -22.5331C598.728 -22.5331 598.726 -22.5318 598.725 -22.5317C598.466 -23.614 597.669 -24.0358 596.631 -24.0049C595.803 -23.98 595.047 -24.0283 594.402 -24.6048C593.087 -24.1306 591.759 -24.1603 590.421 -24.4858C588.221 -23.6365 585.992 -22.9409 583.588 -23.1385C583.389 -23.4731 583.201 -23.8134 583.023 -24.158L582.827 -24.1739C582.447 -23.4255 581.805 -23.1043 580.996 -23.064C580.996 -23.064 581.036 -22.9506 581.036 -22.952C580.078 -23.0933 579.119 -23.2359 578.162 -23.3786C578.1 -23.0803 578.126 -22.7876 578.239 -22.5047C575.373 -23.6107 575.129 -23.4848 574.458 -20.5596C573.687 -20.4273 572.915 -20.2949 572.144 -20.1626C568.319 -19.6888 564.505 -18.9833 560.63 -19.6538C560.011 -19.6843 559.373 -19.8834 559.482 -20.5903C559.649 -21.6701 559.245 -22.5179 558.735 -23.3739L558.306 -23.3616C556.754 -22.4122 555.175 -22.0956 553.539 -23.1659C551.745 -22.5402 549.929 -22.4688 548.09 -22.9262C547.09 -22.6431 546.083 -22.3825 545.092 -22.0717C544.469 -21.8752 543.952 -21.4649 544.164 -20.7545C544.254 -20.4575 544.76 -20.0922 545.077 -20.0913C546.338 -20.086 547.6 -20.2087 548.861 -20.2888C551.216 -20.4404 553.451 -20.1876 555.242 -18.4171C552.906 -18.5943 550.6 -18.7846 548.672 -16.9495C547.855 -16.1712 546.522 -15.9472 545.706 -16.5817C542.159 -19.333 538.29 -16.9458 534.63 -17.4878C530.399 -15.3241 526.036 -16.4739 521.695 -16.9707C521.023 -16.5577 520.375 -16.6618 519.735 -17.037C516.007 -16.8668 512.281 -16.6313 508.552 -16.5825C507.826 -16.5731 507.089 -17.2905 506.356 -17.6731C505.647 -17.3055 504.97 -17.2885 504.34 -17.8456C503.988 -17.956 503.418 -17.9748 503.328 -18.1918C503.048 -18.8651 503.636 -19.2311 504.085 -19.6057C504.085 -19.6071 504.096 -19.6928 504.096 -19.6928C503.368 -20.0249 502.895 -20.5688 502.699 -21.3397C500.236 -22.3571 497.753 -21.8808 495.27 -21.3925C494.864 -21.2863 494.457 -21.18 494.051 -21.0737C492.529 -20.2575 491.91 -21.9289 490.802 -22.2558C490.335 -21.7685 489.847 -21.8249 489.346 -22.1943C489.003 -21.4485 488.396 -21.0898 487.603 -21.0047L487.597 -21.0005C487.147 -19.8107 486.201 -19.5696 485.071 -19.6862L485.202 -19.4066C482.593 -19.3982 479.985 -19.3899 477.376 -19.3815C477.399 -18.5324 477.423 -17.6834 477.446 -16.8344C479.63 -16.9587 481.813 -17.0829 483.997 -17.2059L483.828 -16.9171C484.344 -16.9645 484.83 -16.8987 484.718 -16.2331C484.693 -16.0828 484.193 -16.0107 483.913 -15.9035L483.529 -15.4872L482.981 -15.6268C479.336 -14.7844 475.71 -13.4877 471.968 -15.2182C470.217 -14.7101 468.455 -14.5979 466.675 -15.0587C464.772 -14.5426 462.868 -14.0252 460.965 -13.5091C459.685 -13.6992 458.044 -13.3458 458.463 -15.6712C458.627 -16.5895 458.225 -17.6094 458.08 -18.5822C457.095 -18.6692 456.11 -18.7589 455.124 -18.8405C453.969 -18.935 453.254 -18.4684 453.128 -17.2606C453.63 -16.9646 454.135 -16.6754 454.63 -16.3698C455.081 -16.0907 455.521 -15.7925 455.966 -15.5025C455.475 -15.2319 454.983 -14.9599 454.492 -14.6893C452.339 -15.7468 450.239 -14.3354 448.104 -14.5503C445.581 -13.7004 443.015 -13.7308 440.429 -14.1675C439.234 -13.6548 438.001 -13.6545 436.75 -13.8963C436.752 -13.8964 436.802 -13.9488 436.802 -13.9488C435.257 -12.8809 433.497 -12.59 431.683 -12.6401C430.8 -12.6653 430.201 -13.2367 430.164 -14.1639C430.135 -14.8634 430.672 -15.1609 431.269 -15.3419L431.268 -15.3338C432.736 -17.6812 432.736 -17.6812 430.072 -17.8177C429.646 -17.7481 429.222 -17.6799 428.796 -17.6117C426.487 -17.9379 424.177 -18.2655 421.867 -18.5917C420.894 -18.0988 419.903 -18.1362 418.901 -18.4828C418.599 -18.2188 418.274 -17.9766 417.999 -17.6868C416.759 -16.3841 416.007 -16.9516 415.451 -18.3277C414.991 -17.942 414.515 -17.84 414.015 -18.2535C413.529 -17.1532 412.986 -15.6453 411.525 -16.6763C409.526 -18.0861 407.699 -17.2645 405.775 -16.8651C405.33 -15.7195 404.746 -15.8312 404.077 -16.6738C403.729 -16.3841 403.434 -16.4311 403.192 -16.8123C401.998 -16.5971 401.137 -17.3649 400.176 -17.8356C399.638 -17.3739 399.081 -17.3611 398.507 -17.7613C397.535 -17.3311 396.562 -16.8996 395.59 -16.4694C395.438 -15.7717 395.026 -15.329 394.321 -15.1684C394.229 -14.5808 393.991 -14.0748 393.302 -14.2589C393.116 -14.3084 393.059 -14.8441 392.941 -15.1575L392.697 -15.4172L392.876 -15.7263C391.382 -17.3271 389.113 -16.4127 387.431 -17.4026L387.176 -17.1962L386.901 -17.3774C385.713 -16.8623 385.47 -15.2208 384.045 -14.9909C383.621 -14.9068 383.197 -14.8226 382.773 -14.7384C379.392 -14.1547 379.392 -14.1547 378.296 -17.0195C376.898 -16.5744 375.492 -16.5267 374.077 -16.9296C373.6 -14.3207 373.6 -14.3206 371.258 -14.4203C370.394 -14.0793 369.539 -14.0107 368.695 -14.4856C367.182 -14.4861 366.912 -16.159 365.771 -16.6608L365.406 -16.4386L365.036 -16.6472C362.658 -15.6036 360.24 -15.5285 357.784 -16.3619C356.018 -15.6986 354.21 -16.1651 352.422 -16.152C351.901 -15.7095 351.38 -15.2658 350.858 -14.8233C350.53 -14.3582 350.242 -13.577 349.86 -13.5276C346.842 -13.1394 343.886 -13.2536 341.326 -15.2562C341.013 -15.5001 340.597 -15.6124 340.228 -15.7862C339.98 -15.4907 339.72 -15.4803 339.448 -15.7549C336.421 -14.2711 333.32 -14.3602 330.177 -15.3098C328.704 -15.2824 327.23 -15.2563 325.756 -15.2288C324.636 -14.3425 323.498 -14.3868 322.346 -15.1658C321.715 -15.1144 321.083 -15.0616 320.451 -15.0102C319.57 -14.0482 318.68 -13.2007 317.421 -14.5255C316.704 -15.2823 315.992 -16.0525 315.209 -16.735C313.484 -18.241 309.664 -18.5453 307.741 -17.1506C307.229 -16.7792 307.268 -15.6478 307.054 -14.8652C306.669 -14.8811 306.289 -14.9333 305.914 -15.0216C303.786 -14.8992 301.657 -14.7768 299.53 -14.6545C298.649 -14.5864 298.157 -15.0388 297.931 -15.8501C297.819 -16.2171 297.766 -16.8743 297.587 -16.9108C294.209 -17.592 290.838 -18.0959 288.075 -15.2538C287.825 -14.7407 287.585 -14.3228 286.858 -14.2961C285.113 -14.2298 283.374 -14.0423 281.633 -13.9055C280.184 -13.2652 278.699 -13.0586 277.161 -13.5518C275.53 -12.5863 273.867 -12.5002 272.162 -13.3559C270.715 -12.8518 269.255 -13.0676 267.794 -13.2581C265.907 -12.2076 264.001 -11.5567 262.002 -12.9958C262.001 -12.9957 261.523 -12.9991 261.523 -12.9991C260.811 -12.2671 260.068 -12.2145 259.288 -12.897C258.724 -12.425 258.16 -12.5761 257.594 -12.8872C256.564 -11.9988 255.496 -12.0282 254.397 -12.7502C254.395 -12.7502 253.882 -12.7376 253.882 -12.7376C248.91 -11.7088 242.054 -11.4653 237.691 -12.1602C236.971 -11.8108 236.265 -11.8743 235.571 -12.2369C234.718 -12.2072 233.865 -12.176 233.013 -12.1462C231.78 -11.6376 230.53 -11.3324 229.214 -11.8268C227.503 -11.8791 225.792 -11.9314 224.081 -11.9824C223.424 -11.4965 222.701 -11.3792 221.919 -11.5921C221.321 -10.7493 220.718 -10.3561 220.098 -11.5312C218.792 -11.6149 217.432 -12.6281 216.214 -11.2087C214.449 -9.1499 212.647 -9.99554 210.866 -11.2194C209.441 -10.7374 208.003 -10.6485 206.548 -11.0833C203.36 -9.73657 200.112 -10.0207 196.848 -10.7232C194.176 -10.1563 191.486 -10.085 188.782 -10.4242C188.231 -9.98875 187.681 -9.55325 187.13 -9.11911C186.923 -8.32473 186.64 -7.48369 185.608 -8.09602C184.586 -8.70073 183.687 -9.5125 182.734 -10.233C179.453 -10.1037 176.179 -9.43446 172.889 -10.0973C172.682 -10.1315 172.363 -10.0937 172.287 -10.2111C170.808 -12.4982 168.429 -13.0462 166.001 -13.5137C158.599 -12.5428 151.147 -12.9297 143.718 -12.7302C142.626 -11.6261 140.25 -12.5798 139.86 -10.3515C140.977 -9.91159 142.097 -9.4717 143.292 -9.00243C139.55 -7.69371 138.74 -7.66013 132.984 -8.54646C131.04 -8.47057 129.098 -8.39472 127.154 -8.31884C126.551 -7.59868 125.924 -7.58213 125.277 -8.26131L124.93 -8.01966L124.568 -8.23785C123.967 -7.52579 123.337 -7.49851 122.679 -8.15861C121.225 -7.63419 119.754 -7.57877 118.266 -7.99778C116.824 -7.11092 115.369 -6.79863 113.884 -7.90482C112.413 -7.58662 110.946 -7.1925 109.434 -7.66935C108.313 -6.8244 107.167 -6.83237 105.999 -7.56673C98.8856 -6.9501 91.7617 -6.67065 84.6232 -6.9617C83.4512 -6.59924 82.5063 -7.02788 81.8482 -7.95348C80.1661 -10.3175 77.884 -10.0697 75.5691 -9.38586C75.1386 -9.26009 74.8925 -8.51106 74.5738 -8.01163C75.3014 -7.8049 76.028 -7.51406 75.6771 -6.56123C75.4431 -5.92468 74.8479 -5.89325 74.3484 -6.44415C71.0926 -5.69273 67.7932 -6.22993 64.5163 -6.1195C63.8254 -5.39094 63.1011 -5.34828 62.3426 -6.01688C60.1455 -5.47721 57.9348 -5.39864 55.709 -5.79454C54.5065 -4.92804 53.2768 -4.87845 52.0162 -5.67628C50.2673 -5.13758 48.5021 -5.10396 46.7214 -5.47404C46.0417 -4.72853 45.3469 -4.71762 44.6363 -5.42924C41.4744 -5.08669 38.3203 -4.55499 35.1288 -5.09594C33.307 -4.65742 31.4866 -4.21762 29.6648 -3.77911C29.234 -3.77607 28.8031 -3.77432 28.3709 -3.77256C26.2447 -3.68497 24.1171 -3.59736 21.9895 -3.50972C20.7195 -2.857 19.4336 -2.89082 18.1369 -3.42189C14.3113 -3.05882 10.5181 -1.91907 6.6358 -2.94821C2.80984 -2.44104 -1.0259 -2.21371 -4.87799 -2.60751C-5.47756 -2.54655 -6.08024 -2.49747 -6.67792 -2.42056C-8.14685 -2.23051 -8.94534 -2.66961 -8.79187 -4.34933C-8.74161 -4.89675 -9.14907 -5.48555 -9.34644 -6.05634L-9.64825 -6.0658C-11.0157 -5.18687 -11.7041 -2.58796 -14.2057 -4.76598C-15.4703 -5.86919 -17.4704 -5.37774 -19.0749 -4.79338C-19.5189 -4.63112 -19.7546 -3.89443 -20.0775 -3.39753C-19.6194 -3.23208 -19.1561 -3.02946 -19.3499 -2.42767C-19.4089 -2.2455 -19.9253 -2.20876 -20.2312 -2.10602C-21.7412 -1.22079 -23.3382 -1.37449 -24.9486 -1.7185C-26.8838 -0.555583 -29.083 -0.915052 -31.1471 -0.804283C-37.8957 -0.437869 -44.6553 -0.26856 -51.4134 -0.0952682C-52.2118 -0.0753902 -53.0218 -0.500715 -53.8259 -0.719452C-54.9055 -0.68709 -55.9836 -0.654764 -57.0618 -0.621117C-57.6584 0.0988088 -58.2894 0.136889 -58.9583 -0.525505C-60.5454 -0.508774 -62.1324 -0.492058 -63.7208 -0.475281C-64.5484 0.00723144 -65.4016 0.0277018 -66.2761 -0.334C-67.5473 0.208028 -68.8259 0.30868 -70.1174 -0.267929C-71.1171 -0.163646 -72.1173 -0.0366644 -73.1193 0.0370178C-74.2145 0.116623 -75.1405 -0.231279 -75.7806 -1.17619C-76.7504 -0.790104 -77.73 -0.68782 -78.7267 -1.07194C-81.5905 -0.252825 -81.5905 -0.252824 -82.3169 -3.51746C-82.8621 -3.12219 -83.4123 -3.13504 -83.9641 -3.50267C-84.2715 -3.2131 -84.7036 -2.97916 -84.8673 -2.62257C-85.6263 -0.976414 -86.5835 0.189664 -88.6797 -0.122704C-89.9068 -0.305322 -91.2226 0.14487 -92.3771 -0.632645C-93.1131 -0.238718 -93.8168 -0.219458 -94.471 -0.804985C-97.1697 -3.27897 -99.6957 -2.56641 -102.141 -0.386398C-102.764 0.0702926 -103.425 0.145403 -104.124 -0.201073C-106.031 0.740719 -107.94 1.66255 -109.937 0.0526123C-111.571 -0.00640761 -112.231 -1.09471 -112.632 -2.45487C-113.396 -2.56826 -113.955 -2.97566 -114.306 -3.67583C-114.75 -3.27877 -115.207 -3.16807 -115.691 -3.60746C-116.036 -2.81229 -116.506 -2.19151 -117.502 -2.29813L-117.439 -2.3457C-119.719 -1.24678 -122.035 -1.13653 -124.394 -2.08147C-125.83 -1.5537 -127.288 -1.7536 -128.745 -1.93754C-129.506 -1.64947 -130.252 -1.30592 -131.032 -1.08653C-131.869 -0.851873 -132.462 -0.453599 -132.584 0.432549C-132.606 0.425298 -132.628 0.418053 -132.649 0.40947C-132.651 0.409517 -132.651 0.409515 -132.651 0.409515C-132.701 0.918246 -132.752 1.42705 -132.804 1.93449C-132.369 2.31155 -131.935 2.68725 -131.5 3.06297C-131.878 3.16023 -132.255 3.25745 -132.633 3.35471C-133.651 4.30948 -134.716 4.19194 -135.807 3.46159C-138.505 3.54511 -141.201 3.62992 -143.897 3.71339C-145.695 4.63005 -147.492 5.54529 -149.29 6.46056C-150.602 7.1201 -151.882 6.99406 -153.137 6.2988C-154.513 6.18406 -155.096 5.0357 -155.908 4.18617C-158.849 4.20749 -161.788 4.23006 -164.728 4.25133C-167.706 4.66219 -170.676 5.30359 -173.696 4.59122C-174.915 4.73783 -175.929 4.21557 -176.919 3.60441C-182.242 4.20118 -187.565 4.62327 -192.917 4.04704C-195.242 4.28031 -197.536 4.30035 -199.654 3.08553C-201.579 3.15543 -203.505 3.22407 -205.43 3.29397C-205.901 3.74133 -206.372 4.19002 -206.842 4.63872C-206.891 5.50096 -207.288 5.95239 -208.225 5.76897C-209.764 6.33371 -211.328 6.58571 -212.945 6.12721C-216.607 7.38378 -220.314 7.38517 -224.054 6.52316C-226.246 7.10002 -228.457 7.15054 -230.685 6.78004C-232.227 8.19739 -233.815 7.81796 -235.418 6.90266C-236.876 7.42855 -238.351 7.48809 -239.844 7.06393C-241.426 7.97437 -243.036 8.10524 -244.685 7.2356C-245.35 7.65239 -245.986 7.53453 -246.609 7.14404C-247.2 6.99924 -248.007 7.04879 -248.344 6.67502C-249.8 5.06352 -251.273 5.6379 -252.795 6.37012C-252.989 7.12402 -253.47 7.46372 -254.273 7.34366C-254.703 7.35601 -255.133 7.367 -255.563 7.37801C-258.683 4.90008 -261.59 5.44586 -264.355 7.99858C-264.355 7.99857 -264.319 7.98129 -264.319 7.98129C-265.178 8.42087 -266.038 8.86048 -266.897 9.30006C-267.279 9.55624 -267.666 9.76987 -268.058 9.94897C-267.666 9.7712 -267.279 9.55626 -266.897 9.30145C-267.753 8.95509 -268.609 8.60871 -269.463 8.26366C-268.455 7.39994 -268.337 6.67142 -269.818 6.28017C-270.763 6.03034 -271.731 5.86404 -272.69 5.66004C-275.392 6.24268 -278.11 6.33495 -280.845 5.94749C-281.509 6.69514 -282.202 6.72199 -282.924 6.02812C-291.109 6.48603 -299.28 7.27565 -307.493 6.89539C-308.733 7.95266 -310.006 8.00115 -311.316 7.01958C-311.319 7.01968 -311.252 6.96263 -311.252 6.96263C-313.54 8.18056 -316.06 8.06841 -318.531 8.22674C-321.007 8.38658 -323.485 8.5278 -325.962 8.67567C-333.762 9.09481 -341.56 9.54728 -349.363 9.91048C-351.675 10.0179 -353.998 9.87085 -356.316 9.84106C-362.649 11.1709 -373.926 11.5674 -378.779 10.6322C-378.781 10.6323 -379.036 10.8346 -379.036 10.8346L-379.306 10.6519C-381.46 11.8051 -383.858 11.6701 -386.162 11.7959C-394.874 12.2723 -403.593 12.6447 -412.311 12.9932C-417.62 13.2053 -422.933 13.2987 -428.245 13.4455C-434.85 14.0871 -441.454 14.7741 -448.109 14.3354C-451.333 15.63 -454.732 15.0936 -458.057 15.2231C-460.038 15.3003 -460.409 12.9678 -461.92 12.2534C-467.25 13.0412 -472.606 13.0522 -477.97 12.7992C-478.879 13.6581 -478.712 15.6602 -480.702 15.3761L-481.03 15.7025L-481.469 15.5497C-484.338 17.5644 -484.338 17.5644 -487.64 14.4804C-490.227 15.003 -492.829 15.1059 -495.447 14.7477C-496.627 15.432 -496.782 17.3612 -498.564 17.3127C-499.44 17.7649 -500.306 17.8365 -501.153 17.2404C-502.194 17.1566 -503.237 16.9769 -504.272 17.017C-505.475 17.0617 -506.188 17.7083 -506.055 19.0378C-505.934 20.2224 -504.964 21.4159 -506.069 22.5979C-507.354 22.5454 -508.336 22.2474 -508.333 20.6116C-508.332 20.1179 -508.923 19.6236 -509.243 19.1292C-510.176 19.5713 -511.114 19.6348 -512.06 19.1715C-513.067 19.9912 -513.059 22.0388 -515.063 21.6551C-516.174 21.7553 -517.286 21.8568 -518.398 21.957C-518.721 22.6941 -519.181 23.2398 -520.076 23.1857C-520.565 23.9913 -521.123 23.9107 -521.72 23.3085C-522.923 23.6867 -524.104 23.5412 -525.279 23.1819C-526.088 23.1928 -526.906 23.1333 -527.704 23.2333C-528.796 23.3674 -528.941 24.0557 -528.426 24.9049C-528.222 25.2393 -527.876 25.498 -527.563 25.7525C-526.974 26.2296 -526.086 26.7136 -527.155 27.442C-527.555 27.7148 -528.314 27.4598 -528.91 27.4472C-529.591 27.8686 -530.287 27.8916 -530.996 27.5188C-531.242 27.8463 -531.493 28.1712 -531.747 28.4936C-543.182 28.9569 -554.616 29.4243 -566.053 29.877C-567.741 29.944 -569.431 29.9403 -571.121 29.97C-572.65 30.5277 -574.202 30.7886 -575.81 30.3298C-576.189 30.5151 -576.556 30.8348 -576.949 30.8672C-586.914 31.6728 -596.879 32.4918 -606.888 32.4877C-610.161 32.9689 -613.428 33.5593 -616.757 33.0405C-617.813 33.8605 -618.894 33.9102 -620 33.1404C-622.449 33.294 -624.887 33.8714 -627.354 33.3452C-628.96 33.7561 -630.266 32.9892 -631.583 32.2667C-632.585 32.714 -633.604 32.7976 -634.646 32.4111C-635.45 33.4518 -635.37 35.4863 -637.543 34.9885C-638.31 35.5756 -639.109 35.3633 -639.911 35.0805C-640.784 35.5352 -641.658 35.99 -642.53 36.4447C-642.458 37.2 -642.387 37.9553 -642.315 38.7106C-641.967 38.6277 -641.611 38.4939 -641.282 38.5384C-640.943 38.5853 -640.443 38.8026 -640.353 39.0623C-640.125 39.7308 -640.623 40.0537 -641.215 40.1891C-641.589 40.2742 -641.978 40.3051 -642.36 40.3598C-643.062 41.5451 -644.243 41.9425 -645.445 41.7297C-647.887 41.2946 -650.273 41.8035 -652.683 41.865C-653.418 42.4016 -654.196 42.3194 -654.988 42.0255C-656.281 42.679 -657.572 43.3325 -658.865 43.9873C-658.866 43.9887 -658.796 44.0877 -658.796 44.0877C-656.381 45.8458 -653.577 45.3957 -650.879 45.4255C-648.606 45.4516 -646.331 45.2881 -644.015 45.2072C-644.434 48.2957 -644.434 48.2957 -640.988 49.7764C-642.321 50.9836 -644.483 50.6708 -645.384 52.9143C-646.432 55.5258 -645.282 57.2548 -644.138 59.1694C-643.818 59.0755 -643.509 59.102 -643.214 59.2652C-642.585 58.7776 -641.957 58.29 -641.329 57.8012C-639.786 56.5999 -639.209 57.4803 -638.877 58.8922C-637.903 59.0383 -636.912 59.1144 -635.966 59.3629C-635.024 59.6089 -635.422 60.3125 -635.835 60.6484C-636.441 61.1419 -637.201 61.4446 -637.897 61.8292C-638.316 61.7944 -638.721 61.8526 -639.115 62.0024C-639.075 62.3519 -639.069 62.7039 -639.098 63.0585C-638.712 63.1731 -638.32 63.2101 -637.919 63.1707L-637.921 63.1734C-638.265 63.6417 -638.61 64.1101 -638.954 64.5797C-638.953 64.581 -638.877 64.4823 -638.877 64.4823C-638.771 65.2724 -638.665 66.0611 -638.559 66.8513C-638.23 66.7824 -637.948 66.8673 -637.713 67.106C-636.817 66.9426 -635.921 66.7805 -635.023 66.6171C-633.267 67.1308 -631.511 67.6471 -629.752 68.1554C-629.203 68.3123 -629.042 68.6256 -629.357 69.0795C-629.578 69.3994 -629.85 69.8799 -630.144 69.9141C-630.941 70.006 -631.781 69.9993 -632.568 69.8493C-634.157 69.5446 -635.723 69.131 -637.317 69.743C-637.241 70.0565 -637.255 70.3653 -637.381 70.6672C-635.819 72.283 -635.83 72.5435 -637.377 73.4874C-637.376 73.4874 -637.335 73.4606 -637.335 73.4606C-638.597 73.9303 -639.857 74.3999 -641.119 74.8695C-640.97 75.6168 -640.821 76.3627 -640.673 77.1086C-639.33 76.4961 -637.974 76.45 -636.598 76.989C-635.677 76.4419 -634.755 75.8934 -633.834 75.3449C-631.837 73.0952 -629.827 74.3911 -627.817 75.4176C-627.814 75.4188 -627.842 75.3958 -627.842 75.3958C-627.342 74.4978 -627.256 73.2714 -625.948 73.0149C-625.948 73.0162 -625.881 72.9713 -625.881 72.9713C-625.366 72.0287 -624.66 71.4183 -623.496 71.6192C-621.765 71.5694 -620.034 71.5183 -618.302 71.4685C-617.486 71.3919 -616.668 71.3153 -615.852 71.2388C-614.184 69.5249 -612.517 67.811 -610.849 66.0971L-610.589 65.7104L-610.142 65.8389C-608.667 64.7401 -606.919 64.8845 -605.236 64.8018C-601.84 64.6352 -598.439 64.5377 -595.042 64.3871C-594.163 64.3484 -593.399 64.4951 -592.869 65.2598C-591.828 65.2714 -590.904 65.5501 -590.242 66.4155C-588.186 66.333 -586.129 66.2518 -584.073 66.1707C-578.998 66.7432 -573.943 66.0438 -568.878 65.9443C-567.611 65.92 -566.34 65.8262 -565.076 65.8969C-563.697 65.9741 -563.701 67.227 -563.364 68.1652C-562.946 68.1826 -562.535 68.251 -562.135 68.3718C-559.992 67.934 -557.838 67.8535 -555.67 68.1633C-555.273 68.0067 -554.868 67.9899 -554.458 68.1156C-552.843 67.9445 -551.227 67.772 -549.61 67.6008C-549.233 66.1468 -548.955 64.5934 -546.852 64.9042C-543.412 64.3078 -539.981 64.5762 -536.552 65.0169C-536.198 64.9204 -535.839 64.8506 -535.474 64.8085C-535.511 64.739 -535.554 64.6871 -535.594 64.6231C-535.554 64.6871 -535.51 64.739 -535.474 64.8085C-535.238 65.0964 -535.141 65.4279 -535.164 65.7942C-534.539 65.9352 -534.004 66.2006 -533.72 66.8084C-530.387 66.7748 -527.055 66.7398 -523.72 66.7061C-517.518 65.785 -511.285 65.6274 -505.033 66.0055C-503.586 65.2118 -502.13 64.782 -500.645 65.9042C-499.553 65.782 -498.647 66.124 -497.95 66.9815C-497.497 66.9991 -497.044 67.0166 -496.591 67.0354C-496.469 67.9998 -497.004 68.4641 -497.843 68.6962C-498.079 69.3621 -498.634 69.4616 -499.254 69.4499C-500.335 70.1307 -501.553 70.0024 -502.743 70.0427C-503.045 70.7296 -503.572 71.1363 -504.292 71.3002C-504.268 72.1198 -504.244 72.9395 -504.22 73.7605C-502.968 73.7768 -501.714 73.7931 -500.462 73.8094C-499.343 73.6822 -498.223 73.555 -497.104 73.4266C-496.574 72.833 -496.045 72.2409 -495.514 71.6447C-494.936 70.6372 -494.014 70.621 -493.03 70.7761C-492.857 70.4659 -492.726 70.1384 -492.636 69.7938C-491.021 69.636 -489.405 69.4782 -487.79 69.3217C-487.761 70.1972 -487.731 71.0728 -487.701 71.9482C-486.49 71.8886 -485.28 71.8289 -484.069 71.7706C-484.037 70.9383 -484.004 70.106 -483.972 69.2737C-484.641 69.137 -485.167 68.8539 -485.212 68.0696C-484.849 67.8875 -484.467 67.8288 -484.067 67.8883C-483.568 66.8529 -482.723 66.4004 -481.598 66.4172C-480.721 65.3672 -479.447 65.3748 -478.253 65.2517C-475.613 64.9821 -472.966 64.7789 -470.322 64.5492C-469.326 61.8514 -469.27 61.8988 -466.848 62.1291C-464.8 62.3244 -462.733 62.327 -460.679 62.45C-459.491 62.5206 -458.218 62.1626 -457.18 63.067C-455.6 63.3186 -454.049 63.6274 -452.407 63.3112C-450.392 62.9233 -448.361 63.0178 -446.456 63.9679C-445.778 63.532 -445.105 63.5312 -444.431 63.972C-441.995 63.572 -439.531 62.9629 -437.401 64.8978C-435.649 64.3123 -433.884 64.2187 -432.099 64.7394C-430.385 63.6762 -428.482 63.3909 -426.51 63.3874C-425.694 62.8226 -424.847 62.777 -423.969 63.232C-422.444 62.8799 -421.098 63.1837 -419.968 64.2903C-416.622 64.1681 -413.275 64.0459 -409.928 63.9251C-407.358 61.9368 -404.719 62.2382 -402.043 63.7337L-402.104 63.6985C-400.864 63.6752 -399.624 63.6506 -398.384 63.6273C-396.1 61.7758 -393.369 61.9046 -390.701 62.0489C-389.505 62.1152 -389.167 63.2535 -389.082 64.3472C-387.123 64.2187 -385.128 63.9263 -383.563 65.574C-383.562 65.574 -383.506 65.5973 -383.506 65.5973C-380.754 63.1758 -377.361 64.178 -374.217 63.8481C-373.819 62.5534 -373.348 61.3069 -372.064 60.5843C-371.255 61.6754 -371.041 63.1862 -369.656 63.8289C-367.697 63.2028 -365.73 63.0714 -363.749 63.728C-362.102 63.5944 -360.454 63.4595 -358.806 63.3259C-358.578 63.0111 -358.385 62.5814 -358.088 62.4897C-356.295 61.9388 -352.659 62.2934 -350.375 63.1436C-350.374 63.1435 -350.26 63.1329 -350.26 63.1329C-349.901 62.3959 -349.303 61.9948 -348.504 61.8789C-347.685 60.0038 -346.736 61.1834 -345.812 61.7675C-339.01 61.5499 -332.207 61.3324 -325.404 61.1162C-324.323 60.5288 -323.212 60.4099 -322.062 60.9034C-320.071 59.828 -318.043 59.8172 -315.983 60.6938C-311.471 59.9359 -306.946 59.6884 -302.394 60.2619C-302.036 59.9706 -301.65 59.9251 -301.237 60.1202C-300.605 59.2816 -299.786 58.794 -298.711 58.7872C-297.662 57.5165 -296.542 57.7656 -295.391 58.6673C-295.389 58.6686 -295.076 58.4562 -295.076 58.4562L-294.777 58.6858C-291.939 58.1985 -289.125 57.9094 -286.552 59.6634C-285.868 59.2233 -285.181 59.1873 -284.49 59.6408C-282.383 59.5485 -280.275 59.4562 -278.168 59.364C-277.385 58.8283 -276.601 58.2913 -275.818 57.7543C-274.572 56.3993 -274.409 56.4216 -272.411 57.8501C-272.41 57.85 -272.341 57.8904 -272.341 57.8904C-269.021 56.2669 -265.653 56.0078 -262.218 57.5288C-262.216 57.5288 -261.859 57.2748 -261.859 57.2748L-261.513 57.5429C-258.025 57.3758 -254.538 57.1859 -251.05 57.0535C-250.019 57.0148 -248.991 57.1523 -248.344 58.1464C-248.344 58.145 -248.382 58.0836 -248.382 58.0836C-247.992 57.8806 -247.654 57.9462 -247.368 58.2804C-240.994 57.4828 -234.609 57.117 -228.194 57.7202C-227.337 57.6743 -226.479 57.6297 -225.622 57.585L-225.349 57.302L-224.993 57.4684C-223.397 55.3781 -221.716 56.6054 -220.046 57.3423C-213.618 56.4627 -207.165 56.3015 -200.694 56.6171C-198.354 54.3234 -195.934 54.3777 -193.448 56.3721L-193.519 56.3199C-193.112 56.1442 -192.728 56.1855 -192.366 56.4411C-189.604 55.5961 -186.801 55.609 -183.979 56.0521C-183.184 55.0984 -182.357 55.0762 -181.496 55.9654C-180.444 55.4217 -179.386 55.4074 -178.319 55.9145C-175.337 55.4461 -172.342 55.4109 -169.338 55.6596L-168.983 55.3523L-168.544 55.5211C-167.552 54.2591 -166.122 54.0103 -164.669 53.9663C-161.999 53.8851 -159.328 53.8972 -156.657 53.8706C-154.411 52.3793 -154.392 52.3866 -152.707 53.806C-152.707 53.8047 -152.727 53.788 -152.727 53.788C-151.719 54.1517 -150.709 54.5154 -149.7 54.8791C-147.314 54.2354 -144.915 54.1022 -142.496 54.6755C-141.235 53.9938 -139.956 53.709 -138.629 54.5005C-135.242 53.7778 -131.84 53.563 -128.416 54.2359C-126.717 53.5415 -125.399 54.4787 -124.044 55.2599C-119.31 54.4769 -114.551 54.3628 -109.776 54.7203C-108.7 52.7869 -107.626 53.8981 -106.55 54.7024C-103.673 54.5366 -100.797 54.3707 -97.92 54.2049C-97.4559 52.7465 -96.5634 51.7507 -94.9444 51.5434C-91.9147 51.1561 -89.1111 51.5158 -86.9377 53.9641C-77.0955 52.7479 -67.1781 53.11 -57.3055 52.5718C-56.2749 52.5145 -55.2285 52.7568 -54.1909 52.8606C-51.2719 52.7053 -48.3542 52.5501 -45.4366 52.3935C-45.2138 51.7413 -44.7585 51.3318 -44.079 51.1547C-43.05 49.4817 -42.6935 49.4907 -41.382 51.1739C-40.6052 51.2962 -39.9102 51.5614 -39.4795 52.2815C-39.4781 52.2814 -39.4578 52.2914 -39.4578 52.2914C-38.8491 51.8806 -38.2404 51.4684 -37.6317 51.0576C-37.3277 49.7168 -36.2814 49.6123 -35.1924 49.5823C-34.4586 48.4373 -33.3145 48.1131 -32.0542 48.0998C-30.8593 48.0874 -30.1119 48.3989 -30.6603 49.8883C-30.9699 50.7263 -30.3102 51.393 -29.7726 52.0026C-27.7352 51.8927 -25.6978 51.7843 -23.6604 51.6744C-23.0293 50.8732 -22.3796 51.0627 -21.7218 51.6761C-20.8194 51.1576 -19.9027 51.1229 -18.9698 51.5893C-18.8856 51.4036 -18.7986 51.2191 -18.7184 51.0322C-16.8037 46.5694 -16.8037 46.5693 -12.204 49.0023L-12.0818 49.0647C-11.0305 49.7898 -9.97911 50.5162 -8.92645 51.2426C-6.70715 50.5727 -4.47158 50.484 -2.21301 51.0148C-0.424288 50.2786 1.27138 49.1694 3.3576 49.6169C4.26402 49.1357 5.14467 49.0222 5.96167 49.8008C8.10926 50.0954 10.4535 48.686 12.4241 50.5223C13.2293 50.5049 14.0345 50.4862 14.8397 50.4687C15.153 50.1963 15.4529 49.7295 15.7805 49.71C21.1976 49.3821 26.6213 48.5123 32.0277 49.8258C33.1291 49.2737 34.2368 49.207 35.3592 49.7522C37.4871 49.2936 39.6288 49.2282 41.7843 49.5198L42.105 49.227L42.477 49.4516C46.1626 47.7526 49.8985 47.5314 53.6959 49.0705C54.8289 48.584 55.9651 48.4536 57.1122 49.0206C58.3912 48.7384 59.487 49.0203 60.3372 50.0633C60.7838 49.5927 61.2392 49.6088 61.7025 50.0383C62.2817 49.6231 62.8623 49.208 63.4415 48.7928C63.465 48.0902 63.7204 47.5357 64.3839 47.2417C64.5464 46.2407 64.8618 45.3398 65.9308 44.9303L65.9385 44.9193C66.2139 43.7143 66.7086 43.553 67.4428 44.5213C68.6539 44.551 69.7715 44.5774 70.8911 43.7431C72.4788 42.5603 73.4811 43.8341 74.5662 45.2598C73.0878 47.0872 70.312 46.2622 68.804 47.8931L68.7697 48.0971C69.7424 48.6342 70.7151 49.1726 71.6891 49.7096C71.6904 49.7095 72.1101 49.4614 72.1101 49.4614L72.5043 49.7478C80.6129 49.47 88.7214 49.1908 96.83 48.913L97.1527 48.6016L97.5681 48.7698C99.3014 47.171 99.3135 47.1746 101.288 48.6305C104.47 48.0165 107.662 47.809 110.874 48.3772C112.967 48.2775 115.061 48.1776 117.153 48.0765C117.781 47.2128 118.64 46.7998 119.7 46.7762C120.137 45.811 120.637 45.6455 121.229 46.6201C123.215 46.3853 124.97 47.2686 126.802 47.793C128.731 47.1306 130.67 47.0188 132.628 47.6469C134.732 47.5494 136.838 47.4518 138.944 47.3543C139.072 47.2097 139.188 47.043 139.347 46.952C142.3 45.2599 145.238 45.8604 148.171 47.0267C148.171 47.0254 148.097 46.9546 148.097 46.9546C148.918 46.9686 149.739 46.9827 150.56 46.9953L150.83 46.7524L151.145 46.9362C154.899 45.0961 158.69 44.2673 162.592 46.5272C165.614 45.8479 168.653 45.7258 171.714 46.2059C172.998 45.1818 174.484 44.8698 176.086 44.9633C180.309 43.8752 184.578 43.8355 188.873 44.4127C189.743 44.1515 190.21 44.5835 190.515 45.2932C191.623 45.464 192.705 45.6931 193.421 46.6954C194.298 46.1831 195.188 46.1907 196.09 46.6208C197.3 45.3845 198.738 44.8873 200.449 45.2705C200.869 45.2639 201.289 45.2572 201.709 45.2506C202.951 44.8323 204.211 44.8083 205.485 45.068C206.541 44.0719 207.798 43.6104 209.244 43.6479C209.694 42.8037 210.193 42.6395 210.771 43.5079C212.596 43.4468 214.584 42.4942 216.048 44.431C216.986 44.9038 217.923 45.3754 218.863 45.8469C222.721 45.1118 226.601 45.0043 230.499 45.4165C231.381 42.3332 233.723 42.3635 236.224 42.7298C237.964 42.1941 239.705 41.661 241.339 43.0181C242.369 43.6653 243.399 44.3124 244.43 44.9594C244.906 44.4839 245.404 44.4558 245.927 44.8765C246.261 44.1484 246.82 43.6846 247.578 43.4567C247.997 42.3574 248.933 42.2993 249.941 42.2774C251.273 42.2496 252.603 42.1418 253.935 42.0633C253.849 41.3578 253.763 40.6538 253.677 39.9483C253.101 39.739 252.257 39.6844 252.023 39.279C251.462 38.306 252.21 37.6461 253.092 37.5259C255.382 37.2138 257.69 37.0251 259.999 36.8778C260.217 36.8635 260.478 37.4908 260.719 37.8199C262.055 39.1741 263.17 40.7695 264.935 41.6538C266.008 41.1387 267.086 41.0837 268.174 41.6034C270.054 41.423 272.056 40.4458 273.613 42.3687C274.618 42.5217 275.589 42.7347 276.151 43.7036C277.325 43.704 278.5 43.7056 279.676 43.706C280.515 42.8708 280.922 41.5758 282.269 41.2793C283.07 40.5829 283.931 40.6783 284.817 41.0863C286.085 40.6497 287.37 40.6142 288.667 40.9358L289.074 40.6174L289.546 40.8264C290.217 40.0972 290.918 40.0674 291.648 40.7423C294.043 40.109 296.45 39.9662 298.878 40.5405C300.374 40.2468 301.864 39.9773 302.969 41.3956C312.291 41.1648 321.611 40.9354 330.933 40.7046L331.221 40.4117L331.591 40.5923C332.757 38.7784 333.995 39.9559 335.219 40.5082C336.961 39.8657 338.726 39.8334 340.512 40.2874C340.61 40.0998 340.678 39.888 340.811 39.7299C342.847 37.3227 342.846 37.3281 345.169 39.0428C345.678 39.4172 346.219 39.7492 346.747 40.1003C350.833 39.3786 354.931 39.1274 359.054 39.7559C359.849 39.6575 360.642 39.5591 361.436 39.4593C362.765 37.8706 362.992 37.8427 364.373 39.2193C367.438 39.1403 370.504 39.1239 373.563 38.9584C375.477 38.8542 377.231 39.1185 378.801 40.2657C380.516 39.6281 382.253 39.5875 384.012 40.0531C384.516 39.1669 384.493 37.8656 385.886 37.6822C386.296 37.281 386.726 37.2593 387.174 37.6186C388.61 37.4444 390.001 37.4572 391.134 38.5436C391.539 38.304 391.937 38.3181 392.326 38.5874L392.675 38.2856L393.098 38.4697C393.652 38.0528 394.204 37.6372 394.758 37.2203C394.797 36.4678 395.009 35.8388 395.883 35.6922L395.827 35.7381C398.671 34.4567 399.022 34.4352 399.793 36.6896C400.215 37.9197 400.722 38.8345 401.81 39.4609C401.811 39.4609 402.134 39.4457 402.134 39.4457C402.541 38.9952 403.13 38.6116 403.32 38.0834C403.734 36.9202 402.785 34.8321 405.003 34.9587C406.508 35.0436 406.131 36.8672 406.524 37.9461C406.651 38.2939 406.699 38.6725 406.773 39.0408C407.137 38.9133 407.454 38.989 407.725 39.2864L408.119 39.0032L408.552 39.2201C410.131 37.9443 411.734 37.2612 413.44 39.0161C413.919 38.5498 414.409 38.602 414.905 38.9849C415.929 37.9633 416.973 37.3771 418.109 38.7557C419.24 38.7122 420.372 38.6673 421.505 38.6224C421.818 37.0986 422.5 35.9407 424.316 35.952C425.581 35.9585 426.844 35.9958 428.108 36.0184C435.333 35.067 442.583 34.8445 449.856 35.2349C450.455 35.1166 451.055 34.8928 451.653 34.9C453.867 34.9267 452.873 36.2876 452.566 37.4991C453.862 37.4538 455.109 37.3181 456.344 37.3884C458.341 37.5028 457.022 36.2068 457.302 35.5846C457.74 34.6127 458.991 34.7425 460.013 34.9469C460.543 34.3294 461.018 33.6524 461.614 33.1086C463.551 31.3453 464.664 31.7627 465.807 34.6272C465.808 34.6271 465.927 34.631 465.927 34.631C466.312 33.4809 466.386 31.9694 468.02 31.9203C473.376 31.764 478.746 31.1735 484.07 32.2937C484.225 32.327 484.337 32.5553 484.465 32.7135C486.789 32.7418 489.111 32.7634 491.433 32.7997C493.96 32.8395 496.535 32.3881 498.963 33.5134C498.964 33.5134 499.356 33.2368 499.356 33.2368L499.742 33.5222C501.78 33.2789 501.983 33.5107 501.673 35.9363C502.573 35.4379 503.487 35.4193 504.416 35.8525C504.6 33.019 504.752 32.7922 506.832 32.5982C508.064 32.4831 509.311 32.3942 510.438 33.1006C510.439 33.1006 510.709 33.0885 510.709 33.0885C512.344 31.9708 514.01 31.6884 515.729 32.9132C515.731 32.9145 516.045 32.6994 516.045 32.6994L516.345 32.9317C517.165 32.8724 517.985 32.8145 518.803 32.7565C520.14 31.8306 521.473 30.8995 522.815 29.9801C523.774 29.3236 524.751 29.3549 525.728 29.9531C526.42 29.522 527.104 29.5475 527.784 29.9814C529.627 29.8877 531.688 28.7097 533.053 31.0061C533.712 31.1485 534.241 31.4583 534.516 32.0944C535.242 32.0864 535.967 32.0798 536.693 32.0731L536.61 32.1413C538.524 30.3788 540.873 30.9385 543.115 30.9255C543.237 32.158 543.359 33.3906 543.481 34.6231C543.899 34.6351 544.295 34.7267 544.674 34.9003C545.492 34.769 546.311 34.639 547.13 34.509C547.281 33.6178 546.858 32.4119 548.361 32.2566C549.057 32.0522 549.754 31.8464 550.452 31.6433C550.506 31.2105 550.559 30.7764 550.612 30.3423C553.146 28.5367 553.574 28.5338 554.16 30.5946C554.449 31.6118 554.431 32.6984 555.465 33.328C556.85 33.2957 557.652 32.1043 558.813 31.6168C560.061 31.0903 561.478 30.9034 562.305 32.0779C563.369 33.5897 564.778 33.5258 566.25 33.5024C569.197 33.4542 572.142 33.3567 575.088 33.2805C577.066 29.2877 577.102 29.2851 581.541 29.549C581.197 30.4496 580.852 31.3502 580.508 32.2507C580.47 32.6016 580.498 32.9475 580.593 33.2884C581.346 33.2621 582.098 33.2358 582.853 33.2095C583.366 33.1702 583.88 33.1323 584.395 33.0929L584.279 33.1637C584.701 33.1569 585.112 33.22 585.511 33.3541C585.866 33.1483 586.247 33.0603 586.656 33.0887C586.95 32.4207 587.285 31.7953 588.116 31.6888C588.495 31.6956 589.043 31.8673 589.223 31.6822C590.561 30.3094 591.635 30.5907 592.671 32.0381C592.897 32.3544 593.334 32.5219 593.677 32.7581L594.083 32.4985L594.473 32.777C594.825 32.4806 595.206 32.4339 595.615 32.6291C596.16 31.8242 596.707 31.0206 597.253 30.2144C598.452 28.4462 598.451 28.4449 601.023 29.852L600.919 29.7929C602.104 30.1918 603.288 30.5347 604.422 29.6906C604.654 28.862 605.236 28.4041 606.081 28.3826C607.289 28.3524 608.499 28.4249 609.707 28.4534C610.127 28.4294 610.547 28.4067 610.967 28.3827C612.858 28.1259 614.847 27.2613 616.369 29.2267C617.972 30.4395 619.638 29.1539 621.268 29.3091L621.626 29.0045L622.055 29.1962C624.458 27.0204 627.339 27.5081 630.173 27.7414L630.559 27.4344L631.02 27.6077C631.928 27.1024 632.836 26.5984 633.743 26.0918C634.13 25.1363 635.141 24.7355 635.673 25.3373C636.748 26.5565 638.282 26.5856 639.505 27.3314L639.879 27.3064C640.607 25.8227 641.329 24.5608 643.396 24.5166C645.845 24.4631 648.175 24.7179 650.449 25.5817C650.637 24.9041 650.986 24.417 651.823 24.5158C652.249 24.4556 652.677 24.394 653.103 24.3337C653.551 24.3181 654 24.3037 654.448 24.2881C654.49 25.1645 654.534 26.0395 654.578 26.9158C655.337 26.8799 656.096 26.8428 656.856 26.8069C657.316 26.3613 657.778 25.9155 658.239 25.4698C658.239 25.4698 658.21 25.4869 658.212 25.4868C658.249 25.1119 658.282 24.7359 658.307 24.3588C660.824 23.6999 663.361 23.5232 665.923 24.0741C665.883 24.884 665.845 25.6952 665.803 26.5038C668.048 26.5735 670.295 26.6444 672.543 26.714C672.82 26.5763 673.102 26.4504 673.389 26.3363C673.828 26.4077 674.05 26.6561 674.075 27.0648C674.691 27.0486 675.307 27.0325 675.921 27.0164C676.337 26.0359 676.489 24.7071 678.171 25.4155L678.12 25.3839C678.999 24.5221 679.628 22.9952 681.061 23.2893C683.425 23.7751 685.524 25.1707 688.134 23.3905C689.111 22.724 690.694 24.3885 691.61 25.5919C694.159 25.4909 696.708 25.3899 699.257 25.2902L699.554 24.9877L699.933 25.1772C703.573 22.9101 704.012 22.9868 705.826 26.2775C706.572 26.2101 707.318 26.1414 708.063 26.074C708.475 25.6647 708.858 25.2164 709.319 24.8722C711.387 23.3244 711.443 23.3211 712.358 25.7973C714.826 25.8285 717.295 25.8597 719.765 25.8908L720.191 25.5798L720.679 25.7843C721.122 25.3672 721.702 25.0267 721.983 24.5193C722.905 22.8594 724.145 22.8721 725.551 23.7262C726.41 24.2486 727.197 24.8869 728.016 25.4719L728.452 25.3634L728.732 25.7138C729.77 26.0271 730.807 26.3391 731.847 26.6523C731.849 26.6536 731.996 26.6084 731.996 26.6084C732.737 25.4525 733.802 25.0885 735.117 25.3307C735.945 24.8122 736.791 24.784 737.654 25.2395C738.892 25.1656 740.129 25.0917 741.366 25.0178C741.866 24.1945 742.457 23.4094 742.834 22.5331C743.56 20.84 744.412 21.1505 745.401 22.2019C747.059 22.2227 748.718 22.2422 750.375 22.263C750.865 21.9938 751.295 22.0522 751.656 22.4932C752.828 22.6884 752.862 23.7465 753.241 24.5444C754.018 24.5787 754.797 24.6141 755.575 24.6483C760.66 23.6676 765.776 23.529 770.916 24.0766C772.351 23.6569 773.36 23.9766 773.852 25.5457C774.098 26.3296 774.594 27.0327 774.979 27.7731C775.807 27.7561 776.635 27.7393 777.461 27.7238C777.885 27.709 778.309 27.6941 778.732 27.678C779.161 27.6577 779.59 27.6374 780.019 27.6171C781.955 26.8304 783.931 26.832 785.932 27.3132C786.549 26.6392 787.165 26.571 787.78 27.2953C789.382 27.1927 790.983 27.0887 792.583 26.9862C792.788 26.3493 793.171 25.873 793.829 25.6459C794.131 24.6254 794.89 24.3974 795.648 24.9633C796.286 25.4414 796.672 26.2577 797.171 26.9247C797.172 26.9247 797.562 26.7029 797.562 26.7029L797.913 26.9842C799.612 26.538 801.324 26.4742 803.051 26.7981L803.398 26.4872L803.821 26.6845C804.737 25.6519 805.237 24.0214 807.098 24.3193C809.26 24.6654 811.582 25.7064 813.534 25.2259C815.63 24.7111 817.555 24.8628 819.568 24.8939C820.25 24.5058 821.066 24.2345 821.552 23.6758C822.739 22.3149 823.69 22.251 825.052 23.5256C826.07 24.48 827.347 23.0986 828.541 23.3891L828.833 23.0748L829.229 23.2397C830.421 20.5351 830.421 20.5351 833.282 20.8594C833.429 21.2158 833.618 21.5481 833.851 21.8562C836.318 21.3751 838.792 21.1487 841.283 21.6847C850.222 20.8629 859.19 20.8499 868.154 20.7157C869.981 21.2883 872.018 20.6702 873.763 21.7085C873.766 21.7085 874.18 21.4538 874.18 21.4538L874.575 21.7389C875.835 21.6735 877.096 21.6081 878.356 21.5441C880.087 20.2322 881.879 20.139 883.732 21.3217C883.732 21.3204 883.7 21.2548 883.7 21.2548C886.136 21.1443 886.164 21.1501 886.646 23.7909C887.132 23.4017 887.633 23.3214 888.159 23.714C887.913 22.2924 888.115 21.2207 889.884 21.0281C892.46 20.7474 892.916 20.9863 893.999 23.5727C894.749 23.5399 895.498 23.5084 896.248 23.4756C896.174 21.9279 896.332 20.4601 898.381 20.538C901.515 20.6567 904.585 20.5348 907.449 19.0699C907.66 18.4956 907.753 17.8119 908.138 17.3956C909.09 16.3617 909.924 16.5287 910.388 17.916C910.839 18.2965 911.291 18.6769 911.742 19.0561C914.269 19.0146 916.795 18.973 919.322 18.9302L919.74 18.6114L920.228 18.8105C921.212 18.0504 922.212 17.918 923.232 18.7242C931.295 18.1265 939.358 17.514 947.456 17.8837C951.103 17.0626 954.777 16.9756 958.473 17.4709C960.91 16.0383 963.72 17.0382 966.259 16.2785C966.468 16.6021 966.703 16.9047 966.965 17.1864C979.456 16.6795 991.946 16.1633 1004.44 15.6817C1005.48 15.6412 1006.54 15.8378 1007.59 15.9239C1008.39 15.8307 1009.19 15.7361 1009.98 15.6429C1011.09 12.8384 1011.72 12.5855 1014 14.095C1014.4 14.2119 1014.91 14.545 1015.17 14.4078C1017.24 13.3134 1018.91 14.1943 1020.56 15.3657L1021.12 15.1951C1021.12 15.1951 1021.66 15.4417 1021.66 15.4404C1024.64 15.3324 1027.63 15.2241 1030.6 15.1163C1037.28 14.1734 1043.99 14.2298 1050.7 14.2436C1050.86 13.8831 1051.04 13.5315 1051.24 13.1909C1055.49 13.3627 1059.7 13.2317 1063.95 12.6057C1068.34 11.956 1072.84 11.8614 1077.31 11.7321C1088.59 11.4064 1099.88 11.1961 1111.16 10.9411L1111.59 10.6326L1112.07 10.8263C1112.32 10.5137 1112.56 10.197 1112.8 9.87769C1113.66 10.1544 1114.51 10.4303 1115.38 10.7069L1115.84 10.4761L1116.26 10.7602C1122.2 10.5966 1128.11 9.439 1134.09 10.0723L1134.07 10.0981C1135.53 9.05055 1137.04 9.05792 1138.59 9.88567C1141.38 9.25581 1144.16 9.06393 1146.97 9.71023C1149.53 9.60356 1152.09 9.49691 1154.66 9.39111L1154.98 9.08897L1155.37 9.30119C1159.1 7.371 1163.14 7.7115 1167.12 7.84067C1168.24 7.8762 1168.73 8.87975 1169.11 9.84439C1169.85 9.94006 1170.59 10.0344 1171.32 10.1287C1172.58 9.5084 1173.85 9.44023 1175.16 9.94676C1177.23 9.74224 1177.4 9.94048 1177.17 12.3555C1177.17 12.3569 1177.51 12.1622 1177.51 12.1622L1177.8 12.4257C1178.17 12.1816 1178.55 12.1513 1178.94 12.3177C1179.07 9.67001 1179.09 9.66424 1181.56 9.69009C1181.98 9.69119 1182.4 9.69273 1182.82 9.69383C1184.21 9.57615 1185.6 9.43665 1186.99 9.34695C1188.73 9.23403 1189.36 10.3169 1189.63 11.7548C1190.77 11.7819 1191.92 11.8085 1193.06 11.8351C1194.23 10.8671 1194.69 8.99274 1196.61 8.9817C1197.41 6.1371 1199.69 6.37112 1201.94 6.51148L1202.21 6.18855L1202.6 6.32699C1204.55 4.68702 1204.82 4.68034 1207.53 6.18677L1207.95 5.97604L1208.33 6.26282C1213.8 4.62706 1219.34 5.25125 1224.88 5.59561L1224.83 5.63612C1226.69 4.45159 1228.59 4.52011 1230.54 5.40053C1231.66 4.89992 1232.78 4.83015 1233.9 5.35651C1235.58 5.27923 1237.26 5.20195 1238.94 5.12467C1241.98 1.81367 1243.76 1.39287 1247.76 3.04604C1247.9 3.09869 1247.93 3.35624 1248.02 3.54133C1248.43 3.65396 1248.83 3.65469 1249.23 3.53632C1249.46 3.91931 1249.69 4.30093 1249.92 4.68391C1250.58 4.23511 1251.22 4.25277 1251.83 4.80795C1253.11 4.73929 1254.38 4.67201 1255.66 4.60335C1257.77 3.82666 1259.89 3.68067 1262.05 4.36575C1266.83 4.23068 1271.65 3.49814 1276.35 5.07381L1276.25 5.01311C1279.55 4.90837 1282.86 4.82491 1286.15 4.69132C1288.24 4.6076 1290.3 4.60124 1292.13 5.80878C1292.13 5.81011 1292.49 5.56522 1292.49 5.56522L1292.84 5.84142C1294.53 5.42075 1296.25 5.35008 1297.98 5.64717L1298.28 5.37263L1298.62 5.57018C1301.49 3.15096 1304.9 3.99929 1308.17 4.05052C1310.04 3.26355 1311.97 3.2814 1313.91 3.73141C1314.53 2.76385 1315.47 2.30526 1316.55 2.27556C1319.28 2.20016 1322.02 2.19672 1324.75 2.16395C1327.7 1.38327 1330.67 1.31412 1333.67 1.82864C1335.78 1.73333 1337.9 1.64471 1340.02 1.53874C1341.33 1.47315 1342.45 1.62725 1343.48 2.68149C1344.35 3.5996 1345.43 2.75617 1346.4 2.46056C1346.4 2.45923 1346.27 2.56645 1346.27 2.56645C1348.32 0.864594 1348.87 0.760273 1350.39 1.95985C1351.05 2.4692 1351.59 3.11732 1352.18 3.70094C1353.47 3.129 1354.79 3.05355 1356.13 3.54315C1358.35 -0.0326116 1359.69 -0.243488 1362.72 2.49774C1363.04 2.77753 1363.37 3.03419 1363.7 3.30019C1364.61 2.77592 1365.55 2.754 1366.49 3.18381C1367.32 2.25857 1368.27 1.64634 1369.57 1.85438C1370.84 1.24425 1372.12 1.21555 1373.4 1.83807C1374.86 1.62831 1376.24 1.71096 1377.41 2.75475C1378.22 2.77033 1379.03 2.78458 1379.85 2.80017C1380.67 2.28715 1381.51 2.25917 1382.38 2.70644C1384.07 2.27776 1385.79 2.24304 1387.52 2.54413C1389.41 1.78734 1391.33 1.74703 1393.28 2.29652C1394.07 2.03941 1394.84 1.59747 1395.64 1.5549C1411.9 0.689581 1428.16 -0.134391 1444.44 -0.948204C1445.05 -0.978937 1445.68 -0.827558 1446.31 -0.761482C1449.47 -1.62823 1452.66 -1.68217 1455.86 -1.15244C1457.55 -2.39221 1459.54 -1.96139 1461.41 -2.04652C1483.68 -3.06707 1505.95 -4.06766 1528.23 -5.01225C1532.02 -5.17419 1535.83 -5.8487 1539.65 -5.30173C1541.76 -6.04778 1543.89 -6.20888 1546.03 -5.52866C1548.05 -5.57094 1550.06 -5.59854 1552.07 -5.66214C1553.66 -5.71219 1554.04 -4.60228 1554.33 -3.37941C1559.09 -4.09013 1563.86 -4.30738 1568.67 -3.84016C1571.52 -4.48167 1574.19 -5.39515 1576.41 -7.52993C1577.27 -8.36196 1578.78 -8.48116 1579.42 -6.804C1580.4 -6.4031 1581.38 -6.00397 1582.36 -5.6044C1584.55 -6.27595 1586.75 -6.36878 1588.97 -5.8246C1589.89 -7.56733 1591.03 -8.96521 1593.31 -8.74583C1594.55 -8.62521 1595.82 -8.65077 1597.06 -8.59011C1599.34 -8.48266 1600.02 -9.09495 1600.08 -11.3116C1600.13 -13.2493 1599.41 -14.0153 1597.53 -13.931C1596.51 -13.8859 1595.48 -13.7221 1594.46 -13.6836C1594.4 -13.6817 1594.15 -14.464 1594.29 -14.7036C1594.86 -15.6427 1595.72 -16.1837 1596.84 -16.2575C1597.42 -17.5079 1597.01 -18.6702 1596.54 -19.8266L1596.15 -19.7678L1595.72 -19.8555C1595.24 -20.227 1594.75 -20.5966 1594.27 -20.9681C1595.33 -21.8458 1596.44 -22.6475 1597.89 -22.7369C1598.59 -23.8418 1599.42 -24.9074 1598.93 -26.3365C1596.74 -26.6231 1595.31 -24.1462 1593.05 -24.689C1592.64 -24.7856 1592.12 -24.8861 1591.91 -25.1736C1591.53 -25.7474 1591.71 -26.2687 1592.45 -26.5373C1593.84 -27.0516 1595.17 -27.6863 1596.17 -28.8832C1597 -29.8835 1597.81 -30.8043 1597.29 -32.2684C1596.83 -33.6025 1597.54 -34.2464 1598.81 -34.3426C1600.06 -34.4383 1601.32 -34.4278 1602.59 -34.4641C1603.32 -34.9765 1604.04 -35.4898 1604.76 -36.0036C1604.76 -36.6703 1604.75 -37.3357 1604.75 -38.0029C1604.06 -38.251 1603.7 -38.7199 1603.8 -39.5067C1603.41 -39.8988 1603.37 -40.3229 1603.68 -40.7805C1603.12 -41.5721 1602.55 -42.3637 1601.99 -43.1552L1601.7 -42.9167L1601.37 -43.1347C1600.92 -42.4494 1600.52 -41.7243 1600.01 -41.0914C1599.65 -40.6466 1599.04 -39.9354 1598.7 -40.0144C1595.96 -40.6603 1593.04 -40.6637 1589.43 -42.2909C1592.59 -43.0817 1594.72 -43.6496 1596.88 -44.1439C1598.35 -44.482 1598.88 -45.4827 1599 -46.8462L1598.63 -46.7279L1598.39 -47.0384C1598.09 -47.1321 1597.61 -47.1594 1597.55 -47.3334C1597.34 -47.9412 1597.79 -48.1929 1598.3 -48.3216C1598.68 -49.6677 1599.69 -49.8083 1600.86 -49.6542C1601.44 -50.1442 1602.08 -50.2332 1602.77 -49.8625C1603.34 -50.4506 1603.91 -51.0388 1604.49 -51.6287C1604.49 -51.63 1604.47 -51.7801 1604.47 -51.7801C1603.91 -52.3239 1603.35 -52.8657 1602.78 -53.409L1602.38 -53.2013L1602.01 -53.4753C1600.82 -53.1456 1599.94 -53.5671 1599.29 -54.5757C1598.47 -54.5846 1597.66 -54.5949 1596.84 -54.6038C1596.83 -55.4798 1596.81 -56.3543 1596.78 -57.2298C1596.36 -57.33 1595.95 -57.3182 1595.54 -57.1919C1594.61 -57.9744 1593.46 -58.7241 1595.08 -59.9203C1595.23 -60.7285 1595.75 -61.0763 1596.54 -61.1264C1596.95 -62.1402 1597.84 -62.4739 1598.78 -62.7268C1599.12 -63.877 1599.26 -65.0103 1598.46 -66.0672C1598.45 -66.0667 1598.07 -65.8546 1598.07 -65.8546L1597.72 -66.1321C1596.48 -65.8512 1595.49 -66.317 1594.64 -67.2014C1593.64 -66.7769 1592.64 -66.7593 1591.64 -67.1353C1590.19 -65.9118 1588.81 -64.6655 1588.59 -62.5912C1588.56 -62.3566 1587.97 -62.1815 1587.65 -61.9807L1587.63 -61.9749C1586.11 -60.8864 1584.25 -60.9657 1582.55 -60.5232C1582.4 -61.3438 1582.26 -62.1663 1582.12 -62.9869C1577.75 -62.8117 1573.38 -62.6377 1568.99 -62.462C1568.94 -62.1225 1568.84 -61.8016 1568.68 -61.4944L1568.52 -61.5235C1568.95 -61.0529 1569.37 -60.5818 1569.8 -60.1125C1570.22 -60.0448 1570.65 -59.9784 1571.1 -59.9125C1571.91 -59.9382 1572.74 -59.9657 1573.56 -59.9932C1574.41 -60.0416 1575.27 -60.0914 1576.12 -60.1399C1577.1 -60.4381 1577.89 -60.1764 1578.51 -59.3534C1577.21 -59.0493 1576.6 -57.3564 1575.02 -57.6173L1575.06 -57.64C1573.09 -56.3518 1570.8 -56.5254 1568.62 -56.2732C1568.18 -56.2499 1567.76 -56.227 1567.33 -56.2041C1566.52 -56.1117 1565.71 -56.0207 1564.9 -55.9297C1564.68 -55.2777 1564.21 -54.8985 1563.55 -54.746C1562.74 -52.7778 1561.72 -54.0298 1560.76 -54.5644C1557.85 -54.387 1554.96 -53.6854 1552.03 -54.3182C1547.16 -55.1247 1542.28 -54.1739 1537.42 -54.2724C1535.9 -54.3033 1535.27 -53.1168 1534.34 -52.3157C1534.29 -51.4388 1533.89 -50.9313 1532.93 -51.0777C1532.5 -51.1041 1532.07 -51.1306 1531.64 -51.157C1530.49 -51.0126 1529.49 -51.3246 1528.62 -52.1054C1521.49 -51.2586 1514.31 -51.352 1507.14 -51.1789C1506.76 -51.1699 1506.39 -51.5344 1506.01 -51.7253C1504.98 -52.9581 1504.31 -54.824 1502.09 -54.0044C1501.27 -53.4395 1500.42 -53.3284 1499.53 -53.8418C1498.63 -53.6316 1498.1 -54.0958 1497.7 -54.8237C1495.96 -54.407 1494.22 -54.2607 1492.47 -54.7039C1489.66 -53.3971 1486.81 -52.7787 1483.87 -54.2661L1483.83 -54.2687C1483.08 -54.3133 1482.33 -54.3592 1481.58 -54.4037C1480.32 -54.097 1479.32 -54.5143 1478.5 -55.4583C1477.98 -55.0732 1477.45 -55.0679 1476.9 -55.4011C1476.31 -54.3358 1475.87 -52.8649 1474.24 -53.6338C1473.27 -54.0894 1472.35 -54.5095 1471.28 -54.3696C1470.7 -54.2905 1470.01 -54.1304 1469.58 -53.754C1465.48 -50.0859 1465.51 -49.9843 1462.67 -49.7488L1462.72 -49.7986C1461.69 -48.7673 1460.61 -49.0552 1459.52 -49.6989C1458.81 -49.3033 1458.1 -49.32 1457.41 -49.76C1455.76 -49.5943 1455.4 -51.1386 1454.49 -51.9527C1451.73 -51.6334 1448.96 -51.3381 1446.18 -51.8161C1442.55 -50.7753 1438.89 -50.5501 1435.2 -51.4313C1431.91 -51.3364 1428.64 -50.3855 1425.34 -51.2322C1423.78 -51.0459 1422.35 -51.3412 1421.02 -52.1969C1417.95 -51.5626 1414.83 -51.8539 1411.72 -51.8654Z" fill="white"/>
</g>
</g>
</g>
</g>
<defs>
<clipPath id="clip0_215_1302">
<rect width="1440" height="41.3252" fill="white"/>
</clipPath>
<clipPath id="clip1_215_1302">
<rect width="1440" height="52" fill="white"/>
</clipPath>
<clipPath id="clip2_215_1302">
<rect width="1440" height="52" fill="white"/>
</clipPath>
</defs>
</svg>
