<svg width="2264" height="145" viewBox="0 0 2264 145" fill="none" xmlns="http://www.w3.org/2000/svg">
<path d="M1793.46 70.9839C1792.77 71.2013 1792.21 71.8094 1791.6 72.239C1787.21 73.0873 1782.81 73.2755 1778.35 73.3595C1770.12 73.5133 1761.91 74.1775 1753.7 74.6512C1753.55 74.659 1753.42 74.9413 1753.27 75.0961C1751.84 75.8357 1750.48 77.3175 1748.79 75.6247C1747.78 74.6073 1746.51 74.6142 1745.24 74.5958C1743.11 74.5645 1740.97 74.4004 1738.88 74.5925C1724.9 75.8744 1710.89 75.9131 1696.89 76.55C1695.21 76.626 1693.53 76.9392 1691.84 77.1435C1684.25 77.4887 1676.66 77.8234 1669.06 78.1834C1666.34 78.3119 1663.57 78.2401 1660.96 79.2611C1651.4 79.4791 1641.83 79.7411 1632.27 79.8952C1628.66 79.9529 1625.05 79.7787 1621.45 79.6511C1621.14 79.6407 1620.73 79.244 1620.56 78.9246C1620.21 78.2908 1620.47 77.5933 1621 77.272C1622.45 76.3917 1624.14 75.847 1625.44 74.8024C1629.52 71.5219 1634.06 70.5989 1639.15 71.3989C1641.44 71.7579 1643.81 71.6233 1646.14 71.7701C1647.19 71.8361 1648.67 71.6511 1649.21 72.2512C1651.91 75.2348 1654.81 73.9819 1657.97 73.3753C1663.56 72.3038 1669.24 71.6894 1674.88 70.9613C1676.12 70.8001 1677.54 70.6335 1678.68 71.0381C1680.83 71.8061 1682.7 71.442 1684.77 70.788C1686.13 70.363 1687.81 70.3443 1689.17 70.7464C1691.79 71.5196 1694.14 71.6051 1696.43 69.9469C1697.21 69.3793 1698.04 70.0669 1698.8 70.0391C1702.14 69.9156 1705.56 70.5352 1708.81 69.1943C1709.81 68.7818 1710.94 68.5784 1711.73 69.5699C1712.81 70.9332 1713.73 70.8545 1714.71 69.5261C1715.33 68.6971 1716.19 68.7499 1716.98 69.1387C1720.61 70.9142 1724.45 70.467 1728.27 70.3201C1730.18 70.2456 1732.33 69.7527 1733.94 70.4448C1737.05 71.7836 1740.21 69.6642 1743.21 71.0845C1744.1 71.5082 1744.75 70.6614 1745.41 70.1752C1747.43 68.692 1749.67 68.5494 1752.09 68.7384C1755.68 69.0214 1759.3 68.9486 1762.89 69.3156C1765.34 69.5689 1767.88 69.1664 1770.26 70.6258C1772.19 71.823 1774.32 71.5735 1776.05 69.7282C1776.98 68.7135 1778.32 68.4347 1779.57 68.6086C1784.84 69.3372 1790.05 67.7 1795.3 68.3598C1795.24 69.6201 1794.82 70.5562 1793.46 70.9839ZM1362.16 43.8384C1362.07 43.5081 1362.02 43.8086 1362.16 43.8384ZM1303.79 42.975C1303.56 42.7456 1303.3 42.5958 1303.03 42.4958C1303.3 42.5958 1303.56 42.7457 1303.79 42.975C1305 42.9887 1306.22 43.0022 1307.43 43.0158C1306.22 43.0022 1305 42.9886 1303.79 42.975ZM1237.36 48.7101C1236.62 48.5692 1235.88 48.4271 1235.13 48.2849C1235.88 48.4257 1236.62 48.5679 1237.36 48.7101ZM221.511 127.101C221.351 126.893 221.204 126.574 221.038 126.416C221.204 126.574 221.352 126.893 221.512 127.1C221.511 127.1 221.511 127.1 221.511 127.101ZM153.982 92.6382C153.578 92.5229 153.175 92.4476 152.776 92.4068C153.177 92.4475 153.578 92.5229 153.982 92.6382ZM139.946 94.2491C139.393 94.4658 138.786 94.543 138.054 94.71C137.65 94.4413 137.176 94.127 136.702 93.8127C137.198 93.5205 137.666 93.1506 138.2 92.9625C138.548 92.8397 138.989 92.9737 139.387 93.0092C139.586 93.0262 139.799 93.0455 139.974 93.1301C140.146 93.2135 140.425 93.4305 140.4 93.5048C140.31 93.7801 140.169 94.1613 139.946 94.2491ZM2070.58 15.336C2069.48 16.1831 2068.34 16.1565 2067.18 15.4325C2064.87 16.1815 2062.51 15.9263 2060.16 15.6644C2058.16 16.9655 2055.77 16.6859 2053.58 17.2104C2051.17 19.2158 2048.3 17.6616 2045.69 18.1797C2044.47 18.4224 2043.81 18.9658 2044.59 20.3393C2045 21.056 2045.34 22.0959 2044.03 22.2472C2040.44 22.658 2036.83 23.0226 2033.24 22.2421C2032.92 22.1733 2032.57 21.7265 2032.45 21.3798C2032.18 20.606 2032.82 20.2212 2033.39 20.0799C2035.52 19.548 2037.6 19.9689 2039.66 20.5573C2040.56 20.8126 2041.62 20.5084 2041.7 19.6478C2041.75 19.0339 2040.81 18.3327 2040.32 17.6694C2038.32 17.9262 2036.32 18.4842 2034.31 17.734C2033.03 17.7547 2031.75 17.7754 2030.48 17.7956L2030.17 18.1617L2029.69 18.0633C2027.87 19.5463 2027.71 19.5519 2026.43 18.168L2026.43 18.2645C2025.64 18.204 2024.85 18.1443 2024.07 18.0834C2023.48 18.9967 2022.8 19.7223 2021.56 19.4106C2020.71 19.786 2019.85 19.8482 2019.01 19.3733C2017.54 19.3153 2017.16 17.6737 2015.96 17.2327C2012.49 17.845 2009 17.9869 2005.49 17.5838C2004.1 18.3194 2002.66 18.8849 2001.05 18.9305C2000.63 18.929 2000.21 18.9292 1999.78 18.9281C1998.93 18.9379 1998.06 18.9463 1997.21 18.9561C1996.38 19.3732 1995.55 19.7415 1994.66 19.1201C1993.76 19.289 1993.24 18.7879 1992.86 18.0689C1989.74 18.1658 1986.64 18.2622 1983.54 18.36C1981.4 19.4752 1979.03 19.359 1976.74 19.7016C1976.32 19.6938 1975.87 19.6878 1975.43 19.6819C1971.32 19.1172 1967.2 19.6585 1963.08 19.681C1961.47 19.6893 1959.79 20.2726 1958.26 19.2493C1956.5 19.3241 1954.72 19.3993 1952.96 19.4754C1952.6 20.2151 1952.01 20.5497 1951.18 20.4839C1950.35 21.18 1949.47 21.0783 1948.58 20.6115C1947.44 20.8274 1946.47 20.5424 1945.7 19.6677C1943.47 19.8307 1941.25 20.4272 1938.99 19.9071C1938.05 20.347 1937.1 21.1863 1936.18 21.1492C1933.68 21.0483 1931.2 20.5742 1928.71 20.2464C1927.42 20.8543 1926.12 20.8266 1924.8 20.4245C1923.12 21.5532 1921.2 21.7228 1919.27 21.8382C1918.76 22.7381 1918.14 22.7031 1917.49 21.9641C1916.08 22.0147 1914.67 22.0641 1913.24 22.1139C1912.59 22.8225 1911.91 22.8222 1911.23 22.1415L1910.93 22.3819L1910.59 22.1905C1909.79 22.9988 1908.99 23.8099 1907.7 23.5614C1907.27 23.487 1906.85 23.4113 1906.42 23.3369C1905.68 23.4429 1905.2 23.1242 1904.93 22.4788L1904.44 22.544C1904.44 22.544 1903.96 22.4262 1903.92 22.4183C1902.94 23.6414 1901.59 23.9335 1900.11 23.7973C1899.44 24.5944 1898.61 25.0452 1897.54 24.9679C1894.66 26.0612 1891.63 25.2526 1888.7 25.6393C1888.22 25.4277 1887.76 25.2161 1887.3 25.0041C1886.43 25.0636 1885.57 25.1228 1884.72 25.1805C1883.01 25.2028 1881.3 25.225 1879.61 25.2482C1878.89 25.3572 1878.58 24.8438 1878.22 24.3855C1878.55 23.0919 1878.13 21.9336 1877.57 20.8018C1872.79 21.421 1868.01 21.6161 1863.19 21.2813C1861.66 22.4328 1860.13 23.1762 1858.47 21.4824C1856.23 21.9861 1853.98 22.1008 1851.71 21.6917C1850.81 22.1769 1849.91 22.662 1849.01 23.1472C1848.85 23.9199 1848.49 24.4446 1847.55 24.2174C1847.12 24.2243 1846.7 24.2298 1846.26 24.2372C1845.15 24.5081 1844.19 24.2502 1843.47 23.3443C1842.12 22.9298 1840.78 22.5166 1839.43 22.1021C1839.02 22.2125 1838.61 22.4067 1838.19 22.4212C1825.64 22.8768 1813.1 23.3165 1800.55 23.7429C1800.13 23.756 1799.7 23.6043 1799.28 23.5281C1798.42 24.4148 1797.55 25.3001 1796.69 26.1868C1797.24 27.4376 1798.12 28.3926 1799.56 27.9381C1801.62 27.2845 1803.56 26.6209 1805.39 28.4472C1806.07 29.124 1806.87 28.6253 1807.68 28.3526C1809.44 27.7617 1811.27 27.4358 1813.07 26.9314C1813.85 26.7094 1814.47 27.1855 1814.43 27.6769C1814.25 29.8137 1815.51 30.0059 1817.14 30.1397C1819.64 30.3432 1822.16 29.5866 1824.65 30.3605C1823.83 31.1347 1823.01 31.9062 1822.18 32.6809C1810.93 33.274 1799.67 33.8875 1788.41 34.4557C1766.51 35.5605 1744.62 36.6649 1722.72 37.703C1719.49 37.8561 1716.36 38.5282 1713.34 39.4983C1709.62 40.6968 1705.88 41.0759 1702.04 41.0873C1687.99 41.1309 1673.94 41.0224 1659.9 41.2339C1651.61 41.3594 1643.32 41.9876 1635.03 42.3719C1633.75 42.431 1632.47 42.4611 1631.2 42.3707C1630.64 42.3316 1629.91 42.2532 1629.83 41.3661C1629.76 40.6334 1630.24 40.2789 1630.68 39.8315C1631.62 38.8539 1633.4 38.7758 1633.87 36.9516C1633.16 36.7403 1632.61 36.426 1632.07 36.4383C1627.38 36.5485 1622.7 36.7266 1618.02 36.8633C1616.5 36.9072 1615.06 37.1084 1613.96 38.3249C1613.1 39.27 1612.16 39.3241 1611.23 38.4505C1609.63 36.9337 1607.75 37.0447 1605.85 37.5886C1604.01 38.1144 1602.23 38.8276 1600.4 39.3586C1599.4 39.6454 1598.26 40.0083 1597.4 39.1149C1596.03 37.6807 1594.32 37.9337 1592.63 37.9447C1588.38 37.9744 1584.12 37.6976 1579.93 38.7099C1579 38.9359 1578.24 38.4179 1577.93 37.5563C1577.61 36.6829 1577.94 35.8681 1578.75 35.3969C1580.03 34.6545 1581.36 33.9905 1582.66 33.2939C1584.54 33.3365 1586.96 32.6447 1588.18 33.5615C1591.67 36.1919 1595.38 35.2313 1599.04 35.1021C1601.04 35.0322 1603.26 35.8846 1605.04 34.204C1606.07 33.2701 1607.06 32.4058 1608.66 32.5114C1610.24 32.615 1611.84 32.395 1613.43 32.3182C1618.49 31.9987 1623.55 31.6699 1628.61 31.3691C1629.85 31.2951 1630.49 30.603 1630.81 29.4874C1630.08 29.7661 1629.38 29.7626 1628.71 29.3351C1627.75 29.5967 1627.22 29.0737 1626.81 28.3113C1625.39 28.3342 1623.98 28.357 1622.56 28.3798C1621.46 29.2092 1620.33 29.2941 1619.16 28.5399C1617.38 28.6049 1615.59 28.6711 1613.81 28.7361C1613.24 29.1655 1612.67 29.5949 1612.1 30.0243C1611.06 29.8273 1609.96 29.7725 1609.21 28.8392C1606.5 28.962 1603.79 29.0835 1601.07 29.2063C1600.97 29.5929 1600.79 29.9433 1600.54 30.2563C1600.12 30.2574 1599.71 30.2076 1599.31 30.1082C1597.62 30.6276 1595.91 30.8874 1594.15 30.4459C1593.02 30.6669 1592.06 30.3627 1591.32 29.4642C1588.98 29.5577 1586.65 29.6526 1584.31 29.7475C1582.33 31.6283 1579.86 30.8409 1577.56 31.0078C1574.38 32.129 1571.11 31.9336 1567.84 31.6076C1567.72 32.4242 1567.6 33.2408 1567.49 34.0574C1567.18 34.6362 1566.89 35.2189 1566.1 35.2223C1566.1 35.2209 1565.98 35.3026 1565.98 35.3026C1564.22 37.923 1561.68 39.4045 1558.61 39.0127C1554.88 38.5359 1552.51 40.3518 1550.23 42.7861C1549.85 43.1985 1549.17 43.3435 1548.63 43.6119C1545.5 43.6853 1542.36 43.76 1539.23 43.8335C1536.68 43.4914 1534.1 44.5183 1530.81 43.5046C1532.62 42.4099 1533.96 41.7453 1535.51 41.4659C1535.74 40.2196 1535.92 38.9499 1534.17 38.6961C1532.06 38.3884 1530 38.5456 1528.44 40.2623C1527.36 41.461 1526.36 41.3904 1525.39 40.2049C1523.86 38.3476 1522.19 39.0945 1520.51 39.7896C1520.49 40.1545 1520.48 40.5216 1520.43 40.8822C1519.95 44.2773 1519.65 44.3863 1516.21 42.472C1516.21 42.4721 1516.25 42.5199 1516.25 42.5199L1515.66 42.6125L1515.15 42.3049C1515.26 41.9275 1515.27 41.5454 1515.2 41.1598C1515.54 40.9596 1515.92 40.8679 1516.31 40.874C1516.24 40.0973 1516.17 39.3206 1516.1 38.5453C1512.75 38.4368 1509.37 38.5455 1506.03 37.3628C1506.59 35.2981 1508.94 35.7214 1509.75 34.2992C1510.03 33.7875 1510.41 32.9859 1510.21 32.6222C1509.96 32.197 1509.15 32.0534 1508.56 31.8753C1506.84 31.3629 1506.01 33.121 1504.62 33.4644C1503.1 34.5755 1501.4 33.9821 1499.77 33.9419C1499.92 34.6957 1500.07 35.4495 1500.23 36.2033C1500.23 36.2033 1500.58 36.0069 1500.58 36.0069L1500.87 36.2754C1501.72 36.0096 1502.82 36.1513 1502.87 36.918C1502.91 37.5663 1501.82 37.9834 1500.93 37.7105C1498.38 38.3465 1495.82 38.5785 1493.24 37.864C1491.5 37.7943 1492.09 36.3699 1491.84 35.4369C1491.19 35.3153 1490.61 35.0994 1490.31 34.4655C1488.93 34.3552 1487.55 33.6948 1486.16 34.7559C1485.5 35.2578 1484.54 35.1129 1483.77 34.5712C1482.6 34.9992 1481.43 35.0772 1480.31 34.4068C1479.49 34.562 1479.04 34.1906 1478.86 33.4418C1478.12 33.2997 1477.54 32.9265 1477.18 32.2347C1475.87 32.2803 1474.56 32.326 1473.25 32.3717C1472.99 33.0892 1472.73 33.8069 1472.46 34.5244L1471.91 34.5785L1471.35 34.5513C1470.53 35.2324 1469.66 35.1202 1468.77 34.707C1467.98 34.8305 1467.37 34.5542 1466.95 33.8794C1465.6 34.3186 1464.24 34.3568 1462.87 34.0111C1462.49 34.674 1461.89 34.9069 1461.17 34.8816C1458.26 36.0159 1455.25 36.0049 1452.21 35.6427C1451.75 35.7454 1451.3 35.8494 1450.84 35.9521C1450.21 35.4736 1449.59 34.9938 1448.96 34.5154C1443.34 35.1238 1437.71 35.3672 1432.06 35.0668C1431.53 35.4831 1430.99 35.8994 1430.46 36.3156C1430.03 36.229 1429.61 36.1437 1429.19 36.0572C1424.65 36.9174 1420.04 36.7806 1415.46 36.8994C1415.33 37.7256 1415.21 38.5519 1415.08 39.3781L1415.15 39.4836C1417.28 39.4214 1419.41 39.3591 1421.53 39.2969C1421.98 39.2679 1422.43 39.2376 1422.88 39.2086C1423.74 39.0745 1424.6 38.9403 1425.46 38.8074C1425.9 39.2658 1426.34 39.7255 1426.78 40.1838L1426.84 40.0959C1426.84 40.6285 1426.84 41.1623 1426.83 41.6949L1426.45 41.9363L1426.1 41.6537C1424.82 42.5015 1423.34 42.313 1421.93 42.4035C1419.51 42.5601 1417.14 42.5429 1414.84 43.753C1413.87 44.2646 1414.08 42.7644 1413.83 42.1021C1413.32 41.6903 1412.81 41.2785 1412.3 40.8666C1411.74 40.8982 1411.18 40.9312 1410.61 40.9629C1409.57 41.8973 1408.53 42.7196 1407.51 40.9421C1406.37 40.6175 1406.08 39.7017 1405.87 38.7284C1405.49 38.6709 1405.12 38.5974 1404.75 38.4929C1404.63 38.0942 1404.47 37.7087 1404.28 37.3377C1399.49 37.6064 1394.7 37.9778 1389.91 38.1025C1387.22 38.1724 1384.49 38.8373 1381.82 37.9194C1380.06 38.0581 1380.28 36.627 1379.98 35.6076C1376.89 36.1678 1373.78 36.3349 1370.65 35.9438C1370.13 36.8014 1370.17 37.7446 1370.08 38.708C1370.03 39.3396 1369.35 39.1954 1368.99 38.6407C1368.17 38.5989 1367.34 38.5583 1366.52 38.5164C1366.02 39.4276 1365.87 40.348 1366.44 41.2874C1365.16 42.6302 1364.39 41.8528 1363.71 40.6397C1363.01 39.0485 1362.79 37.1588 1361.02 36.2188C1360.39 36.2542 1359.76 36.2897 1359.12 36.3252C1358.74 37.1536 1358.59 38.158 1357.49 38.4272C1357.13 38.5894 1356.77 38.7515 1356.4 38.9137C1356.39 39.7106 1356.38 40.5075 1356.37 41.303C1356.67 41.3603 1357.01 41.3726 1357.33 41.4107C1357.01 41.3726 1356.67 41.3603 1356.37 41.3044C1355.96 42.1269 1355.56 42.9495 1355.16 43.772C1353.97 44.4057 1352.73 44.1836 1351.47 44.105C1349.81 44.0003 1348.13 44.088 1346.46 44.0929C1345.92 42.5603 1346.62 40.7667 1345.48 39.3606C1338.95 39.5859 1332.42 39.8112 1325.89 40.0352C1324.84 40.879 1323.76 40.89 1322.66 40.1387C1317.38 40.3352 1312.09 40.5317 1306.81 40.7282C1306.14 41.4212 1305.47 41.4301 1304.78 40.7577C1303.35 40.8357 1301.92 40.9136 1300.49 40.9915C1300.17 41.3576 1299.85 41.7236 1299.54 42.0896C1299.23 41.6865 1298.93 41.2821 1298.63 40.8791C1296.78 40.9117 1294.92 40.8486 1293.08 41.0077C1291.39 41.1533 1291.27 41.8353 1292.37 44.0315L1292.5 43.4372C1292.89 43.4648 1293.26 43.5693 1293.61 43.7547C1293.42 44.3509 1293.04 44.7043 1292.39 44.7058C1291.12 44.7556 1289.84 44.8067 1288.57 44.8578C1288.37 44.8954 1288.18 44.953 1287.98 44.9654C1284.09 45.189 1284.09 45.1877 1283.27 41.4181C1282.34 41.5161 1281.4 41.6142 1280.46 41.7122L1280.46 41.7123L1280.13 41.876L1279.84 41.6488C1279.19 42.3039 1278.54 42.9628 1278.59 43.9923L1278.64 43.8827C1278.54 44.3809 1278.45 44.8804 1278.36 45.3799C1278.81 45.8324 1279.26 46.2863 1279.72 46.7388C1279.5 47.6495 1278.99 48.2343 1277.99 48.1585C1276.33 48.0324 1274.62 48.0642 1273.21 46.9447C1271.09 46.9573 1268.97 46.97 1266.85 46.9826C1265.63 47.7749 1264.35 47.7609 1263.04 47.2625C1262.6 47.2244 1262.16 47.1877 1261.72 47.1483C1261.74 46.7674 1261.73 46.3876 1261.68 46.009C1260.22 45.8572 1258.6 46.1912 1257.59 44.6683C1257.59 44.6683 1257.59 44.6696 1257.59 44.6697C1257.33 43.5874 1256.53 43.1656 1255.5 43.1965C1254.67 43.2214 1253.91 43.1731 1253.27 42.5966C1251.95 43.0708 1250.62 43.0411 1249.29 42.7156C1247.09 43.5649 1244.86 44.2605 1242.45 44.0629C1242.25 43.7283 1242.07 43.388 1241.89 43.0434L1241.69 43.0275C1241.31 43.7759 1240.67 44.0971 1239.86 44.1374C1239.86 44.1374 1239.9 44.2508 1239.9 44.2494C1238.94 44.1081 1237.98 43.9655 1237.03 43.8228C1236.96 44.1211 1236.99 44.4138 1237.1 44.6967C1234.24 43.5907 1233.99 43.7166 1233.32 46.6418C1232.55 46.7741 1231.78 46.9065 1231.01 47.0388C1227.18 47.5126 1223.37 48.2181 1219.49 47.5476C1218.88 47.5171 1218.24 47.318 1218.35 46.6111C1218.51 45.5313 1218.11 44.6835 1217.6 43.8275L1217.17 43.8398C1215.62 44.7892 1214.04 45.1058 1212.4 44.0355C1210.61 44.6612 1208.79 44.7326 1206.96 44.2752C1205.96 44.5583 1204.95 44.8189 1203.96 45.1297C1203.33 45.3262 1202.82 45.7365 1203.03 46.4469C1203.12 46.7439 1203.63 47.1092 1203.94 47.1101C1205.2 47.1154 1206.47 46.9927 1207.73 46.9126C1210.08 46.761 1212.32 47.0138 1214.11 48.7843C1211.77 48.6071 1209.46 48.4168 1207.54 50.2519C1206.72 51.0302 1205.39 51.2542 1204.57 50.6197C1201.02 47.8684 1197.15 50.2556 1193.49 49.7136C1189.26 51.8773 1184.9 50.7275 1180.56 50.2307C1179.89 50.6437 1179.24 50.5396 1178.6 50.1644C1174.87 50.3346 1171.15 50.5701 1167.42 50.6189C1166.69 50.6283 1165.95 49.9109 1165.22 49.5283C1164.51 49.8959 1163.83 49.9129 1163.2 49.3558C1162.85 49.2454 1162.28 49.2266 1162.19 49.0096C1161.91 48.3363 1162.5 47.9703 1162.95 47.5957C1162.95 47.5943 1162.96 47.5086 1162.96 47.5086C1162.23 47.1765 1161.76 46.6326 1161.56 45.8617C1159.1 44.8443 1156.62 45.3206 1154.14 45.8089C1153.73 45.9151 1153.32 46.0214 1152.92 46.1277C1151.39 46.9439 1150.77 45.2725 1149.67 44.9456C1149.2 45.4329 1148.71 45.3765 1148.21 45.0071C1147.87 45.7529 1147.26 46.1116 1146.47 46.1967L1146.46 46.2009C1146.01 47.3907 1145.07 47.6318 1143.94 47.5152L1144.07 47.7948C1141.46 47.8032 1138.85 47.8115 1136.24 47.8199C1136.26 48.669 1136.29 49.518 1136.31 50.367C1138.5 50.2427 1140.68 50.1185 1142.86 49.9955L1142.69 50.2843C1143.21 50.2369 1143.7 50.3027 1143.58 50.9683C1143.56 51.1186 1143.06 51.1907 1142.78 51.2979L1142.39 51.7142L1141.85 51.5746C1138.2 52.417 1134.58 53.7137 1130.83 51.9832C1129.08 52.4913 1127.32 52.6035 1125.54 52.1427C1123.64 52.6588 1121.73 53.1762 1119.83 53.6923C1118.55 53.5022 1116.91 53.8556 1117.33 51.5302C1117.49 50.6119 1117.09 49.592 1116.94 48.6192C1115.96 48.5322 1114.98 48.4425 1113.99 48.3609C1112.83 48.2664 1112.12 48.733 1111.99 49.9408C1112.5 50.2368 1113 50.526 1113.49 50.8316C1113.95 51.1107 1114.39 51.4089 1114.83 51.6989C1114.34 51.9695 1113.85 52.2415 1113.36 52.5121C1111.2 51.4546 1109.1 52.866 1106.97 52.6511C1104.45 53.501 1101.88 53.4706 1099.29 53.0339C1098.1 53.5466 1096.87 53.5469 1095.61 53.3051C1095.62 53.305 1095.67 53.2526 1095.67 53.2526C1094.12 54.3205 1092.36 54.6114 1090.55 54.5613C1089.66 54.5361 1089.07 53.9647 1089.03 53.0375C1089 52.338 1089.54 52.0405 1090.13 51.8595L1090.13 51.8676C1091.6 49.5202 1091.6 49.5202 1088.94 49.3837C1088.51 49.4533 1088.09 49.5215 1087.66 49.5897C1085.35 49.2635 1083.04 48.9359 1080.73 48.6097C1079.76 49.1026 1078.77 49.0652 1077.77 48.7186C1077.46 48.9826 1077.14 49.2248 1076.86 49.5146C1075.62 50.8173 1074.87 50.2498 1074.32 48.8737C1073.86 49.2594 1073.38 49.3614 1072.88 48.9479C1072.39 50.0482 1071.85 51.5561 1070.39 50.5251C1068.39 49.1153 1066.56 49.9369 1064.64 50.3363C1064.2 51.4819 1063.61 51.3702 1062.94 50.5276C1062.59 50.8173 1062.3 50.7703 1062.06 50.3891C1060.86 50.6043 1060 49.8365 1059.04 49.3658C1058.5 49.8275 1057.95 49.8403 1057.37 49.4401C1056.4 49.8703 1055.43 50.3018 1054.45 50.732C1054.3 51.4297 1053.89 51.8724 1053.19 52.033C1053.09 52.6206 1052.86 53.1266 1052.17 52.9425C1051.98 52.893 1051.92 52.3573 1051.81 52.0439L1051.56 51.7842L1051.74 51.4751C1050.25 49.8743 1047.98 50.7887 1046.3 49.7988L1046.04 50.0052L1045.77 49.824C1044.58 50.3391 1044.34 51.9806 1042.91 52.2105C1042.49 52.2946 1042.06 52.3788 1041.64 52.463C1038.26 53.0467 1038.26 53.0467 1037.16 50.1819C1035.76 50.627 1034.36 50.6747 1032.94 50.2718C1032.47 52.8807 1032.47 52.8808 1030.12 52.7811C1029.26 53.1221 1028.4 53.1907 1027.56 52.7158C1026.05 52.7153 1025.78 51.0424 1024.64 50.5406L1024.27 50.7628L1023.9 50.5542C1021.52 51.5978 1019.1 51.6729 1016.65 50.8395C1014.88 51.5028 1013.07 51.0363 1011.29 51.0494C1010.77 51.4919 1010.25 51.9356 1009.72 52.3781C1009.4 52.8432 1009.11 53.6244 1008.72 53.6738C1005.71 54.062 1002.75 53.9478 1000.19 51.9452C999.878 51.7013 999.462 51.589 999.093 51.4152C998.845 51.7107 998.585 51.7211 998.313 51.4465C995.286 52.9303 992.185 52.8412 989.042 51.8916C987.569 51.919 986.095 51.9451 984.621 51.9726C983.501 52.8589 982.363 52.8146 981.211 52.0356C980.58 52.087 979.948 52.1398 979.316 52.1912C978.435 53.1532 977.545 54.0007 976.286 52.6759C975.569 51.9191 974.857 51.1489 974.074 50.4664C972.349 48.9604 968.529 48.6561 966.606 50.0508C966.094 50.4222 966.133 51.5536 965.919 52.3362C965.534 52.3203 965.154 52.2681 964.779 52.1798C962.651 52.3022 960.522 52.4246 958.395 52.5469C957.514 52.615 957.022 52.1626 956.796 51.3513C956.684 50.9843 956.631 50.3271 956.452 50.2906C953.074 49.6094 949.703 49.1055 946.94 51.9476C946.69 52.4607 946.45 52.8786 945.723 52.9053C943.978 52.9716 942.239 53.1591 940.498 53.2959C939.049 53.9362 937.564 54.1428 936.026 53.6496C934.395 54.6151 932.732 54.7012 931.027 53.8455C929.58 54.3496 928.12 54.1338 926.659 53.9433C924.772 54.9938 922.866 55.6447 920.867 54.2056C920.866 54.2057 920.388 54.2023 920.388 54.2023C919.676 54.9343 918.933 54.9869 918.153 54.3044C917.589 54.7764 917.025 54.6253 916.459 54.3142C915.429 55.2026 914.361 55.1732 913.262 54.4512C913.26 54.4512 912.747 54.4638 912.747 54.4638C907.775 55.4926 900.919 55.7361 896.556 55.0412C895.836 55.3906 895.13 55.3271 894.436 54.9645C893.583 54.9942 892.73 55.0254 891.878 55.0552C890.645 55.5638 889.395 55.869 888.079 55.3746C886.368 55.3223 884.657 55.27 882.946 55.219C882.289 55.7049 881.566 55.8222 880.784 55.6093C880.186 56.4521 879.583 56.8453 878.963 55.6702C877.657 55.5865 876.297 54.5733 875.079 55.9927C873.314 58.0515 871.512 57.2059 869.731 55.982C868.306 56.464 866.868 56.5529 865.413 56.1181C862.225 57.4648 858.977 57.1807 855.713 56.4782C853.041 57.0451 850.351 57.1164 847.647 56.7772C847.096 57.2127 846.546 57.6482 845.995 58.0823C845.788 58.8767 845.505 59.7177 844.473 59.1054C843.451 58.5007 842.552 57.6889 841.599 56.9684C838.318 57.0977 835.044 57.767 831.754 57.1041C831.547 57.0699 831.228 57.1077 831.152 56.9903C829.673 54.7032 827.294 54.1552 824.866 53.6877C817.464 54.6586 810.012 54.2717 802.583 54.4712C801.491 55.5753 799.115 54.6216 798.725 56.8499C799.842 57.2898 800.962 57.7297 802.157 58.199C798.415 59.5077 797.605 59.5413 791.849 58.655C789.905 58.7308 787.963 58.8067 786.019 58.8826C785.416 59.6027 784.789 59.6193 784.142 58.9401L783.795 59.1818L783.433 58.9636C782.832 59.6756 782.202 59.7029 781.544 59.0428C780.09 59.5672 778.619 59.6226 777.131 59.2036C775.689 60.0905 774.234 60.4028 772.749 59.2966C771.278 59.6148 769.811 60.0089 768.299 59.5321C767.178 60.377 766.032 60.369 764.864 59.6347C757.751 60.2513 750.627 60.5308 743.488 60.2397C742.316 60.6022 741.371 60.1735 740.713 59.2479C739.031 56.8839 736.749 57.1317 734.434 57.8156C734.004 57.9413 733.757 58.6904 733.439 59.1898C734.166 59.3965 734.893 59.6874 734.542 60.6402C734.308 61.2767 733.713 61.3082 733.213 60.7573C729.958 61.5087 726.658 60.9715 723.381 61.0819C722.69 61.8105 721.966 61.8531 721.208 61.1845C719.01 61.7242 716.8 61.8028 714.574 61.4069C713.371 62.2734 712.142 62.323 710.881 61.5251C709.132 62.0638 707.367 62.0975 705.586 61.7274C704.907 62.4729 704.212 62.4838 703.501 61.7722C700.339 62.1147 697.185 62.6464 693.994 62.1055C692.172 62.544 690.352 62.9838 688.53 63.4223C688.099 63.4253 687.668 63.4271 687.236 63.4289C685.11 63.5164 682.982 63.6041 680.854 63.6917C679.584 64.3444 678.299 64.3106 677.002 63.7795C673.176 64.1426 669.383 65.2823 665.501 64.2532C661.675 64.7604 657.839 64.9877 653.987 64.5939C653.387 64.6549 652.785 64.704 652.187 64.7809C650.718 64.9709 649.92 64.5318 650.073 62.8521C650.123 62.3047 649.716 61.7159 649.519 61.1451L649.217 61.1356C647.849 62.0146 647.161 64.6135 644.659 62.4354C643.395 61.3322 641.395 61.8237 639.79 62.408C639.346 62.5703 639.11 63.307 638.787 63.8039C639.246 63.9693 639.709 64.172 639.515 64.7738C639.456 64.9559 638.94 64.9927 638.634 65.0954C637.124 65.9806 635.527 65.8269 633.916 65.4829C631.981 66.6458 629.782 66.2864 627.718 66.3971C620.969 66.7635 614.21 66.9329 607.452 67.1061C606.653 67.126 605.843 66.7007 605.039 66.482C603.96 66.5143 602.881 66.5467 601.803 66.5803C601.207 67.3002 600.576 67.3383 599.907 66.6759C598.32 66.6926 596.733 66.7094 595.144 66.7261C594.317 67.2086 593.463 67.2291 592.589 66.8674C591.318 67.4094 590.039 67.5101 588.748 66.9335C587.748 67.0378 586.748 67.1648 585.746 67.2384C584.651 67.318 583.725 66.9701 583.084 66.0252C582.115 66.4113 581.135 66.5136 580.138 66.1295C577.275 66.9486 577.274 66.9486 576.548 63.684C576.003 64.0792 575.453 64.0664 574.901 63.6987C574.593 63.9883 574.161 64.2223 573.998 64.5788C573.239 66.225 572.282 67.3911 570.185 67.0787C568.958 66.8961 567.642 67.3463 566.488 66.5688C565.752 66.9627 565.048 66.982 564.394 66.3964C561.695 63.9224 559.169 64.635 556.724 66.815C556.101 67.2717 555.44 67.3468 554.741 67.0003C552.834 67.9421 550.925 68.864 548.928 67.254C547.294 67.195 546.634 66.1067 546.233 64.7465C545.469 64.6332 544.91 64.2258 544.559 63.5256C544.115 63.9226 543.658 64.0333 543.174 63.594C542.829 64.3891 542.359 65.0099 541.363 64.9033L541.426 64.8557C539.146 65.9546 536.83 66.0649 534.471 65.1199C533.035 65.6477 531.577 65.4478 530.12 65.2639C529.359 65.5519 528.613 65.8955 527.833 66.1149C526.996 66.3495 526.403 66.7478 526.281 67.634C526.259 67.6267 526.237 67.6195 526.216 67.6109C526.214 67.6109 526.214 67.6109 526.214 67.6109C526.164 68.1197 526.113 68.6285 526.061 69.1359C526.496 69.513 526.93 69.8887 527.365 70.2644C526.987 70.3616 526.61 70.4589 526.232 70.5561C525.214 71.5109 524.149 71.3934 523.058 70.663C520.36 70.7465 517.664 70.8313 514.968 70.9148C513.17 71.8315 511.373 72.7467 509.575 73.662C508.263 74.3215 506.983 74.1955 505.728 73.5002C504.352 73.3855 503.769 72.2371 502.957 71.3876C500.016 71.4089 497.077 71.4315 494.137 71.4527C491.159 71.8636 488.189 72.505 485.169 71.7926C483.95 71.9392 482.936 71.417 481.946 70.8058C476.623 71.4026 471.3 71.8247 465.948 71.2485C463.623 71.4817 461.329 71.5018 459.211 70.2869C457.286 70.3568 455.36 70.4255 453.435 70.4954C452.964 70.9427 452.493 71.3914 452.023 71.8401C451.974 72.7024 451.577 73.1538 450.64 72.9704C449.101 73.5351 447.537 73.7871 445.92 73.3286C442.258 74.5852 438.551 74.5866 434.811 73.7246C432.619 74.3014 430.408 74.352 428.18 73.9815C426.638 75.3988 425.05 75.0194 423.447 74.1041C421.989 74.63 420.514 74.6895 419.021 74.2654C417.439 75.1758 415.829 75.3067 414.18 74.437C413.515 74.8538 412.879 74.7359 412.256 74.3455C411.665 74.2007 410.858 74.2502 410.521 73.8764C409.065 72.2649 407.592 72.8393 406.07 73.5715C405.876 74.3254 405.395 74.6651 404.592 74.5451C404.162 74.5574 403.732 74.5684 403.302 74.5794C400.182 72.1015 397.275 72.6473 394.51 75.2C394.51 75.2 394.546 75.1827 394.546 75.1827C393.687 75.6223 392.827 76.0619 391.968 76.5015C391.586 76.7577 391.199 76.9713 390.807 77.1504C391.199 76.9726 391.586 76.7577 391.968 76.5029C391.112 76.1565 390.256 75.8101 389.402 75.4651C390.41 74.6014 390.528 73.8728 389.047 73.4816C388.102 73.2318 387.134 73.0655 386.175 72.8615C383.473 73.4441 380.755 73.5364 378.02 73.1489C377.356 73.8966 376.663 73.9234 375.941 73.2295C367.756 73.6874 359.585 74.4771 351.372 74.0968C350.132 75.1541 348.859 75.2026 347.549 74.221C347.546 74.2211 347.613 74.164 347.613 74.164C345.325 75.382 342.805 75.2698 340.334 75.4282C337.858 75.588 335.38 75.7292 332.903 75.8771C325.103 76.2962 317.305 76.7487 309.502 77.1119C307.19 77.2193 304.867 77.0723 302.549 77.0425C296.216 78.3723 284.939 78.7688 280.086 77.8336C280.084 77.8337 279.829 78.036 279.829 78.036L279.559 77.8533C277.405 79.0065 275.007 78.8715 272.703 78.9973C263.991 79.4737 255.272 79.8461 246.554 80.1946C241.245 80.4067 235.932 80.5001 230.62 80.6469C224.015 81.2885 217.411 81.9755 210.756 81.5368C207.532 82.8314 204.133 82.295 200.808 82.4245C198.827 82.5017 198.456 80.1692 196.945 79.4548C191.615 80.2426 186.259 80.2536 180.895 80.0006C179.986 80.8595 180.153 82.8616 178.163 82.5775L177.835 82.9039L177.396 82.7511C174.527 84.7658 174.527 84.7658 171.225 81.6818C168.638 82.2044 166.036 82.3073 163.418 81.9491C162.238 82.6334 162.083 84.5626 160.301 84.5141C159.425 84.9663 158.559 85.0379 157.712 84.4418C156.671 84.358 155.628 84.1783 154.593 84.2184C153.39 84.2631 152.677 84.9097 152.81 86.2392C152.931 87.4238 153.901 88.6173 152.796 89.7993C151.511 89.7468 150.529 89.4488 150.532 87.813C150.533 87.3193 149.942 86.825 149.622 86.3306C148.689 86.7727 147.751 86.8362 146.805 86.3729C145.798 87.1926 145.806 89.2402 143.802 88.8565C142.691 88.9567 141.579 89.0582 140.467 89.1584C140.144 89.8955 139.684 90.4412 138.789 90.3871C138.3 91.1927 137.742 91.1121 137.145 90.5099C135.942 90.8881 134.761 90.7426 133.586 90.3833C132.777 90.3942 131.959 90.3347 131.161 90.4347C130.069 90.5688 129.924 91.2571 130.439 92.1063C130.643 92.4407 130.989 92.6994 131.302 92.9539C131.891 93.431 132.779 93.915 131.71 94.6434C131.31 94.9162 130.551 94.6612 129.955 94.6486C129.274 95.07 128.578 95.093 127.869 94.7202C127.623 95.0477 127.372 95.3726 127.118 95.695C115.683 96.1583 104.249 96.6257 92.812 97.0784C91.124 97.1454 89.434 97.1417 87.744 97.1714C86.215 97.7291 84.663 97.99 83.055 97.5312C82.676 97.7165 82.309 98.0362 81.916 98.0686C71.951 98.8742 61.986 99.6932 51.977 99.6891C48.704 100.17 45.437 100.761 42.108 100.242C41.052 101.062 39.971 101.112 38.865 100.342C36.416 100.495 33.978 101.073 31.511 100.547C29.905 100.958 28.599 100.191 27.282 99.4681C26.28 99.9154 25.261 99.999 24.219 99.6125C23.415 100.653 23.495 102.688 21.322 102.19C20.555 102.777 19.756 102.565 18.954 102.282C18.081 102.737 17.207 103.191 16.335 103.646C16.407 104.401 16.478 105.157 16.55 105.912C16.898 105.829 17.254 105.695 17.583 105.74C17.922 105.787 18.422 106.004 18.512 106.264C18.74 106.932 18.242 107.255 17.65 107.391C17.276 107.476 16.887 107.507 16.505 107.561C15.803 108.747 14.622 109.144 13.42 108.931C10.978 108.496 8.59202 109.005 6.18202 109.066C5.44702 109.603 4.66902 109.521 3.87702 109.227C2.58402 109.88 1.29301 110.534 1.06177e-05 111.189C-0.000989382 111.19 0.0689803 111.289 0.0689803 111.289C2.48398 113.047 5.28797 112.597 7.98597 112.627C10.259 112.653 12.534 112.489 14.85 112.409C14.431 115.497 14.431 115.497 17.877 116.978C16.544 118.185 14.382 117.872 13.481 120.116C12.433 122.727 13.583 124.456 14.727 126.371C15.047 126.277 15.356 126.303 15.651 126.467C16.28 125.979 16.908 125.491 17.536 125.003C19.079 123.801 19.656 124.682 19.988 126.094C20.962 126.24 21.953 126.316 22.899 126.564C23.841 126.81 23.443 127.514 23.03 127.85C22.424 128.343 21.664 128.646 20.968 129.031C20.549 128.996 20.144 129.054 19.75 129.204C19.79 129.553 19.796 129.905 19.767 130.26C20.153 130.375 20.545 130.412 20.946 130.372L20.944 130.375C20.6 130.843 20.255 131.311 19.911 131.781C19.912 131.782 19.988 131.684 19.988 131.684C20.094 132.474 20.2 133.263 20.306 134.053C20.635 133.984 20.917 134.069 21.152 134.307C22.048 134.144 22.944 133.982 23.842 133.819C25.598 134.332 27.354 134.849 29.113 135.357C29.662 135.514 29.823 135.827 29.508 136.281C29.287 136.601 29.015 137.081 28.721 137.116C27.924 137.207 27.084 137.201 26.297 137.051C24.708 136.746 23.142 136.332 21.548 136.944C21.624 137.258 21.61 137.567 21.484 137.869C23.046 139.484 23.035 139.745 21.488 140.689C21.489 140.689 21.53 140.662 21.53 140.662C20.268 141.132 19.008 141.601 17.746 142.071C17.895 142.818 18.044 143.564 18.192 144.31C19.535 143.697 20.891 143.651 22.267 144.19C23.188 143.643 24.11 143.095 25.031 142.546C27.028 140.297 29.038 141.593 31.048 142.619C31.051 142.62 31.023 142.597 31.023 142.597C31.523 141.699 31.609 140.473 32.917 140.216C32.917 140.218 32.984 140.173 32.984 140.173C33.499 139.23 34.205 138.62 35.369 138.821C37.1 138.771 38.831 138.72 40.563 138.67C41.379 138.593 42.197 138.517 43.013 138.44C44.681 136.726 46.348 135.012 48.016 133.298L48.276 132.912L48.723 133.04C50.198 131.941 51.946 132.086 53.629 132.003C57.025 131.837 60.426 131.739 63.823 131.589C64.702 131.55 65.466 131.697 65.996 132.461C67.037 132.473 67.961 132.751 68.623 133.617C70.679 133.534 72.736 133.453 74.792 133.372C79.867 133.945 84.922 133.245 89.987 133.146C91.254 133.121 92.525 133.028 93.789 133.098C95.168 133.175 95.164 134.428 95.501 135.367C95.919 135.384 96.33 135.452 96.73 135.573C98.873 135.135 101.027 135.055 103.195 135.365C103.592 135.208 103.997 135.191 104.407 135.317C106.022 135.146 107.638 134.973 109.255 134.802C109.632 133.348 109.91 131.795 112.013 132.106C115.453 131.509 118.884 131.778 122.313 132.218C122.667 132.122 123.026 132.052 123.391 132.01C123.354 131.94 123.311 131.888 123.271 131.824C123.311 131.888 123.355 131.94 123.391 132.01C123.627 132.298 123.724 132.629 123.701 132.996C124.326 133.137 124.861 133.402 125.145 134.01C128.478 133.976 131.81 133.941 135.145 133.908C141.347 132.986 147.58 132.829 153.832 133.207C155.279 132.413 156.735 131.983 158.22 133.106C159.312 132.983 160.218 133.325 160.915 134.183C161.368 134.2 161.821 134.218 162.274 134.237C162.396 135.201 161.861 135.665 161.022 135.898C160.786 136.563 160.231 136.663 159.611 136.651C158.53 137.332 157.312 137.204 156.122 137.244C155.82 137.931 155.293 138.338 154.573 138.502C154.597 139.321 154.621 140.141 154.645 140.962C155.897 140.978 157.151 140.995 158.403 141.011C159.522 140.884 160.642 140.756 161.761 140.628C162.291 140.034 162.82 139.442 163.351 138.846C163.929 137.839 164.851 137.822 165.835 137.978C166.008 137.667 166.139 137.34 166.229 136.995C167.844 136.837 169.46 136.68 171.075 136.523C171.104 137.399 171.134 138.274 171.164 139.15C172.375 139.09 173.585 139.03 174.796 138.972C174.828 138.14 174.861 137.307 174.893 136.475C174.224 136.338 173.698 136.055 173.653 135.271C174.016 135.089 174.398 135.03 174.798 135.09C175.297 134.054 176.142 133.602 177.267 133.619C178.144 132.569 179.418 132.576 180.612 132.453C183.252 132.183 185.899 131.98 188.543 131.751C189.539 129.053 189.595 129.1 192.017 129.331C194.065 129.526 196.132 129.528 198.186 129.651C199.374 129.722 200.647 129.364 201.685 130.268C203.265 130.52 204.816 130.829 206.458 130.513C208.473 130.125 210.504 130.219 212.409 131.169C213.087 130.733 213.76 130.733 214.434 131.173C216.87 130.773 219.334 130.164 221.464 132.099C223.216 131.514 224.981 131.42 226.766 131.941C228.48 130.878 230.383 130.592 232.355 130.589C233.171 130.024 234.018 129.978 234.896 130.433C236.421 130.081 237.767 130.385 238.897 131.492C242.243 131.369 245.59 131.247 248.937 131.126C251.507 129.138 254.146 129.44 256.822 130.935L256.761 130.9C258.001 130.877 259.241 130.852 260.481 130.829C262.765 128.977 265.496 129.106 268.164 129.25C269.36 129.317 269.698 130.455 269.783 131.549C271.742 131.42 273.737 131.128 275.302 132.775C275.303 132.775 275.359 132.799 275.359 132.799C278.111 130.377 281.504 131.379 284.648 131.049C285.046 129.755 285.517 128.508 286.801 127.786C287.61 128.877 287.824 130.388 289.209 131.03C291.168 130.404 293.135 130.273 295.116 130.929C296.763 130.796 298.411 130.661 300.059 130.527C300.287 130.212 300.48 129.783 300.777 129.691C302.57 129.14 306.206 129.495 308.49 130.345C308.491 130.345 308.605 130.334 308.605 130.334C308.964 129.597 309.562 129.196 310.361 129.08C311.18 127.205 312.129 128.385 313.053 128.969C319.855 128.751 326.658 128.534 333.461 128.318C334.542 127.73 335.653 127.611 336.803 128.105C338.794 127.029 340.822 127.019 342.882 127.895C347.394 127.137 351.919 126.89 356.471 127.463C356.829 127.172 357.215 127.127 357.628 127.322C358.26 126.483 359.079 125.995 360.154 125.989C361.203 124.718 362.323 124.967 363.474 125.869C363.476 125.87 363.789 125.658 363.789 125.658L364.088 125.887C366.926 125.4 369.74 125.111 372.313 126.865C372.997 126.425 373.684 126.389 374.375 126.842C376.482 126.75 378.59 126.658 380.697 126.565C381.48 126.03 382.264 125.493 383.047 124.956C384.293 123.601 384.456 123.623 386.454 125.051C386.455 125.051 386.524 125.092 386.524 125.092C389.844 123.468 393.212 123.209 396.647 124.73C396.649 124.73 397.006 124.476 397.006 124.476L397.352 124.744C400.84 124.577 404.327 124.387 407.815 124.255C408.846 124.216 409.874 124.354 410.521 125.348C410.521 125.346 410.483 125.285 410.483 125.285C410.873 125.082 411.211 125.148 411.497 125.482C417.871 124.684 424.256 124.318 430.671 124.922C431.528 124.876 432.386 124.831 433.243 124.786L433.516 124.503L433.872 124.67C435.468 122.579 437.149 123.807 438.819 124.544C445.247 123.664 451.7 123.503 458.171 123.818C460.511 121.525 462.931 121.579 465.417 123.574L465.346 123.521C465.753 123.346 466.137 123.387 466.499 123.643C469.261 122.798 472.064 122.81 474.886 123.254C475.681 122.3 476.508 122.278 477.369 123.167C478.421 122.623 479.479 122.609 480.546 123.116C483.528 122.648 486.523 122.612 489.527 122.861L489.882 122.554L490.321 122.723C491.313 121.461 492.743 121.212 494.196 121.168C496.866 121.087 499.537 121.099 502.208 121.072C504.454 119.581 504.473 119.588 506.158 121.007C506.158 121.006 506.138 120.989 506.138 120.989C507.146 121.353 508.156 121.717 509.165 122.081C511.551 121.437 513.95 121.304 516.369 121.877C517.63 121.195 518.909 120.91 520.236 121.702C523.623 120.979 527.025 120.764 530.449 121.437C532.148 120.743 533.466 121.68 534.821 122.461C539.555 121.678 544.314 121.564 549.089 121.922C550.165 119.988 551.239 121.1 552.315 121.904C555.192 121.738 558.068 121.572 560.945 121.406C561.409 119.948 562.302 118.952 563.921 118.745C566.95 118.357 569.754 118.717 571.927 121.165C581.77 119.949 591.687 120.311 601.56 119.773C602.59 119.716 603.636 119.958 604.674 120.062C607.593 119.907 610.511 119.752 613.428 119.595C613.651 118.943 614.107 118.533 614.786 118.356C615.815 116.683 616.171 116.692 617.483 118.375C618.26 118.498 618.955 118.763 619.385 119.483C619.387 119.483 619.407 119.493 619.407 119.493C620.016 119.082 620.625 118.67 621.233 118.259C621.537 116.918 622.584 116.814 623.673 116.784C624.406 115.639 625.55 115.315 626.811 115.301C628.006 115.289 628.753 115.6 628.205 117.09C627.895 117.928 628.555 118.594 629.092 119.204C631.13 119.094 633.167 118.986 635.205 118.876C635.836 118.075 636.485 118.264 637.143 118.878C638.046 118.359 638.962 118.324 639.895 118.791C639.979 118.605 640.066 118.42 640.147 118.234C642.061 113.771 642.061 113.771 646.661 116.204L646.783 116.266C647.835 116.991 648.886 117.718 649.939 118.444C652.158 117.774 654.393 117.685 656.652 118.216C658.441 117.48 660.136 116.371 662.223 116.818C663.129 116.337 664.01 116.224 664.827 117.002C666.974 117.297 669.319 115.887 671.289 117.724C672.094 117.706 672.9 117.688 673.705 117.67C674.018 117.398 674.318 116.931 674.646 116.911C680.063 116.583 685.486 115.714 690.893 117.027C691.994 116.475 693.102 116.408 694.224 116.954C696.352 116.495 698.494 116.43 700.649 116.721L700.97 116.428L701.342 116.653C705.028 114.954 708.764 114.733 712.561 116.272C713.694 115.785 714.83 115.655 715.977 116.222C717.256 115.94 718.352 116.222 719.202 117.265C719.649 116.794 720.104 116.81 720.568 117.24C721.147 116.825 721.727 116.409 722.307 115.994C722.33 115.292 722.585 114.737 723.249 114.443C723.411 113.442 723.727 112.541 724.796 112.132L724.804 112.121C725.079 110.916 725.574 110.754 726.308 111.723C727.519 111.752 728.637 111.779 729.756 110.945C731.344 109.762 732.346 111.035 733.431 112.461C731.953 114.289 729.177 113.464 727.669 115.094L727.635 115.299C728.607 115.836 729.58 116.374 730.554 116.911C730.555 116.911 730.975 116.663 730.975 116.663L731.369 116.949C739.478 116.671 747.586 116.392 755.695 116.114L756.018 115.803L756.433 115.971C758.166 114.372 758.179 114.376 760.153 115.832C763.335 115.218 766.527 115.01 769.739 115.579C771.832 115.479 773.926 115.379 776.018 115.278C776.646 114.414 777.505 114.001 778.565 113.978C779.002 113.012 779.502 112.847 780.094 113.822C782.08 113.587 783.835 114.47 785.667 114.994C787.596 114.332 789.535 114.22 791.493 114.848C793.597 114.751 795.703 114.653 797.809 114.556C797.937 114.411 798.053 114.244 798.212 114.153C801.165 112.461 804.103 113.062 807.036 114.228C807.036 114.227 806.962 114.156 806.962 114.156C807.783 114.17 808.604 114.184 809.425 114.197L809.695 113.954L810.01 114.138C813.764 112.298 817.555 111.469 821.457 113.729C824.479 113.049 827.518 112.927 830.579 113.407C831.863 112.383 833.349 112.071 834.951 112.165C839.174 111.077 843.443 111.037 847.738 111.614C848.608 111.353 849.075 111.785 849.38 112.495C850.488 112.665 851.57 112.895 852.286 113.897C853.163 113.385 854.053 113.392 854.955 113.822C856.165 112.586 857.603 112.089 859.314 112.472C859.734 112.465 860.154 112.459 860.574 112.452C861.816 112.034 863.076 112.01 864.35 112.269C865.406 111.273 866.663 110.812 868.109 110.849C868.559 110.005 869.058 109.841 869.636 110.709C871.461 110.648 873.449 109.696 874.913 111.632C875.851 112.105 876.788 112.577 877.728 113.048C881.586 112.313 885.466 112.206 889.364 112.618C890.246 109.535 892.588 109.565 895.089 109.931C896.829 109.395 898.57 108.862 900.204 110.219C901.234 110.867 902.264 111.514 903.295 112.161C903.771 111.685 904.269 111.657 904.792 112.078C905.126 111.35 905.685 110.886 906.443 110.658C906.862 109.559 907.798 109.501 908.806 109.479C910.138 109.451 911.468 109.343 912.8 109.265C912.714 108.559 912.628 107.855 912.542 107.15C911.966 106.94 911.122 106.886 910.888 106.48C910.327 105.507 911.075 104.848 911.957 104.727C914.247 104.415 916.555 104.227 918.864 104.079C919.082 104.065 919.343 104.692 919.584 105.021C920.92 106.376 922.035 107.971 923.8 108.855C924.873 108.34 925.951 108.285 927.039 108.805C928.919 108.624 930.921 107.647 932.478 109.57C933.483 109.723 934.454 109.936 935.016 110.905C936.19 110.905 937.365 110.907 938.541 110.907C939.38 110.072 939.787 108.777 941.134 108.481C941.935 107.784 942.796 107.88 943.682 108.288C944.95 107.851 946.235 107.816 947.532 108.137L947.939 107.819L948.411 108.028C949.082 107.299 949.783 107.269 950.513 107.944C952.908 107.31 955.315 107.168 957.743 107.742C959.239 107.448 960.729 107.179 961.834 108.597C971.156 108.366 980.476 108.137 989.798 107.906L990.086 107.613L990.456 107.794C991.622 105.98 992.86 107.157 994.084 107.71C995.826 107.067 997.591 107.035 999.377 107.489C999.475 107.301 999.543 107.089 999.676 106.931C1001.71 104.524 1001.71 104.53 1004.03 106.244C1004.54 106.619 1005.08 106.951 1005.61 107.302C1009.7 106.58 1013.8 106.329 1017.92 106.957C1018.71 106.859 1019.51 106.761 1020.3 106.661C1021.63 105.072 1021.86 105.044 1023.24 106.421C1026.3 106.342 1029.37 106.325 1032.43 106.16C1034.34 106.056 1036.1 106.32 1037.67 107.467C1039.38 106.83 1041.12 106.789 1042.88 107.255C1043.38 106.368 1043.36 105.067 1044.75 104.884C1045.16 104.482 1045.59 104.461 1046.04 104.82C1047.48 104.646 1048.87 104.659 1050 105.745C1050.4 105.505 1050.8 105.52 1051.19 105.789L1051.54 105.487L1051.96 105.671C1052.52 105.254 1053.07 104.839 1053.62 104.422C1053.66 103.669 1053.87 103.04 1054.75 102.894L1054.69 102.939C1057.54 101.658 1057.89 101.637 1058.66 103.891C1059.08 105.121 1059.59 106.036 1060.68 106.662C1060.68 106.662 1061 106.647 1061 106.647C1061.41 106.197 1062 105.813 1062.19 105.285C1062.6 104.122 1061.65 102.033 1063.87 102.16C1065.37 102.245 1065 104.069 1065.39 105.147C1065.52 105.495 1065.56 105.874 1065.64 106.242C1066 106.115 1066.32 106.19 1066.59 106.488L1066.98 106.205L1067.42 106.422C1069 105.146 1070.6 104.463 1072.31 106.217C1072.78 105.751 1073.27 105.803 1073.77 106.186C1074.79 105.165 1075.84 104.578 1076.97 105.957C1078.1 105.914 1079.24 105.869 1080.37 105.824C1080.68 104.3 1081.37 103.142 1083.18 103.153C1084.45 103.16 1085.71 103.197 1086.97 103.22C1094.2 102.268 1101.45 102.046 1108.72 102.436C1109.32 102.318 1109.92 102.094 1110.52 102.101C1112.73 102.128 1111.74 103.489 1111.43 104.701C1112.73 104.655 1113.97 104.519 1115.21 104.59C1117.21 104.704 1115.89 103.408 1116.17 102.786C1116.6 101.814 1117.86 101.944 1118.88 102.148C1119.41 101.531 1119.88 100.854 1120.48 100.31C1122.42 98.5467 1123.53 98.9641 1124.67 101.829C1124.67 101.828 1124.79 101.832 1124.79 101.832C1125.18 100.682 1125.25 99.1708 1126.89 99.1217C1132.24 98.9654 1137.61 98.3749 1142.94 99.4951C1143.09 99.5284 1143.2 99.7567 1143.33 99.9149C1145.65 99.9432 1147.98 99.9648 1150.3 100.001C1152.82 100.041 1155.4 99.5895 1157.83 100.715C1157.83 100.715 1158.22 100.438 1158.22 100.438L1158.61 100.724C1160.65 100.48 1160.85 100.712 1160.54 103.138C1161.44 102.639 1162.35 102.621 1163.28 103.054C1163.47 100.22 1163.62 99.9936 1165.7 99.7996C1166.93 99.6845 1168.18 99.5956 1169.3 100.302C1169.3 100.302 1169.57 100.29 1169.57 100.29C1171.21 99.1722 1172.87 98.8898 1174.59 100.115C1174.6 100.116 1174.91 99.9008 1174.91 99.9008L1175.21 100.133C1176.03 100.074 1176.85 100.016 1177.67 99.9579C1179 99.032 1180.34 98.1009 1181.68 97.1815C1182.64 96.525 1183.62 96.5563 1184.59 97.1545C1185.29 96.7234 1185.97 96.7489 1186.65 97.1828C1188.49 97.0891 1190.55 95.9111 1191.92 98.2075C1192.58 98.3499 1193.11 98.6597 1193.38 99.2958C1194.11 99.2878 1194.83 99.2812 1195.56 99.2745L1195.47 99.3427C1197.39 97.5802 1199.74 98.1399 1201.98 98.1269C1202.1 99.3594 1202.22 100.592 1202.35 101.825C1202.76 101.837 1203.16 101.928 1203.54 102.102C1204.36 101.97 1205.18 101.84 1205.99 101.71C1206.15 100.819 1205.72 99.6133 1207.23 99.458C1207.92 99.2536 1208.62 99.0478 1209.32 98.8447C1209.37 98.4119 1209.42 97.9778 1209.48 97.5437C1212.01 95.7381 1212.44 95.7352 1213.03 97.796C1213.31 98.8132 1213.3 99.8998 1214.33 100.529C1215.72 100.497 1216.52 99.3057 1217.68 98.8182C1218.93 98.2917 1220.34 98.1048 1221.17 99.2793C1222.23 100.791 1223.64 100.727 1225.11 100.704C1228.06 100.656 1231.01 100.558 1233.95 100.482C1235.93 96.4891 1235.97 96.4865 1240.41 96.7504C1240.06 97.651 1239.72 98.5516 1239.37 99.4521C1239.34 99.803 1239.36 100.149 1239.46 100.49C1240.21 100.463 1240.96 100.437 1241.72 100.411C1242.23 100.372 1242.75 100.334 1243.26 100.294L1243.14 100.365C1243.57 100.358 1243.98 100.421 1244.38 100.555C1244.73 100.35 1245.11 100.262 1245.52 100.29C1245.81 99.6221 1246.15 98.9967 1246.98 98.8902C1247.36 98.897 1247.91 99.0687 1248.09 98.8836C1249.43 97.5108 1250.5 97.7921 1251.54 99.2395C1251.76 99.5558 1252.2 99.7233 1252.54 99.9595L1252.95 99.6999L1253.34 99.9784C1253.69 99.682 1254.07 99.6353 1254.48 99.8305C1255.02 99.0256 1255.57 98.222 1256.12 97.4158C1257.32 95.6476 1257.32 95.6463 1259.89 97.0534L1259.78 96.9943C1260.97 97.3932 1262.15 97.7361 1263.29 96.892C1263.52 96.0634 1264.1 95.6055 1264.95 95.584C1266.15 95.5538 1267.36 95.6263 1268.57 95.6548C1268.99 95.6308 1269.41 95.6081 1269.83 95.5841C1271.72 95.3273 1273.71 94.4627 1275.23 96.4281C1276.84 97.6409 1278.5 96.3553 1280.13 96.5105L1280.49 96.2059L1280.92 96.3976C1283.32 94.2218 1286.2 94.7095 1289.04 94.9428L1289.42 94.6358L1289.89 94.8091C1290.79 94.3038 1291.7 93.7998 1292.61 93.2932C1293 92.3377 1294.01 91.9369 1294.54 92.5387C1295.61 93.7579 1297.15 93.787 1298.37 94.5328L1298.74 94.5078C1299.47 93.0241 1300.19 91.7622 1302.26 91.718C1304.71 91.6645 1307.04 91.9193 1309.31 92.7831C1309.5 92.1055 1309.85 91.6184 1310.69 91.7172C1311.11 91.657 1311.54 91.5954 1311.97 91.5351C1312.42 91.5195 1312.86 91.5051 1313.31 91.4895C1313.35 92.3659 1313.4 93.2409 1313.44 94.1172C1314.2 94.0813 1314.96 94.0442 1315.72 94.0083C1316.18 93.5627 1316.64 93.1169 1317.1 92.6712C1317.1 92.6712 1317.08 92.6883 1317.08 92.6882C1317.11 92.3133 1317.15 91.9373 1317.17 91.5602C1319.69 90.9013 1322.23 90.7246 1324.79 91.2755C1324.75 92.0854 1324.71 92.8966 1324.67 93.7052C1326.91 93.7749 1329.16 93.8458 1331.41 93.9154C1331.69 93.7777 1331.97 93.6518 1332.25 93.5377C1332.69 93.6091 1332.92 93.8575 1332.94 94.2662C1333.56 94.25 1334.17 94.2339 1334.79 94.2178C1335.2 93.2373 1335.35 91.9085 1337.04 92.6169L1336.98 92.5853C1337.86 91.7235 1338.49 90.1966 1339.93 90.4907C1342.29 90.9765 1344.39 92.3721 1347 90.5919C1347.98 89.9254 1349.56 91.5899 1350.47 92.7933C1353.02 92.6923 1355.57 92.5913 1358.12 92.4916L1358.42 92.1891L1358.8 92.3786C1362.44 90.1115 1362.88 90.1882 1364.69 93.4789C1365.44 93.4115 1366.18 93.3428 1366.93 93.2754C1367.34 92.8661 1367.72 92.4178 1368.18 92.0736C1370.25 90.5258 1370.31 90.5225 1371.22 92.9987C1373.69 93.0299 1376.16 93.0611 1378.63 93.0922L1379.06 92.7812L1379.54 92.9857C1379.99 92.5686 1380.57 92.2281 1380.85 91.7207C1381.77 90.0608 1383.01 90.0735 1384.42 90.9276C1385.28 91.45 1386.06 92.0883 1386.88 92.6733L1387.32 92.5648L1387.6 92.9152C1388.64 93.2285 1389.67 93.5405 1390.71 93.8537C1390.71 93.855 1390.86 93.8098 1390.86 93.8098C1391.6 92.6539 1392.67 92.2899 1393.98 92.5321C1394.81 92.0136 1395.66 91.9854 1396.52 92.4409C1397.76 92.367 1398.99 92.2931 1400.23 92.2192C1400.73 91.3959 1401.32 90.6108 1401.7 89.7345C1402.42 88.0414 1403.28 88.3519 1404.27 89.4033C1405.92 89.4241 1407.58 89.4436 1409.24 89.4644C1409.73 89.1952 1410.16 89.2536 1410.52 89.6946C1411.69 89.8898 1411.73 90.9479 1412.11 91.7458C1412.88 91.7801 1413.66 91.8155 1414.44 91.8497C1419.53 90.869 1424.64 90.7304 1429.78 91.278C1431.22 90.8583 1432.23 91.178 1432.72 92.7471C1432.96 93.531 1433.46 94.2341 1433.84 94.9745C1434.67 94.9575 1435.5 94.9407 1436.33 94.9252C1436.75 94.9104 1437.17 94.8955 1437.6 94.8794C1438.03 94.8591 1438.46 94.8388 1438.88 94.8185C1440.82 94.0318 1442.8 94.0334 1444.8 94.5146C1445.41 93.8406 1446.03 93.7724 1446.65 94.4967C1448.25 94.3941 1449.85 94.2901 1451.45 94.1876C1451.65 93.5507 1452.04 93.0744 1452.69 92.8473C1453 91.8268 1453.76 91.5988 1454.51 92.1647C1455.15 92.6428 1455.54 93.4591 1456.04 94.1261C1456.04 94.1261 1456.43 93.9043 1456.43 93.9043L1456.78 94.1856C1458.48 93.7394 1460.19 93.6756 1461.92 93.9995L1462.26 93.6886L1462.69 93.8859C1463.6 92.8533 1464.1 91.2228 1465.96 91.5207C1468.13 91.8668 1470.45 92.9078 1472.4 92.4273C1474.5 91.9125 1476.42 92.0642 1478.43 92.0953C1479.11 91.7072 1479.93 91.4359 1480.42 90.8772C1481.6 89.5163 1482.55 89.4524 1483.92 90.727C1484.93 91.6814 1486.21 90.3 1487.41 90.5905L1487.7 90.2762L1488.09 90.4411C1489.29 87.7365 1489.29 87.7365 1492.15 88.0608C1492.29 88.4172 1492.48 88.7495 1492.72 89.0576C1495.18 88.5765 1497.66 88.3501 1500.15 88.8861C1509.09 88.0643 1518.06 88.0513 1527.02 87.9171C1528.85 88.4897 1530.88 87.8716 1532.63 88.9099C1532.63 88.9099 1533.05 88.6552 1533.05 88.6552L1533.44 88.9403C1534.7 88.8749 1535.96 88.8095 1537.22 88.7455C1538.95 87.4336 1540.74 87.3404 1542.6 88.5231C1542.6 88.5218 1542.57 88.4562 1542.57 88.4562C1545 88.3457 1545.03 88.3515 1545.51 90.9923C1546 90.6031 1546.5 90.5228 1547.02 90.9154C1546.78 89.4938 1546.98 88.4221 1548.75 88.2295C1551.33 87.9488 1551.78 88.1877 1552.86 90.7741C1553.61 90.7413 1554.36 90.7098 1555.11 90.677C1555.04 89.1293 1555.2 87.6615 1557.25 87.7394C1560.38 87.8581 1563.45 87.7362 1566.31 86.2713C1566.52 85.697 1566.62 85.0133 1567 84.597C1567.96 83.5631 1568.79 83.7301 1569.25 85.1174C1569.7 85.4979 1570.16 85.8783 1570.61 86.2575C1573.13 86.216 1575.66 86.1744 1578.19 86.1316L1578.6 85.8128L1579.09 86.0119C1580.08 85.2518 1581.08 85.1194 1582.1 85.9256C1590.16 85.3279 1598.22 84.7154 1606.32 85.0851C1609.97 84.264 1613.64 84.177 1617.34 84.6723C1619.78 83.2397 1622.59 84.2396 1625.12 83.4799C1625.33 83.8035 1625.57 84.1061 1625.83 84.3878C1638.32 83.8809 1650.81 83.3647 1663.31 82.8831C1664.35 82.8426 1665.41 83.0392 1666.46 83.1253C1667.26 83.0321 1668.05 82.9375 1668.84 82.8443C1669.95 80.0398 1670.58 79.7869 1672.86 81.2964C1673.26 81.4133 1673.78 81.7464 1674.04 81.6092C1676.11 80.5148 1677.78 81.3957 1679.43 82.5671L1679.98 82.3965C1679.98 82.3965 1680.53 82.6431 1680.53 82.6418C1683.51 82.5338 1686.49 82.4255 1689.46 82.3177C1696.14 81.3748 1702.85 81.4312 1709.56 81.445C1709.72 81.0845 1709.9 80.7329 1710.1 80.3923C1714.35 80.5641 1718.56 80.4331 1722.81 79.8071C1727.2 79.1574 1731.71 79.0628 1736.18 78.9335C1747.46 78.6078 1758.75 78.3975 1770.03 78.1425L1770.45 77.834L1770.93 78.0277C1771.18 77.7151 1771.43 77.3984 1771.67 77.0791C1772.53 77.3558 1773.37 77.6317 1774.24 77.9083L1774.7 77.6775L1775.12 77.9616C1781.07 77.798 1786.97 76.6404 1792.95 77.2737L1792.93 77.2995C1794.39 76.252 1795.9 76.2593 1797.45 77.0871C1800.24 76.4572 1803.02 76.2653 1805.83 76.9116C1808.39 76.805 1810.96 76.6983 1813.53 76.5925L1813.84 76.2904L1814.23 76.5026C1817.96 74.5724 1822 74.9129 1825.98 75.0421C1827.1 75.0776 1827.59 76.0812 1827.97 77.0458C1828.71 77.1415 1829.45 77.2358 1830.18 77.3301C1831.44 76.7098 1832.72 76.6416 1834.03 77.1482C1836.1 76.9437 1836.27 77.1419 1836.04 79.5569C1836.04 79.5583 1836.38 79.3636 1836.38 79.3636L1836.67 79.6271C1837.04 79.383 1837.41 79.3527 1837.8 79.5191C1837.93 76.8714 1837.96 76.8657 1840.43 76.8915C1840.85 76.8926 1841.26 76.8941 1841.68 76.8952C1843.07 76.7776 1844.46 76.6381 1845.85 76.5484C1847.59 76.4354 1848.22 77.5183 1848.49 78.9562C1849.63 78.9833 1850.79 79.0099 1851.93 79.0365C1853.1 78.0685 1853.55 76.1942 1855.47 76.1831C1856.27 73.3385 1858.55 73.5725 1860.8 73.7129L1861.07 73.39L1861.46 73.5284C1863.41 71.8884 1863.69 71.8818 1866.4 73.3882L1866.81 73.1775L1867.19 73.4642C1872.66 71.8285 1878.2 72.4527 1883.74 72.797L1883.69 72.8375C1885.55 71.653 1887.46 71.7215 1889.41 72.6019C1890.53 72.1013 1891.65 72.0316 1892.77 72.5579C1894.45 72.4806 1896.12 72.4034 1897.8 72.3261C1900.84 69.0151 1902.62 68.5943 1906.62 70.2475C1906.77 70.3001 1906.8 70.5577 1906.89 70.7427C1907.3 70.8554 1907.69 70.8561 1908.09 70.7377C1908.32 71.1207 1908.56 71.5024 1908.79 71.8853C1909.45 71.4365 1910.08 71.4542 1910.69 72.0094C1911.97 71.9407 1913.25 71.8734 1914.53 71.8048C1916.64 71.0281 1918.76 70.8821 1920.92 71.5672C1925.7 71.4321 1930.51 70.6996 1935.21 72.2752L1935.11 72.2145C1938.41 72.1098 1941.73 72.0263 1945.02 71.8927C1947.11 71.809 1949.16 71.8027 1950.99 73.0102C1950.99 73.0115 1951.35 72.7666 1951.35 72.7666L1951.7 73.0428C1953.39 72.6222 1955.11 72.5515 1956.84 72.8486L1957.15 72.5741L1957.48 72.7716C1960.35 70.3524 1963.77 71.2007 1967.04 71.2519C1968.91 70.465 1970.84 70.4828 1972.78 70.9328C1973.4 69.9653 1974.34 69.5067 1975.42 69.477C1978.15 69.4016 1980.88 69.3981 1983.61 69.3654C1986.56 68.5847 1989.54 68.5155 1992.54 69.0301C1994.65 68.9347 1996.77 68.8461 1998.89 68.7402C2000.2 68.6746 2001.31 68.8287 2002.34 69.8829C2003.21 70.801 2004.3 69.9576 2005.27 69.662C2005.27 69.6606 2005.14 69.7679 2005.14 69.7679C2007.19 68.066 2007.74 67.9617 2009.26 69.1613C2009.92 69.6706 2010.46 70.3187 2011.05 70.9024C2012.34 70.3304 2013.65 70.255 2014.99 70.7446C2017.21 67.1688 2018.55 66.9579 2021.58 69.6992C2021.9 69.9789 2022.23 70.2356 2022.56 70.5016C2023.47 69.9773 2024.41 69.9554 2025.35 70.3852C2026.18 69.46 2027.13 68.8478 2028.43 69.0558C2029.7 68.4457 2030.99 68.417 2032.27 69.0395C2033.73 68.8297 2035.11 68.9124 2036.28 69.9562C2037.09 69.9717 2037.89 69.986 2038.71 70.0016C2039.53 69.4886 2040.37 69.4606 2041.24 69.9079C2042.93 69.4792 2044.66 69.4445 2046.39 69.7455C2048.28 68.9888 2050.2 68.9484 2052.15 69.4979C2052.94 69.2408 2053.71 68.7989 2054.51 68.7563C2070.77 67.891 2087.02 67.067 2103.3 66.2532C2103.91 66.2225 2104.55 66.3739 2105.18 66.4399C2108.34 65.5732 2111.53 65.5192 2114.73 66.049C2116.42 64.8092 2118.41 65.24 2120.28 65.1549C2142.55 64.1343 2164.81 63.1338 2187.09 62.1892C2190.88 62.0272 2194.7 61.3527 2198.52 61.8997C2200.63 61.1536 2202.76 60.9925 2204.9 61.6728C2206.92 61.6305 2208.93 61.6029 2210.94 61.5393C2212.53 61.4892 2212.91 62.5991 2213.2 63.822C2217.96 63.1113 2222.73 62.894 2227.54 63.3613C2230.39 62.7197 2233.06 61.8063 2235.28 59.6715C2236.14 58.8395 2237.65 58.7203 2238.29 60.3974C2239.27 60.7983 2240.25 61.1974 2241.23 61.597C2243.42 60.9255 2245.61 60.8326 2247.83 61.3768C2248.75 59.6341 2249.9 58.2362 2252.18 58.4556C2253.42 58.5762 2254.69 58.5506 2255.93 58.6113C2258.21 58.7188 2258.89 58.1065 2258.95 55.8898C2259 53.9521 2258.28 53.1861 2256.4 53.2704C2255.38 53.3155 2254.34 53.4793 2253.32 53.5178C2253.26 53.5197 2253.02 52.7374 2253.16 52.4978C2253.73 51.5587 2254.59 51.0177 2255.71 50.9439C2256.29 49.6935 2255.88 48.5312 2255.41 47.3748L2255.02 47.4336L2254.58 47.3459C2254.1 46.9744 2253.62 46.6048 2253.14 46.2333C2254.2 45.3556 2255.31 44.5539 2256.76 44.4645C2257.46 43.3596 2258.29 42.294 2257.8 40.8649C2255.61 40.5783 2254.18 43.0552 2251.92 42.5124C2251.51 42.4158 2250.99 42.3153 2250.78 42.0278C2250.4 41.454 2250.57 40.9327 2251.31 40.6641C2252.7 40.1498 2254.04 39.5151 2255.04 38.3182C2255.87 37.3179 2256.68 36.3971 2256.16 34.933C2255.7 33.5989 2256.41 32.955 2257.68 32.8588C2258.93 32.7631 2260.19 32.7736 2261.46 32.7373C2262.19 32.2249 2262.9 31.7116 2263.62 31.1978C2263.62 30.5311 2263.61 29.8657 2263.61 29.1985C2262.92 28.9504 2262.57 28.4815 2262.67 27.6947C2262.28 27.3026 2262.24 26.8785 2262.55 26.4209C2261.99 25.6293 2261.41 24.8377 2260.85 24.0462L2260.56 24.2847L2260.24 24.0667C2259.79 24.752 2259.38 25.4771 2258.88 26.11C2258.51 26.5548 2257.9 27.266 2257.56 27.187C2254.82 26.5411 2251.91 26.5377 2248.3 24.9105C2251.46 24.1197 2253.59 23.5518 2255.75 23.0575C2257.22 22.7194 2257.74 21.7187 2257.86 20.3552L2257.5 20.4735L2257.26 20.163C2256.96 20.0693 2256.48 20.042 2256.42 19.868C2256.21 19.2602 2256.66 19.0085 2257.17 18.8798C2257.55 17.5337 2258.56 17.3931 2259.73 17.5472C2260.31 17.0572 2260.95 16.9682 2261.64 17.3389C2262.21 16.7508 2262.77 16.1626 2263.35 15.5727C2263.35 15.5714 2263.33 15.4213 2263.33 15.4213C2262.77 14.8775 2262.22 14.3357 2261.65 13.7924L2261.25 14.0001L2260.88 13.7261C2259.68 14.0558 2258.81 13.6343 2258.16 12.6257C2257.34 12.6168 2256.53 12.6065 2255.71 12.5976C2255.7 11.7216 2255.68 10.8471 2255.65 9.9716C2255.23 9.8714 2254.82 9.8832 2254.41 10.0095C2253.48 9.227 2252.33 8.4773 2253.95 7.2811C2254.1 6.4729 2254.62 6.1251 2255.41 6.075C2255.82 5.0612 2256.71 4.7275 2257.65 4.4746C2257.99 3.3244 2258.12 2.1911 2257.32 1.1342C2257.31 1.1347 2256.94 1.3468 2256.94 1.3468L2256.58 1.0693C2255.34 1.3502 2254.36 0.8844 2253.51 0C2252.51 0.4245 2251.51 0.442101 2250.51 0.0661011C2249.06 1.2896 2247.68 2.5359 2247.46 4.6102C2247.43 4.8448 2246.84 5.0199 2246.52 5.2207L2246.5 5.2265C2244.98 6.315 2243.12 6.2357 2241.42 6.6782C2241.27 5.8576 2241.13 5.0351 2240.99 4.2145C2236.62 4.3897 2232.24 4.5637 2227.85 4.7394C2227.8 5.0789 2227.71 5.3998 2227.55 5.707L2227.39 5.6779C2227.82 6.1485 2228.24 6.6196 2228.67 7.0889C2229.09 7.1566 2229.52 7.223 2229.97 7.2889C2230.78 7.2632 2231.61 7.2357 2232.43 7.2082C2233.28 7.1598 2234.14 7.11 2234.99 7.0615C2235.97 6.7633 2236.75 7.025 2237.38 7.848C2236.08 8.1521 2235.47 9.845 2233.89 9.5841L2233.93 9.5614C2231.96 10.8496 2229.67 10.676 2227.49 10.9282C2227.05 10.9515 2226.63 10.9744 2226.2 10.9973C2225.39 11.0897 2224.58 11.1807 2223.77 11.2717C2223.55 11.9237 2223.08 12.3029 2222.42 12.4554C2221.61 14.4236 2220.58 13.1716 2219.62 12.637C2216.71 12.8144 2213.83 13.516 2210.9 12.8832C2206.03 12.0767 2201.15 13.0275 2196.29 12.929C2194.77 12.8981 2194.14 14.0846 2193.21 14.8857C2193.16 15.7626 2192.76 16.2701 2191.8 16.1237C2191.37 16.0973 2190.94 16.0708 2190.51 16.0444C2189.36 16.1888 2188.36 15.8768 2187.49 15.096C2180.36 15.9428 2173.18 15.8494 2166.01 16.0225C2165.63 16.0315 2165.25 15.667 2164.88 15.4761C2163.85 14.2433 2163.18 12.3774 2160.96 13.197C2160.14 13.7619 2159.29 13.873 2158.4 13.3596C2157.5 13.5698 2156.96 13.1056 2156.56 12.3777C2154.82 12.7944 2153.08 12.9407 2151.33 12.4975C2148.52 13.8043 2145.68 14.4227 2142.74 12.9353L2142.7 12.9327C2141.95 12.8881 2141.2 12.8422 2140.45 12.7977C2139.19 13.1044 2138.18 12.6871 2137.36 11.7431C2136.84 12.1282 2136.32 12.1335 2135.77 11.8003C2135.18 12.8656 2134.73 14.3365 2133.1 13.5676C2132.13 13.112 2131.22 12.6919 2130.15 12.8318C2129.57 12.9109 2128.88 13.071 2128.45 13.4474C2124.35 17.1155 2124.38 17.2171 2121.54 17.4526L2121.58 17.4028C2120.55 18.4341 2119.48 18.1462 2118.39 17.5025C2117.68 17.8981 2116.97 17.8814 2116.28 17.4414C2114.63 17.6071 2114.26 16.0628 2113.35 15.2487C2110.59 15.568 2107.83 15.8633 2105.05 15.3853C2101.42 16.4261 2097.75 16.6513 2094.06 15.7701C2090.77 15.865 2087.51 16.8159 2084.21 15.9692C2082.65 16.1555 2081.22 15.8602 2079.89 15.0045C2076.82 15.6388 2073.69 15.3475 2070.58 15.336Z" fill="#00252D"/>
</svg>
